<?xml version="1.0" encoding="UTF-8" standalone="no"?>
<svg
   viewBox="0 0 213.87776 63.999998"
   version="1.1"
   id="svg172"
   sodipodi:docname="cobrexa.svg"
   width="213.87776"
   height="64"
   inkscape:version="1.1.1 (3bf5ae0d25, 2021-09-20)"
   xmlns:inkscape="http://www.inkscape.org/namespaces/inkscape"
   xmlns:sodipodi="http://sodipodi.sourceforge.net/DTD/sodipodi-0.dtd"
   xmlns="http://www.w3.org/2000/svg"
   xmlns:svg="http://www.w3.org/2000/svg"
   xmlns:rdf="http://www.w3.org/1999/02/22-rdf-syntax-ns#"
   xmlns:cc="http://creativecommons.org/ns#"
   xmlns:dc="http://purl.org/dc/elements/1.1/">
  <defs
     id="defs176" />
  <sodipodi:namedview
     id="namedview174"
     pagecolor="#ffffff"
     bordercolor="#666666"
     borderopacity="1.0"
     inkscape:pageshadow="2"
     inkscape:pageopacity="0.0"
     inkscape:pagecheckerboard="0"
     showgrid="false"
     fit-margin-top="0"
     fit-margin-left="0"
     fit-margin-right="0"
     fit-margin-bottom="0"
     inkscape:zoom="1.0786524"
     inkscape:cx="642.46834"
     inkscape:cy="242.43214"
     inkscape:window-width="1920"
     inkscape:window-height="1166"
     inkscape:window-x="0"
     inkscape:window-y="2194"
     inkscape:window-maximized="1"
     inkscape:current-layer="svg172" />
  <title
     id="title2">new-logo</title>
  <rect
     width="213.87776"
     height="64"
     style="fill:none;stroke-width:0.178116"
     id="rect4"
     x="0"
     y="0" />
  <g
     id="g170"
     transform="scale(0.17811585)">
    <g
       id="g20">
      <path
         d="m 58.9571,143.7675 -0.52,-0.5606 c 0.16,0.2055 0.3077,0.4139 0.4706,0.619 z"
         style="fill:none"
         id="path6" />
      <path
         d="M 95.7161,104.1324 C 90.2563,97.6059 84.7717,91.1 79.3305,84.5576 c -0.6168,-0.7417 -1.5189,-1.3733 -1.619,-2.2745 4.9229,-1.53 8.0554,0.508 10.8312,4.3571 3.2147,4.4578 6.9648,8.5336 10.5386,12.7275 1.983,2.3272 4.099,2.57 5.8925,0.477 5.41,-6.3128 10.7147,-12.716 16.0117,-19.1245 a 3.23,3.23 0 0 0 -0.527,-5.0743 c -1.7222,-1.3311 -3.4422,-0.9183 -4.8951,0.6321 -0.4621,0.4931 -0.8753,1.0324 -1.31,1.5511 -3.477,4.15 -7.0479,8.2268 -10.3858,12.486 -1.4024,1.7894 -2.065,1.4794 -3.3163,-0.0943 C 97.1821,85.9841 93.5624,81.9464 90.2035,77.7017 A 6.4994,6.4994 0 0 0 84.3,74.8748 c -4.344,0.2029 -8.7046,0.0606 -13.0581,0.0383 -1.8593,-0.01 -3.7938,-0.1773 -4.7821,1.8823 -1.0177,2.1207 0.1792,3.6224 1.4853,5.1684 6.7378,7.9753 13.415,16.0014 20.1376,23.9892 0.81,0.963 1.3179,1.6448 0.2417,2.9135 -9.7364,11.4806 -19.3953,23.0276 -29.3673,34.901 l 4.86,5.2437 Q 79.7356,129.9147 95.759,110.9049 c 2.39,-2.8483 2.3791,-3.8774 -0.0429,-6.7725 z"
         style="fill:#b0b2b0"
         id="path8" />
      <path
         d="m 58.9081,143.8259 c -0.1629,-0.2051 -0.3107,-0.4135 -0.4706,-0.619 l -0.0887,-0.0959 0.0887,0.0959 C 48.191,130.0321 44.0143,115.4762 46.4283,99.1533 c 5.84,-39.49 50.3277,-60.7018 84.4289,-40.1831 2.8186,1.696 3.967,1.26 5.9,-1.0425 1.8936,-2.2559 1.2842,-3.0736 -0.8492,-4.3571 C 120.3857,44.2313 103.7186,41.4136 86.3056,46.1183 62.91,52.44 47.2786,67.6009 41.01,90.9912 c -6.2562,23.3452 -0.3725,44.1322 16.4392,61.6973 1.4481,1.513 2.1615,1.3609 3.4671,-0.2086 0.9639,-1.1589 1.9357,-2.311 2.9008,-3.4687 l -4.86,-5.2437 z"
         style="fill:#707175"
         id="path10" />
      <g
         id="g18">
        <path
           d="m 146.9483,73.1376 c -0.1508,-0.2022 -0.2915,-0.3753 -0.4281,-0.5307 z"
           style="fill:none"
           id="path12" />
        <path
           d="m 165.5435,101.7349 c -1.3995,-15.6607 -7.9424,-28.8684 -19.0129,-39.943 -1.2578,-1.2583 -1.9139,-0.9924 -2.9,0.2632 -0.921,1.1732 -1.87,2.3243 -2.8184,3.4762 l 5.7076,7.0756 c 0.1366,0.1554 0.2773,0.3285 0.4281,0.5307 10.5686,14.17 14.2419,29.9968 10.2078,47.1319 a 56.35,56.35 0 0 1 -83.28,36.0708 c -3.8283,-2.1814 -3.7233,-2.0831 -6.688,1.0909 -1.58,1.6918 -1.3386,2.4276 0.5374,3.6023 12.28,7.6891 25.5586,11.1822 40.0361,9.8383 19.4347,-1.804 34.8737,-10.7519 46.2745,-26.4663 9.2124,-12.6971 12.9049,-27.0393 11.5078,-42.6706 z"
           style="fill:#293078"
           id="path14" />
        <path
           d="m 136.2593,71.0108 q -13.6479,16.3635 -27.2988,32.7244 c -2.7652,3.3271 -2.7562,4.267 -0.08,7.5243 2.5156,3.0618 5.1154,6.054 7.6575,9.0942 3.3839,4.047 6.7477,8.11 10.2185,12.285 -4.8861,1.57 -7.8311,-0.219 -10.46,-3.8365 -3.3451,-4.6031 -7.1785,-8.8584 -10.9027,-13.1762 -2.1624,-2.5073 -4.1366,-2.5012 -6.3083,0.0367 -5.216,6.0954 -10.3348,12.2741 -15.49,18.4218 a 3.5475,3.5475 0 0 0 -0.2683,4.7733 c 1.0742,1.4726 2.6316,1.5243 4.1986,1.1083 1.0773,-0.2857 1.6707,-1.2781 2.3488,-2.0852 3.5455,-4.2183 7.1471,-8.3934 10.566,-12.7127 1.3053,-1.6489 1.9933,-2.0946 3.51,-0.1444 3.4376,4.4218 7.1408,8.6367 10.72,12.9488 0.8751,1.0543 1.7051,2.1548 3.2512,2.1574 5.8045,0.01 11.6113,0.0988 17.4126,-0.0376 a 3.24,3.24 0 0 0 2.7989,-4.8091 12.4777,12.4777 0 0 0 -1.8566,-2.5727 q -9.6878,-11.5576 -19.4221,-23.0763 c -1.1533,-1.3581 -1.4968,-2.4177 -0.193,-3.9632 Q 130.4052,89.3795 143.993,72.9573 c 1.1045,-1.3358 1.7207,-1.27 2.5279,-0.35 l -5.7076,-7.0756 q -2.2648,2.7496 -4.554,5.4791 z"
           style="fill:#1ab5e9"
           id="path16" />
      </g>
    </g>
    <g
       style="isolation:isolate"
       id="g44">
      <g
         style="isolation:isolate"
         id="g42">
        <path
           d="m 273.3653,135.4437 a 47.7656,47.7656 0 0 1 -22.4785,5.1123 44.5136,44.5136 0 0 1 -17.1709,-3.4736 47.6605,47.6605 0 0 1 -25.6894,-25.3624 50.2747,50.2747 0 0 1 -4.0635,-20.579 52.7646,52.7646 0 0 1 3.539,-19.3985 48.4224,48.4224 0 0 1 9.83,-15.7285 45.1333,45.1333 0 0 1 15.008,-10.4863 47.2024,47.2024 0 0 1 19.0713,-3.8008 q 12.9756,0 21.2989,4.0635 a 42.8652,42.8652 0 0 1 14.0908,10.8789 l -9.6992,8.65 a 36.4878,36.4878 0 0 0 -11.2725,-7.93 34.2785,34.2785 0 0 0 -14.1563,-2.8184 33.5991,33.5991 0 0 0 -13.173,2.6228 33.218,33.218 0 0 0 -10.8789,7.34 34.1407,34.1407 0 0 0 -7.34,11.4034 39.7332,39.7332 0 0 0 -2.6865,14.9424 38.6205,38.6205 0 0 0 3.1455,16.1875 35.8143,35.8143 0 0 0 8.0606,11.4687 33.4056,33.4056 0 0 0 10.8789,6.8809 31.8776,31.8776 0 0 0 11.4687,2.2939 38.4137,38.4137 0 0 0 14.418,-3.0146 35.494,35.494 0 0 0 13.6318,-10.2237 l 9.4375,8.127 a 42.464,42.464 0 0 1 -15.2703,12.8445 z"
           style="fill:#6e6f72"
           id="path22" />
        <path
           d="m 393.755,91.141 a 48.703,48.703 0 0 1 -3.8662,19.4648 50.3442,50.3442 0 0 1 -10.4864,15.6631 A 48.405,48.405 0 0 1 344.8653,140.556 49.54,49.54 0 0 1 310,126.5306 a 46.9527,46.9527 0 0 1 -10.4863,-15.6631 51.3709,51.3709 0 0 1 -3.8008,-19.9882 50.9377,50.9377 0 0 1 3.67,-19.4639 47.923,47.923 0 0 1 10.1582,-15.5977 46.434,46.434 0 0 1 15.4,-10.3554 49.339,49.339 0 0 1 19.2689,-3.7354 52.1257,52.1257 0 0 1 20.25,3.8008 46.309,46.309 0 0 1 15.5977,10.4863 47.6592,47.6592 0 0 1 10.0928,15.7285 51.93,51.93 0 0 1 3.6045,19.3985 z m -13.6319,-0.5244 a 38.6413,38.6413 0 0 0 -2.6211,-14.3516 33.7351,33.7351 0 0 0 -7.34,-11.4033 34.12,34.12 0 0 0 -11.3379,-7.5371 37.36,37.36 0 0 0 -14.4834,-2.753 36.0391,36.0391 0 0 0 -14.2217,2.753 32.9722,32.9722 0 0 0 -11.0752,7.5371 33.762,33.762 0 0 0 -7.1433,11.4683 40.4,40.4 0 0 0 -2.5557,14.5489 37.1289,37.1289 0 0 0 2.8828,14.7451 36.6485,36.6485 0 0 0 7.7989,11.666 35.8723,35.8723 0 0 0 11.3379,7.668 33.9156,33.9156 0 0 0 13.5009,2.7519 35.6784,35.6784 0 0 0 13.4347,-2.5553 33.2293,33.2293 0 0 0 11.207,-7.4052 36.3026,36.3026 0 0 0 7.7334,-11.666 39.3834,39.3834 0 0 0 2.8827,-15.4668 z"
           style="fill:#6e6f72"
           id="path24" />
        <path
           d="m 467.68,112.9857 a 27.4486,27.4486 0 0 1 -1.6377,9.124 23.4657,23.4657 0 0 1 -5.1777,8.4043 26.5356,26.5356 0 0 1 -9.1746,6.106 34.8029,34.8029 0 0 1 -13.5009,2.3633 H 409.4835 V 43.3 H 434.78 a 33.91,33.91 0 0 1 11.1416,1.7676 26.3105,26.3105 0 0 1 8.8476,5.0352 22.3887,22.3887 0 0 1 5.7666,7.8506 24.8979,24.8979 0 0 1 2.0323,10.205 q 0,8.2428 -3.212,13.6075 a 25.3669,25.3669 0 0 1 -7.7988,8.372 18.9306,18.9306 0 0 1 5.6367,2.8243 25.6165,25.6165 0 0 1 5.2432,4.9882 24.9182,24.9182 0 0 1 3.8008,6.7627 23.2087,23.2087 0 0 1 1.442,8.2726 z M 448.9366,69.265 q 0,-6.3662 -4.1289,-9.94 -4.1289,-3.5738 -12.2549,-3.5742 h -9.9619 v 30.0161 h 8.7822 a 22.0622,22.0622 0 0 0 8.7813,-1.4921 14.4292,14.4292 0 0 0 5.374,-3.834 12.8559,12.8559 0 0 0 2.6875,-5.2617 24.6686,24.6686 0 0 0 0.7207,-5.9141 z m 5.1123,42.6533 a 12.4906,12.4906 0 0 0 -4.3261,-9.98 q -4.3243,-3.7177 -11.6651,-3.72 h -15.4668 v 28.3115 h 14.1563 q 8.9121,0 13.1074,-3.98 4.1924,-3.9756 4.1943,-10.6315 z"
           style="fill:#6e6f72"
           id="path26" />
        <path
           d="m 534.6583,138.9828 -38.667,-44.6953 v 44.6953 H 482.8839 V 43.3 h 30.9336 a 31.7325,31.7325 0 0 1 12.124,2.2276 28.7946,28.7946 0 0 1 9.3721,6.0957 26.674,26.674 0 0 1 6.0293,8.9785 28.4079,28.4079 0 0 1 2.0971,10.879 26.0143,26.0143 0 0 1 -2.2285,10.7481 28.304,28.304 0 0 1 -6.0293,8.7158 28.0142,28.0142 0 0 1 -8.7158,5.833 25.95,25.95 0 0 1 -10.289,2.0967 l 35.2578,40.1084 z m -4.8506,-67.9571 a 13.435,13.435 0 0 0 -1.1133,-5.1572 14.6589,14.6589 0 0 0 -3.4082,-4.8945 19.3171,19.3171 0 0 0 -5.7021,-3.7207 20.0725,20.0725 0 0 0 -8.126,-1.502 H 495.9913 V 88.52 h 15.2041 q 8.9121,0 13.7627,-4.8946 a 17.1444,17.1444 0 0 0 4.8496,-12.5997 z"
           style="fill:#6e6f72"
           id="path28" />
        <path
           d="M 562.836,138.9828 V 43.3 h 53.4776 v 12.4513 h -40.37 V 86.03 h 39.4531 v 12.4518 h -39.4532 v 28.0488 h 42.8613 v 12.4522 z"
           style="fill:#6e6f72"
           id="path30" />
        <path
           d="M 695.8741,138.9828 674.51,106.346 q -0.6577,-0.9155 -1.3116,-2.0322 -0.6562,-1.1118 -1.3105,-2.1621 -0.6577,-1.1807 -1.4414,-2.49 a 23.0989,23.0989 0 0 0 -1.4424,2.49 q -0.6562,1.05 -1.4414,2.2276 -0.7866,1.1806 -1.4414,2.2285 l -21.2344,32.375 H 629.6827 L 662.8438,88.52 633.4838,43.3 h 16.1221 l 18.3506,28.3116 c 0.3476,0.6123 0.7207,1.2021 1.1142,1.77 q 0.5889,0.8539 0.9824,1.5068 a 10.7488,10.7488 0 0 1 0.918,1.7041 q 0.3925,-0.7866 0.917,-1.7041 a 13.6516,13.6516 0 0 1 0.9834,-1.6377 c 0.3935,-0.5673 0.8066,-1.2 1.2451,-1.9013 L 692.5978,43.3 h 15.0732 l -29.23,44.5645 33.293,51.1182 z"
           style="fill:#6e6f72"
           id="path32" />
        <path
           d="M 786.4435,138.9828 774.9093,108.05 h -30.54 l -11.5341,30.9327 H 718.9405 L 755.6417,43.3 h 8.3883 l 36.9619,95.6827 z M 760.36,68.8587 a 2.0065,2.0065 0 0 1 -0.3272,-0.8515 5.1392,5.1392 0 0 0 -0.1963,-0.8526 c -0.0888,-0.3476 -0.1767,-0.6552 -0.2627,-0.917 -0.0879,0.2618 -0.1757,0.5694 -0.2617,0.917 a 4.6985,4.6985 0 0 0 -0.1972,0.8526 2.4806,2.4806 0 0 1 -0.1963,0.7207 l -9.9619,26.87 h 21.3652 z"
           style="fill:#6e6f72"
           id="path34" />
        <path
           d="m 810.6905,138.9828 v -14.418 h 13.6319 v 14.418 z"
           style="fill:#6e6f72"
           id="path36" />
        <path
           d="m 849.2745,154.6459 a 13.7721,13.7721 0 0 1 -3.84,4.7187 13.3881,13.3881 0 0 1 -5.1631,2.4248 24.3573,24.3573 0 0 1 -5.4649,0.6553 q -2.2295,0 -3.2763,-0.0654 a 19.6453,19.6453 0 0 1 -3.1455,-0.59 v -10.748 q 2.6235,0.2607 3.4072,0.3281 a 13.9921,13.9921 0 0 0 2.2285,-0.0654 7.2667,7.2667 0 0 0 1.2451,-0.1319 5.1966,5.1966 0 0 0 1.376,-0.458 2.7426,2.7426 0 0 0 1.1145,-1.1141 4.4651,4.4651 0 0 0 0.4589,-2.2286 v -62.915 h 12.583 V 147.11 a 16.375,16.375 0 0 1 -1.5234,7.5359 z m -11.06,-82.6407 V 56.931 h 12.583 v 15.0742 z"
           style="fill:#6e6f72"
           id="path38" />
        <path
           d="M 866.3946,138.9828 V 43.3 h 12.583 v 95.6827 z"
           style="fill:#6e6f72"
           id="path40" />
      </g>
    </g>
    <line
       x1="204.9538"
       y1="165.2951"
       x2="528.32599"
       y2="165.2951"
       style="fill:none;stroke:#6e6f72;stroke-width:8px"
       id="line46" />
    <g
       id="g168">
      <path
         d="m 238.4337,251.057 -5.4561,-14.6319 h -14.4463 l -5.456,14.6319 h -6.5723 l 17.36,-45.26 h 3.9678 l 17.4843,45.26 z m -12.3379,-33.17 a 0.9424,0.9424 0 0 1 -0.1553,-0.4034 2.5126,2.5126 0 0 0 -0.0927,-0.4023 c -0.042,-0.165 -0.084,-0.31 -0.1241,-0.4346 -0.042,0.1241 -0.084,0.27 -0.124,0.4346 a 2.1528,2.1528 0 0 0 -0.0928,0.4023 1.16,1.16 0 0 1 -0.0937,0.3409 l -4.7119,12.71 h 10.1064 z"
         style="fill:#6e6f72"
         id="path48" />
      <path
         d="m 282.6388,238.347 a 16.2942,16.2942 0 0 1 -0.8369,5.3008 13.4034,13.4034 0 0 1 -2.3565,4.2783 10.7934,10.7934 0 0 1 -3.6269,2.8516 10.3625,10.3625 0 0 1 -4.5879,1.0234 9.3594,9.3594 0 0 1 -4.1846,-0.93 8.5108,8.5108 0 0 1 -3.1318,-2.6045 v 13.8877 h -5.89 v -36.89 h 5.89 v 2.9141 a 9.1929,9.1929 0 0 1 2.8212,-2.542 8.4782,8.4782 0 0 1 4.4952,-1.1162 9.655,9.655 0 0 1 4.5879,1.1162 11.545,11.545 0 0 1 3.6269,3.0068 14.0768,14.0768 0 0 1 2.3565,4.4023 16.6612,16.6612 0 0 1 0.8369,5.3015 z m -5.9522,-0.248 a 10.987,10.987 0 0 0 -0.4355,-3.1 8.0651,8.0651 0 0 0 -1.2774,-2.6045 6.23,6.23 0 0 0 -2.0556,-1.7666 6.1634,6.1634 0 0 0 -5.5752,0.03 6.66,6.66 0 0 0 -2.1172,1.8291 8.4894,8.4894 0 0 0 -1.34,2.6661 10.5626,10.5626 0 0 0 -0.4677,3.1308 9.7553,9.7553 0 0 0 0.4677,3.0078 8.18,8.18 0 0 0 1.34,2.5723 6.9367,6.9367 0 0 0 2.0859,1.7988 5.56,5.56 0 0 0 2.7715,0.6817 5.7365,5.7365 0 0 0 2.8037,-0.6817 6.3285,6.3285 0 0 0 2.0869,-1.8291 8.4462,8.4462 0 0 0 1.2774,-2.6357 10.9819,10.9819 0 0 0 0.4355,-3.099 z"
         style="fill:#6e6f72"
         id="path50" />
      <path
         d="m 302.9122,231.4027 a 7.1456,7.1456 0 0 0 -1.9531,-1.0225 5.9272,5.9272 0 0 0 -1.7666,-0.2793 4.8875,4.8875 0 0 0 -4.0615,2.0772 9.3857,9.3857 0 0 0 -1.5811,5.7969 v 13.082 h -5.9512 v -25.792 h 5.9513 v 3.1 a 8.3221,8.3221 0 0 1 6.9443,-3.8437 7.1659,7.1659 0 0 1 2.6973,0.4648 9.8329,9.8329 0 0 1 2.3867,1.457 z"
         style="fill:#6e6f72"
         id="path52" />
      <path
         d="m 332.5479,237.7269 a 15.5721,15.5721 0 0 1 -0.9609,5.4873 13.605,13.605 0 0 1 -2.7285,4.4951 12.6562,12.6562 0 0 1 -4.1846,3.0069 13.0447,13.0447 0 0 1 -5.3945,1.0849 14.1379,14.1379 0 0 1 -5.2695,-0.9609 11.5011,11.5011 0 0 1 -4.1543,-2.79 13.2485,13.2485 0 0 1 -2.7276,-4.371 15.5628,15.5628 0 0 1 -0.9922,-5.7041 14.2823,14.2823 0 0 1 0.8985,-5.0215 13.5719,13.5719 0 0 1 2.5732,-4.31 12.2449,12.2449 0 0 1 4.0918,-3.0068 12.8711,12.8711 0 0 1 5.4561,-1.1162 13.3156,13.3156 0 0 1 9.7031,3.9677 12.592,12.592 0 0 1 2.7285,4.2168 13.49,13.49 0 0 1 0.9609,5.0218 z m -5.9521,0.3721 a 8.4458,8.4458 0 0 0 -2.002,-5.9522 7.0377,7.0377 0 0 0 -5.44,-2.17 6.9592,6.9592 0 0 0 -3.0019,0.62 6.4445,6.4445 0 0 0 -2.22,1.7051 7.488,7.488 0 0 0 -1.375,2.542 10.139,10.139 0 0 0 -0.4687,3.1309 9.3539,9.3539 0 0 0 1.8437,6.1376 6.3245,6.3245 0 0 0 5.16,2.2325 8.4164,8.4164 0 0 0 3.4072,-0.62 6.0908,6.0908 0 0 0 2.3145,-1.7364 7.3368,7.3368 0 0 0 1.3437,-2.6347 11.7,11.7 0 0 0 0.4385,-3.2548 z"
         style="fill:#6e6f72"
         id="path54" />
      <path
         d="m 342.7374,258.4662 a 6.5086,6.5086 0 0 1 -1.8164,2.2314 6.3173,6.3173 0 0 1 -2.4424,1.1475 11.5364,11.5364 0 0 1 -2.584,0.31 q -1.0546,0 -1.55,-0.03 a 9.2464,9.2464 0 0 1 -1.4883,-0.2793 v -5.084 q 1.2408,0.123 1.6123,0.1553 a 6.68,6.68 0 0 0 1.0538,-0.0313 3.4019,3.4019 0 0 0 0.5888,-0.0625 2.4546,2.4546 0 0 0 0.6514,-0.2168 1.2974,1.2974 0 0 0 0.5264,-0.5264 2.1149,2.1149 0 0 0 0.2177,-1.0546 v -29.76 h 5.9512 v 29.6357 a 7.75,7.75 0 0 1 -0.7205,3.565 z m -5.2305,-39.0909 v -7.13 h 5.9512 v 7.13 z"
         style="fill:#6e6f72"
         id="path56" />
      <path
         d="m 354.3087,238.9046 a 8.4928,8.4928 0 0 0 0.62,2.9141 7.0476,7.0476 0 0 0 1.55,2.3564 7.3963,7.3963 0 0 0 2.3867,1.5811 7.7952,7.7952 0 0 0 3.0694,0.5889 11.9032,11.9032 0 0 0 4.9287,-0.8682 19.7523,19.7523 0 0 0 3.6894,-2.2314 l 3.5957,3.72 a 22.9708,22.9708 0 0 1 -5.3007,3.4717 16.2168,16.2168 0 0 1 -6.9756,1.3642 14.3935,14.3935 0 0 1 -5.3018,-0.9609 13.0338,13.0338 0 0 1 -4.2988,-2.7285 12.2113,12.2113 0 0 1 -2.8819,-4.34 15.6032,15.6032 0 0 1 -1.0332,-5.8584 14.2593,14.2593 0 0 1 0.9707,-5.3017 12.4819,12.4819 0 0 1 2.7569,-4.2471 12.9712,12.9712 0 0 1 4.2051,-2.82 13.5583,13.5583 0 0 1 5.3349,-1.0234 12.6728,12.6728 0 0 1 5.3008,1.0849 12.31,12.31 0 0 1 4.0928,2.9766 13.2792,13.2792 0 0 1 2.6347,4.5254 17.3143,17.3143 0 0 1 0.93,5.7968 z M 365.6231,231 a 7.63,7.63 0 0 0 -4.3086,-1.2089 7.9031,7.9031 0 0 0 -4.4335,1.2392 5.38,5.38 0 0 0 -2.3868,3.41 h 13.6407 A 6.1314,6.1314 0 0 0 365.6231,231 Z"
         style="fill:#6e6f72"
         id="path58" />
      <path
         d="m 400.56,247.9261 a 15.4593,15.4593 0 0 1 -2.7285,2.0147 14.2736,14.2736 0 0 1 -3.1612,1.3642 11.97,11.97 0 0 1 -3.41,0.4961 15.26,15.26 0 0 1 -5.8858,-1.0537 11.6449,11.6449 0 0 1 -4.2246,-2.914 12.0557,12.0557 0 0 1 -2.5156,-4.3409 16.73,16.73 0 0 1 -0.8281,-5.332 14.6573,14.6573 0 0 1 0.92,-5.1455 13.6034,13.6034 0 0 1 2.6084,-4.3711 12.32,12.32 0 0 1 9.43,-4.123 12.9442,12.9442 0 0 1 4.03,0.5888 16.274,16.274 0 0 1 3.2549,1.4571 11.9938,11.9938 0 0 1 2.4795,1.9218 16.1152,16.1152 0 0 1 1.7051,2.0459 l -4.2783,3.2246 a 16.2714,16.2714 0 0 0 -1.1778,-1.3017 9.2875,9.2875 0 0 0 -1.55,-1.24 8.0905,8.0905 0 0 0 -1.9531,-0.8994 8.1852,8.1852 0 0 0 -2.4492,-0.3408 6.1036,6.1036 0 0 0 -2.9756,0.7129 7.6066,7.6066 0 0 0 -3.6269,4.3711 9.139,9.139 0 0 0 -0.4649,2.8525 8.7879,8.7879 0 0 0 2.0459,6.2617 7.0664,7.0664 0 0 0 5.3936,2.17 7.7576,7.7576 0 0 0 4.123,-1.1162 14.3255,14.3255 0 0 0 3.3789,-2.9141 l 4.03,3.2246 a 17.857,17.857 0 0 1 -2.1697,2.3864 z"
         style="fill:#6e6f72"
         id="path60" />
      <path
         d="m 418.4161,251.4291 h -0.5586 a 23.4329,23.4329 0 0 1 -4.01,-0.3106 7.015,7.015 0 0 1 -3.0313,-1.2392 5.9718,5.9718 0 0 1 -1.9424,-2.6358 12.4106,12.4106 0 0 1 -0.6885,-4.5566 V 230.721 h -3.5341 v -5.456 h 3.5341 v -12.09 h 5.9522 v 12.09 h 4.6494 v 5.456 h -4.6494 v 11.78 q 0,2.045 0.8369,2.6963 a 4.6772,4.6772 0 0 0 2.8213,0.6514 h 0.62 a 1.3871,1.3871 0 0 0 0.4336,-0.0615 v 5.5791 a 1.8439,1.8439 0 0 1 -0.4332,0.0628 z"
         style="fill:#6e6f72"
         id="path62" />
      <path
         d="m 456.9786,237.7894 a 16.9509,16.9509 0 0 1 -0.8369,5.332 14.3606,14.3606 0 0 1 -2.3564,4.4639 11.7184,11.7184 0 0 1 -3.627,3.0684 9.4462,9.4462 0 0 1 -4.5879,1.1474 7.9758,7.9758 0 0 1 -4.4951,-1.209 10.238,10.238 0 0 1 -2.82,-2.6347 v 3.1 h -5.8906 v -45.26 h 5.8906 v 22.5674 a 9.4628,9.4628 0 0 1 3.1308,-2.79 8.45,8.45 0 0 1 4.1846,-1.0537 10.6415,10.6415 0 0 1 4.5879,0.9921 10.7911,10.7911 0 0 1 3.627,2.7588 12.6744,12.6744 0 0 1 2.3564,4.2158 16.309,16.309 0 0 1 0.8366,5.3016 z m -5.9521,0.2481 a 11.4713,11.4713 0 0 0 -0.4043,-3.0694 7.6567,7.6567 0 0 0 -1.2461,-2.5732 6.1479,6.1479 0 0 0 -2.0869,-1.7666 6.2331,6.2331 0 0 0 -2.9278,-0.6514 5.44,5.44 0 0 0 -2.709,0.6816 6.9451,6.9451 0 0 0 -2.0869,1.7989 8.2079,8.2079 0 0 0 -1.34,2.5722 9.7645,9.7645 0 0 0 -0.4668,3.0079 10.0425,10.0425 0 0 0 0.4668,3.0371 8.94,8.94 0 0 0 1.34,2.666 6.9426,6.9426 0 0 0 2.0869,1.8916 5.1343,5.1343 0 0 0 2.6475,0.7129 6.238,6.238 0 0 0 2.9277,-0.6514 6.1356,6.1356 0 0 0 2.086,-1.7666 8.0053,8.0053 0 0 0 1.2773,-2.6348 11.7706,11.7706 0 0 0 0.4356,-3.2548 z"
         style="fill:#6e6f72"
         id="path64" />
      <path
         d="m 472.045,255.6449 a 16.6843,16.6843 0 0 1 -1.0547,2.48 8.1493,8.1493 0 0 1 -1.55,2.0762 6.7576,6.7576 0 0 1 -2.2939,1.4268 9.147,9.147 0 0 1 -3.2862,0.5263 q -1.1162,0 -2.0459,-0.0927 a 10.5537,10.5537 0 0 1 -2.1074,-0.4649 v -5.332 a 9.107,9.107 0 0 0 1.27,0.4033 5.52,5.52 0 0 0 1.2715,0.1543 4.9557,4.9557 0 0 0 2.2627,-0.4336 3.52,3.52 0 0 0 1.333,-1.1777 6.8925,6.8925 0 0 0 0.8057,-1.7051 q 0.31,-0.9624 0.6826,-1.9531 l -8.99,-26.2881 h 6.3857 l 5.7041,16.8643 c 0.041,0.124 0.082,0.2695 0.124,0.4335 0.0411,0.1661 0.0821,0.3311 0.1241,0.4961 l 0.124,0.62 0.124,-0.62 a 3.8316,3.8316 0 0 1 0.31,-0.9921 l 5.6426,-16.8018 h 6.2617 z"
         style="fill:#6e6f72"
         id="path66" />
      <path
         d="m 506.5157,251.4291 h -0.5586 a 23.4329,23.4329 0 0 1 -4.01,-0.3106 7.015,7.015 0 0 1 -3.0313,-1.2392 5.9726,5.9726 0 0 1 -1.9424,-2.6358 12.4108,12.4108 0 0 1 -0.6884,-4.5566 V 230.721 h -3.5342 v -5.456 h 3.5342 v -12.09 h 5.9521 v 12.09 h 4.6494 v 5.456 h -4.6494 v 11.78 q 0,2.045 0.8369,2.6963 a 4.6772,4.6772 0 0 0 2.8213,0.6514 h 0.62 a 1.3871,1.3871 0 0 0 0.4336,-0.0615 v 5.5791 a 1.8439,1.8439 0 0 1 -0.4332,0.0628 z"
         style="fill:#6e6f72"
         id="path68" />
      <path
         d="m 528.65,251.057 v -15.6856 a 5.31,5.31 0 0 0 -1.41,-4.123 4.71,4.71 0 0 0 -3.2481,-1.2715 5.6336,5.6336 0 0 0 -4.168,1.8291 7.4945,7.4945 0 0 0 -1.7763,5.4248 v 13.8262 h -5.9522 v -45.26 h 5.9522 l -0.0616,22.5674 a 8.66,8.66 0 0 1 2.8829,-2.6963 8.1414,8.1414 0 0 1 4.3086,-1.1474 10.9945,10.9945 0 0 1 3.7207,0.62 8.4329,8.4329 0 0 1 3.0068,1.8291 8.2707,8.2707 0 0 1 1.9834,3.0381 11.6641,11.6641 0 0 1 0.7129,4.247 v 16.8021 z"
         style="fill:#6e6f72"
         id="path70" />
      <path
         d="m 544.8927,238.9046 a 8.5161,8.5161 0 0 0 0.62,2.9141 7.0628,7.0628 0 0 0 1.55,2.3564 7.4061,7.4061 0 0 0 2.3867,1.5811 7.7984,7.7984 0 0 0 3.0694,0.5889 11.9,11.9 0 0 0 4.9287,-0.8682 19.72,19.72 0 0 0 3.6894,-2.2314 l 3.5957,3.72 a 22.9693,22.9693 0 0 1 -5.3008,3.4717 16.2129,16.2129 0 0 1 -6.9755,1.3642 14.3935,14.3935 0 0 1 -5.3018,-0.9609 13.0411,13.0411 0 0 1 -4.2979,-2.7285 12.186,12.186 0 0 1 -2.8818,-4.34 15.5832,15.5832 0 0 1 -1.0342,-5.8584 14.2593,14.2593 0 0 1 0.9707,-5.3017 12.4952,12.4952 0 0 1 2.7569,-4.2471 12.9655,12.9655 0 0 1 4.206,-2.82 13.5553,13.5553 0 0 1 5.335,-1.0234 12.6794,12.6794 0 0 1 5.3008,1.0849 12.306,12.306 0 0 1 4.0918,2.9766 13.2631,13.2631 0 0 1 2.6347,4.5254 17.3167,17.3167 0 0 1 0.9307,5.7968 z M 556.2071,231 a 7.6281,7.6281 0 0 0 -4.3086,-1.2089 7.8981,7.8981 0 0 0 -4.4326,1.2392 5.3816,5.3816 0 0 0 -2.3877,3.41 h 13.6406 A 6.1263,6.1263 0 0 0 556.2071,231 Z"
         style="fill:#6e6f72"
         id="path72" />
      <path
         d="m 612.9679,241.2923 a 16.7825,16.7825 0 0 1 -3.72,5.6416 16.3475,16.3475 0 0 1 -5.6113,3.5957 19.1941,19.1941 0 0 1 -7.0371,1.2715 20.4306,20.4306 0 0 1 -7.1611,-1.209 15.3391,15.3391 0 0 1 -5.58,-3.5341 16.3293,16.3293 0 0 1 -3.627,-5.6114 20.2575,20.2575 0 0 1 -1.3017,-7.5019 v -28.1475 h 6.2617 v 28.1045 a 14.8247,14.8247 0 0 0 0.9307,5.5723 9.929,9.929 0 0 0 2.5107,3.7138 9.7391,9.7391 0 0 0 3.6582,2.0733 14.6212,14.6212 0 0 0 8.6182,0 9.834,9.834 0 0 0 3.6885,-2.1045 10.7385,10.7385 0 0 0 2.6044,-3.7139 13.7921,13.7921 0 0 0 0.9913,-5.541 v -28.1045 h 6.1386 v 28.1475 a 19.1467,19.1467 0 0 1 -1.3641,7.3476 z"
         style="fill:#6e6f72"
         id="path74" />
      <path
         d="m 638.2013,251.057 v -15.6856 a 6.1932,6.1932 0 0 0 -1.1641,-3.875 4.3428,4.3428 0 0 0 -3.6787,-1.5195 5.3277,5.3277 0 0 0 -2.7891,0.6816 5.75,5.75 0 0 0 -1.8388,1.7364 7.1767,7.1767 0 0 0 -1.0106,2.3251 10.4036,10.4036 0 0 0 -0.3066,2.4492 v 13.8878 h -5.9524 v -25.792 h 5.9522 l -0.0615,3.1 a 8.3615,8.3615 0 0 1 3.1621,-2.8516 8.9234,8.9234 0 0 1 4.1533,-0.9921 9.69,9.69 0 0 1 6.82,2.4492 q 2.6646,2.4492 2.666,7.2851 v 16.8014 z"
         style="fill:#6e6f72"
         id="path76" />
      <path
         d="m 650.0431,219.3753 v -7.13 h 5.9521 v 7.13 z m 0,31.6817 v -25.792 h 5.9521 v 25.792 z"
         style="fill:#6e6f72"
         id="path78" />
      <path
         d="M 671.7433,251.8011 659.3438,225.265 h 6.51 l 5.58,12.4619 c 0.124,0.29 0.2266,0.5576 0.31,0.8057 0.041,0.166 0.083,0.31 0.124,0.4345 0.041,-0.124 0.083,-0.2685 0.124,-0.4345 a 4.2622,4.2622 0 0 1 0.3106,-0.8672 l 5.6416,-12.4 h 6.2627 z"
         style="fill:#6e6f72"
         id="path80" />
      <path
         d="m 691.087,238.9046 a 8.5185,8.5185 0 0 0 0.62,2.9141 7.0628,7.0628 0 0 0 1.55,2.3564 7.4076,7.4076 0 0 0 2.3868,1.5811 7.7979,7.7979 0 0 0 3.0693,0.5889 11.9,11.9 0 0 0 4.9287,-0.8682 19.7241,19.7241 0 0 0 3.6895,-2.2314 l 3.5957,3.72 a 22.9735,22.9735 0 0 1 -5.3008,3.4717 16.2137,16.2137 0 0 1 -6.9756,1.3642 14.3935,14.3935 0 0 1 -5.3018,-0.9609 13.04,13.04 0 0 1 -4.2978,-2.7285 12.1862,12.1862 0 0 1 -2.8819,-4.34 15.5832,15.5832 0 0 1 -1.0341,-5.8584 14.2572,14.2572 0 0 1 0.9707,-5.3017 12.495,12.495 0 0 1 2.7568,-4.2471 12.9659,12.9659 0 0 1 4.2061,-2.82 13.5548,13.5548 0 0 1 5.3349,-1.0234 12.6794,12.6794 0 0 1 5.3008,1.0849 12.306,12.306 0 0 1 4.0918,2.9766 13.2649,13.2649 0 0 1 2.6348,4.5254 17.3168,17.3168 0 0 1 0.9306,5.7968 z M 702.4015,231 a 7.6286,7.6286 0 0 0 -4.3086,-1.2089 7.8978,7.8978 0 0 0 -4.4326,1.2392 5.3808,5.3808 0 0 0 -2.3877,3.41 h 13.6406 A 6.1272,6.1272 0 0 0 702.4015,231 Z"
         style="fill:#6e6f72"
         id="path82" />
      <path
         d="m 731.4483,231.4027 a 7.1456,7.1456 0 0 0 -1.9531,-1.0225 5.9272,5.9272 0 0 0 -1.7666,-0.2793 4.8864,4.8864 0 0 0 -4.0615,2.0772 9.3864,9.3864 0 0 0 -1.5811,5.7969 v 13.082 h -5.9521 v -25.792 h 5.9521 v 3.1 a 8.3221,8.3221 0 0 1 6.9444,-3.8437 7.169,7.169 0 0 1 2.6972,0.4648 9.8352,9.8352 0 0 1 2.3868,1.457 z"
         style="fill:#6e6f72"
         id="path84" />
      <path
         d="m 753.4581,243.8646 a 7.1606,7.1606 0 0 1 -0.6582,3.0381 7.2682,7.2682 0 0 1 -1.8789,2.48 9.4,9.4 0 0 1 -2.876,1.6738 10.1222,10.1222 0 0 1 -3.5771,0.62 14.2865,14.2865 0 0 1 -9.3,-3.2861 l 2.914,-4.4024 a 10.4707,10.4707 0 0 0 3.3174,1.86 9.3554,9.3554 0 0 0 2.7588,0.5576 5.0557,5.0557 0 0 0 2.2939,-0.5264 1.7766,1.7766 0 0 0 1.0538,-1.7051 2.571,2.571 0 0 0 -1.0791,-2.17 20.4476,20.4476 0 0 0 -2.7442,-1.6738 q -1.2334,-0.62 -2.6221,-1.3027 a 12.3341,12.3341 0 0 1 -2.5283,-1.6426 8.1369,8.1369 0 0 1 -1.88,-2.294 6.7518,6.7518 0 0 1 -0.74,-3.3173 6.06,6.06 0 0 1 0.6885,-2.82 7.6591,7.6591 0 0 1 1.8486,-2.3251 8.5626,8.5626 0 0 1 2.7217,-1.55 9.9043,9.9043 0 0 1 3.3594,-0.5585 21.1272,21.1272 0 0 1 4.0605,0.4345 11.1922,11.1922 0 0 1 4.2471,1.8594 l -2.418,4.65 a 9.3252,9.3252 0 0 0 -2.9756,-1.3955 10.9,10.9 0 0 0 -2.666,-0.4024 5.2933,5.2933 0 0 0 -1.9844,0.3721 1.5448,1.5448 0 0 0 -0.93,1.6113 2.0588,2.0588 0 0 0 1.2021,1.7676 q 1.2027,0.7134 2.93,1.5811 1.2319,0.62 2.56,1.3945 a 13.1628,13.1628 0 0 1 2.4052,1.7979 8.8041,8.8041 0 0 1 1.7881,2.4179 7.0967,7.0967 0 0 1 0.7088,3.2561 z"
         style="fill:#6e6f72"
         id="path86" />
      <path
         d="m 758.48,219.3753 v -7.13 h 5.9521 v 7.13 z m 0,31.6817 v -25.792 h 5.9521 v 25.792 z"
         style="fill:#6e6f72"
         id="path88" />
      <path
         d="m 782.3507,251.4291 h -0.5586 a 23.4349,23.4349 0 0 1 -4.01,-0.3106 7.0146,7.0146 0 0 1 -3.0312,-1.2392 5.9718,5.9718 0 0 1 -1.9424,-2.6358 12.4106,12.4106 0 0 1 -0.6885,-4.5566 V 230.721 h -3.534 v -5.456 h 3.534 v -12.09 h 5.9522 v 12.09 h 4.6494 v 5.456 h -4.6494 v 11.78 q 0,2.045 0.8369,2.6963 a 4.677,4.677 0 0 0 2.8213,0.6514 h 0.62 a 1.3875,1.3875 0 0 0 0.4336,-0.0615 v 5.5791 a 1.8439,1.8439 0 0 1 -0.4333,0.0628 z"
         style="fill:#6e6f72"
         id="path90" />
      <path
         d="m 798.6554,255.6449 a 16.6948,16.6948 0 0 1 -1.0547,2.48 8.1493,8.1493 0 0 1 -1.55,2.0762 6.7581,6.7581 0 0 1 -2.294,1.4268 9.1465,9.1465 0 0 1 -3.2861,0.5263 q -1.1162,0 -2.0459,-0.0927 a 10.5537,10.5537 0 0 1 -2.1074,-0.4649 v -5.332 a 9.107,9.107 0 0 0 1.27,0.4033 5.519,5.519 0 0 0 1.2715,0.1543 4.956,4.956 0 0 0 2.2627,-0.4336 3.5208,3.5208 0 0 0 1.333,-1.1777 6.8923,6.8923 0 0 0 0.8056,-1.7051 q 0.3106,-0.9624 0.6827,-1.9531 l -8.99,-26.2881 h 6.3858 l 5.7041,16.8643 c 0.041,0.124 0.082,0.2695 0.124,0.4335 0.041,0.1661 0.082,0.3311 0.124,0.4961 l 0.124,0.62 0.1241,-0.62 a 3.8349,3.8349 0 0 1 0.3095,-0.9921 l 5.6426,-16.8018 h 6.2617 z"
         style="fill:#6e6f72"
         id="path92" />
      <path
         d="m 846.5187,237.7269 a 15.5519,15.5519 0 0 1 -0.961,5.4873 13.5883,13.5883 0 0 1 -2.7285,4.4951 12.647,12.647 0 0 1 -4.1846,3.0069 13.0433,13.0433 0 0 1 -5.3935,1.0849 14.1432,14.1432 0 0 1 -5.27,-0.9609 11.5011,11.5011 0 0 1 -4.1543,-2.79 13.2485,13.2485 0 0 1 -2.7276,-4.371 15.5628,15.5628 0 0 1 -0.9922,-5.7041 14.2809,14.2809 0 0 1 0.8995,-5.0215 13.5876,13.5876 0 0 1 2.5722,-4.31 12.2389,12.2389 0 0 1 4.0928,-3.0068 12.8645,12.8645 0 0 1 5.456,-1.1162 13.3155,13.3155 0 0 1 9.7022,3.9677 12.5767,12.5767 0 0 1 2.7285,4.2168 13.4724,13.4724 0 0 1 0.9605,5.0218 z m -5.9522,0.3721 a 8.4454,8.4454 0 0 0 -2.001,-5.9522 7.0379,7.0379 0 0 0 -5.44,-2.17 6.9606,6.9606 0 0 0 -3.0029,0.62 6.45,6.45 0 0 0 -2.2188,1.7051 7.49,7.49 0 0 0 -1.376,2.542 10.1659,10.1659 0 0 0 -0.4687,3.1309 9.3486,9.3486 0 0 0 1.8447,6.1376 6.3225,6.3225 0 0 0 5.1592,2.2325 8.4131,8.4131 0 0 0 3.4072,-0.62 6.0908,6.0908 0 0 0 2.3145,-1.7364 7.3544,7.3544 0 0 0 1.3447,-2.6347 11.7371,11.7371 0 0 0 0.4371,-3.2548 z"
         style="fill:#6e6f72"
         id="path94" />
      <path
         d="m 858.6075,230.721 v 20.336 h -5.9512 v -20.336 h -3.7207 v -5.456 h 3.7207 v -13.7022 a 5.4431,5.4431 0 0 1 0.5948,-2.6035 5.8406,5.8406 0 0 1 1.5351,-1.86 6.53,6.53 0 0 1 2.13,-1.1162 8.1183,8.1183 0 0 1 2.4356,-0.3721 q 0.8671,0 1.55,0.0312 a 9.6787,9.6787 0 0 1 1.5507,0.2168 v 5.1465 l -0.62,-0.124 a 5.08,5.08 0 0 0 -1.1162,0 2.4745,2.4745 0 0 0 -1.5185,0.7441 3.0171,3.0171 0 0 0 -0.59,2.1075 v 11.5319 h 4.03 v 5.456 z"
         style="fill:#6e6f72"
         id="path96" />
      <path
         d="m 876.339,251.057 v -45.26 h 6.1992 v 39.37 h 17.1748 v 5.89 z"
         style="fill:#6e6f72"
         id="path98" />
      <path
         d="m 920.6065,251.057 0.0616,-3.1 a 8.746,8.746 0 0 1 -2.9453,2.7275 8.4357,8.4357 0 0 1 -4.37,1.1162 q -4.6509,0 -7.0683,-2.4492 -2.4174,-2.4492 -2.418,-7.2851 V 225.265 h 5.9522 v 15.6855 a 6.0612,6.0612 0 0 0 1.2255,3.7823 4.26,4.26 0 0 0 3.6172,1.6123 4.9111,4.9111 0 0 0 2.6348,-0.6817 6.1816,6.1816 0 0 0 1.8389,-1.7363 7.8317,7.8317 0 0 0 1.1035,-2.3252 8.7979,8.7979 0 0 0 0.3681,-2.4492 V 225.265 h 5.9512 v 25.792 z"
         style="fill:#6e6f72"
         id="path100" />
      <path
         d="m 949.0636,251.057 -5.1455,-7.6885 q -0.126,-0.1845 -0.2793,-0.4336 -0.1552,-0.2475 -0.2793,-0.4961 a 3.1044,3.1044 0 0 1 -0.31,-0.4961 c -0.083,0.208 -0.166,0.3936 -0.248,0.5586 a 3.6111,3.6111 0 0 1 -0.2793,0.4649 q -0.1554,0.2183 -0.2784,0.4023 l -5.0849,7.6885 h -7.1914 l 9.5478,-14.1983 -7.75,-11.5937 h 7.1924 l 3.3477,5.0225 a 4.1506,4.1506 0 0 1 0.248,0.4335 3.7979,3.7979 0 0 0 0.2481,0.4336 0.3449,0.3449 0 1 0 0.62,0 c 0.082,-0.164 0.1748,-0.33 0.2783,-0.4961 0.1035,-0.164 0.1963,-0.31 0.2793,-0.4335 l 3.2861,-4.96 h 7.0059 l -7.626,11.47 9.61,14.3223 z"
         style="fill:#6e6f72"
         id="path102" />
      <path
         d="m 963.1368,238.9046 a 8.5185,8.5185 0 0 0 0.62,2.9141 7.0628,7.0628 0 0 0 1.55,2.3564 7.4076,7.4076 0 0 0 2.3868,1.5811 7.7979,7.7979 0 0 0 3.0693,0.5889 11.9,11.9 0 0 0 4.9287,-0.8682 19.7241,19.7241 0 0 0 3.6895,-2.2314 l 3.5957,3.72 a 22.9693,22.9693 0 0 1 -5.3008,3.4717 16.2137,16.2137 0 0 1 -6.9756,1.3642 14.3935,14.3935 0 0 1 -5.3018,-0.9609 13.04,13.04 0 0 1 -4.2978,-2.7285 12.1862,12.1862 0 0 1 -2.8819,-4.34 15.5832,15.5832 0 0 1 -1.0341,-5.8584 14.2572,14.2572 0 0 1 0.9707,-5.3017 12.495,12.495 0 0 1 2.7568,-4.2471 12.9659,12.9659 0 0 1 4.2061,-2.82 13.5548,13.5548 0 0 1 5.3349,-1.0234 12.6794,12.6794 0 0 1 5.3008,1.0849 12.306,12.306 0 0 1 4.0918,2.9766 13.2649,13.2649 0 0 1 2.6348,4.5254 17.3168,17.3168 0 0 1 0.9306,5.7968 z M 974.4513,231 a 7.6286,7.6286 0 0 0 -4.3086,-1.2089 7.8978,7.8978 0 0 0 -4.4326,1.2392 5.3808,5.3808 0 0 0 -2.3877,3.41 H 976.963 A 6.1272,6.1272 0 0 0 974.4513,231 Z"
         style="fill:#6e6f72"
         id="path104" />
      <path
         d="m 1020.4239,251.057 v -16.4922 a 4.3983,4.3983 0 0 0 -1.2636,-3.4717 4.7071,4.7071 0 0 0 -3.2354,-1.1162 5.7585,5.7585 0 0 0 -2.2178,0.4336 5.4832,5.4832 0 0 0 -3.02,3.0381 5.8519,5.8519 0 0 0 -0.4306,2.2324 v 15.376 h -5.9522 v -16.4922 a 4.2873,4.2873 0 0 0 -1.3252,-3.4717 4.9431,4.9431 0 0 0 -3.2969,-1.1162 5.292,5.292 0 0 0 -3.9433,1.6436 5.665,5.665 0 0 0 -1.6026,4.122 v 15.3145 h -5.9521 v -25.792 h 5.9521 l -0.0615,2.4805 a 8.3121,8.3121 0 0 1 2.9444,-2.3252 8.68,8.68 0 0 1 3.875,-0.8994 10.4817,10.4817 0 0 1 4.9912,1.0234 8.5336,8.5336 0 0 1 3.1308,2.9443 9.0236,9.0236 0 0 1 1.7735,-1.7666 9.7836,9.7836 0 0 1 2.1464,-1.24 13.2243,13.2243 0 0 1 2.2715,-0.7129 10.2472,10.2472 0 0 1 2.1465,-0.248 10.7065,10.7065 0 0 1 4.2617,0.7441 7.1737,7.1737 0 0 1 2.77,2.0459 8.0813,8.0813 0 0 1 1.5244,3.0381 14.0613,14.0613 0 0 1 0.4668,3.6582 v 17.05 z"
         style="fill:#6e6f72"
         id="path106" />
      <path
         d="m 1056.8175,237.7894 a 16.9509,16.9509 0 0 1 -0.8369,5.332 14.3608,14.3608 0 0 1 -2.3565,4.4639 11.7192,11.7192 0 0 1 -3.6269,3.0684 9.4462,9.4462 0 0 1 -4.5879,1.1474 7.9756,7.9756 0 0 1 -4.4951,-1.209 10.2385,10.2385 0 0 1 -2.82,-2.6347 v 3.1 h -5.8906 v -45.26 h 5.8906 v 22.5674 a 9.4631,9.4631 0 0 1 3.1309,-2.79 8.45,8.45 0 0 1 4.1846,-1.0537 10.6415,10.6415 0 0 1 4.5879,0.9921 10.7917,10.7917 0 0 1 3.6269,2.7588 12.6746,12.6746 0 0 1 2.3565,4.2158 16.309,16.309 0 0 1 0.8365,5.3016 z m -5.9522,0.2481 a 11.4673,11.4673 0 0 0 -0.4043,-3.0694 7.6548,7.6548 0 0 0 -1.2461,-2.5732 6.146,6.146 0 0 0 -2.0869,-1.7666 6.2324,6.2324 0 0 0 -2.9277,-0.6514 5.44,5.44 0 0 0 -2.709,0.6816 6.9439,6.9439 0 0 0 -2.0869,1.7989 8.2081,8.2081 0 0 0 -1.34,2.5722 9.7644,9.7644 0 0 0 -0.4667,3.0079 10.0424,10.0424 0 0 0 0.4667,3.0371 8.94,8.94 0 0 0 1.34,2.666 6.9414,6.9414 0 0 0 2.0869,1.8916 5.1343,5.1343 0 0 0 2.6475,0.7129 6.238,6.238 0 0 0 2.9277,-0.6514 6.1343,6.1343 0 0 0 2.0859,-1.7666 8.0035,8.0035 0 0 0 1.2774,-2.6348 11.7744,11.7744 0 0 0 0.4355,-3.2548 z"
         style="fill:#6e6f72"
         id="path108" />
      <path
         d="m 1086.6388,237.7269 a 15.55,15.55 0 0 1 -0.961,5.4873 13.5883,13.5883 0 0 1 -2.7285,4.4951 12.647,12.647 0 0 1 -4.1846,3.0069 13.0433,13.0433 0 0 1 -5.3935,1.0849 14.1432,14.1432 0 0 1 -5.2705,-0.9609 11.5011,11.5011 0 0 1 -4.1543,-2.79 13.25,13.25 0 0 1 -2.7276,-4.371 15.5628,15.5628 0 0 1 -0.9921,-5.7041 14.2831,14.2831 0 0 1 0.8994,-5.0215 13.5876,13.5876 0 0 1 2.5722,-4.31 12.2389,12.2389 0 0 1 4.0928,-3.0068 12.8646,12.8646 0 0 1 5.4561,-1.1162 13.3155,13.3155 0 0 1 9.7021,3.9677 12.5767,12.5767 0 0 1 2.7285,4.2168 13.47,13.47 0 0 1 0.961,5.0218 z m -5.9522,0.3721 a 8.4454,8.4454 0 0 0 -2.001,-5.9522 7.0377,7.0377 0 0 0 -5.44,-2.17 6.9609,6.9609 0 0 0 -3.0029,0.62 6.45,6.45 0 0 0 -2.2188,1.7051 7.488,7.488 0 0 0 -1.3759,2.542 10.1659,10.1659 0 0 0 -0.4688,3.1309 9.3492,9.3492 0 0 0 1.8447,6.1376 6.3226,6.3226 0 0 0 5.1592,2.2325 8.4131,8.4131 0 0 0 3.4072,-0.62 6.0908,6.0908 0 0 0 2.3145,-1.7364 7.3529,7.3529 0 0 0 1.3447,-2.6347 11.7371,11.7371 0 0 0 0.4371,-3.2548 z"
         style="fill:#6e6f72"
         id="path110" />
      <path
         d="m 1108.0284,251.057 0.062,-3.1 a 8.7441,8.7441 0 0 1 -2.9453,2.7275 8.4351,8.4351 0 0 1 -4.37,1.1162 q -4.6509,0 -7.0683,-2.4492 -2.4174,-2.4492 -2.418,-7.2851 V 225.265 h 5.9521 v 15.6855 a 6.0612,6.0612 0 0 0 1.2256,3.7823 4.26,4.26 0 0 0 3.6172,1.6123 4.9113,4.9113 0 0 0 2.6348,-0.6817 6.18,6.18 0 0 0 1.8388,-1.7363 7.8319,7.8319 0 0 0 1.1036,-2.3252 8.7979,8.7979 0 0 0 0.3681,-2.4492 V 225.265 h 5.9512 v 25.792 z"
         style="fill:#6e6f72"
         id="path112" />
      <path
         d="m 1135.8028,231.4027 a 7.1456,7.1456 0 0 0 -1.9531,-1.0225 5.9272,5.9272 0 0 0 -1.7666,-0.2793 4.8864,4.8864 0 0 0 -4.0615,2.0772 9.3864,9.3864 0 0 0 -1.5811,5.7969 v 13.082 h -5.9521 v -25.792 h 5.9521 v 3.1 a 8.3221,8.3221 0 0 1 6.9444,-3.8437 7.169,7.169 0 0 1 2.6972,0.4648 9.8329,9.8329 0 0 1 2.3867,1.457 z"
         style="fill:#6e6f72"
         id="path114" />
      <path
         d="m 1162.6065,256.513 a 9.569,9.569 0 0 1 -2.8193,3.6885 10.989,10.989 0 0 1 -4.082,1.9844 19.6528,19.6528 0 0 1 -4.8985,0.5889 21.9458,21.9458 0 0 1 -5.456,-0.6817 11.5363,11.5363 0 0 1 -4.65,-2.3564 l 2.9141,-4.34 a 11.4989,11.4989 0 0 0 3.8437,1.7676 15.6585,15.6585 0 0 0 3.1006,0.3408 11.4611,11.4611 0 0 0 2.666,-0.31 7.172,7.172 0 0 0 2.294,-0.961 5.1378,5.1378 0 0 0 1.581,-1.6113 4.3726,4.3726 0 0 0 0.5889,-2.3252 v -4.03 a 8.0959,8.0959 0 0 1 -3.1524,2.6661 9.6518,9.6518 0 0 1 -4.14,0.8681 10.5146,10.5146 0 0 1 -4.6035,-0.9922 10.83,10.83 0 0 1 -3.584,-2.7588 12.6822,12.6822 0 0 1 -2.3487,-4.2158 16.3537,16.3537 0 0 1 -0.8339,-5.3017 17.0124,17.0124 0 0 1 0.8339,-5.3321 14.4081,14.4081 0 0 1 2.3487,-4.4638 11.84,11.84 0 0 1 3.584,-3.0684 9.3359,9.3359 0 0 1 4.6035,-1.1474 8.4256,8.4256 0 0 1 4.4795,1.1162 9.2012,9.2012 0 0 1 2.8125,2.542 v -2.9148 h 5.9521 v 25.5439 a 13.8807,13.8807 0 0 1 -1.0342,5.7041 z m -4.4218,-18.3525 a 9.8478,9.8478 0 0 0 -0.4649,-3.0068 8.66,8.66 0 0 0 -1.333,-2.6036 7.1419,7.1419 0 0 0 -2.0771,-1.86 5.3364,5.3364 0 0 0 -2.7588,-0.7129 5.65,5.65 0 0 0 -2.8213,0.6816 6.5784,6.5784 0 0 0 -2.0459,1.7989 8.0216,8.0216 0 0 0 -1.2715,2.6035 11.2992,11.2992 0 0 0 0,6.2 8.0226,8.0226 0 0 0 1.2715,2.6035 6.5654,6.5654 0 0 0 2.0459,1.7988 5.5115,5.5115 0 0 0 2.7588,0.6817 5.6888,5.6888 0 0 0 2.79,-0.6817 6.8035,6.8035 0 0 0 2.1084,-1.7988 8.17,8.17 0 0 0 1.333,-2.6035 10.3423,10.3423 0 0 0 0.4649,-3.1007 z"
         style="fill:#6e6f72"
         id="path116" />
      <path
         d="m 224.4835,320.057 0.0615,-1.86 a 12.8956,12.8956 0 0 1 -8.06,2.6045 12.1109,12.1109 0 0 1 -4.247,-0.6826 8.5729,8.5729 0 0 1 -3.0381,-1.8594 7.427,7.427 0 0 1 -1.7979,-2.7588 9.5808,9.5808 0 0 1 -0.5888,-3.3789 7.4651,7.4651 0 0 1 1.081,-4.03 9.5037,9.5037 0 0 1 2.9346,-2.9453 14.1106,14.1106 0 0 1 4.417,-1.8291 23.5484,23.5484 0 0 1 5.5312,-0.62 h 3.83 a 4.09,4.09 0 0 0 -1.1162,-3.2861 q -1.1162,-0.9287 -4.03,-0.93 a 19.6059,19.6059 0 0 0 -7.9355,1.4258 l -2.0459,-4.4014 a 10.0267,10.0267 0 0 1 2.0771,-0.9306 17.2844,17.2844 0 0 1 2.418,-0.5889 q 1.27,-0.2167 2.5107,-0.3408 1.2407,-0.1241 2.294,-0.124 a 17.388,17.388 0 0 1 8.5254,1.7675 q 3.1289,1.7667 3.1308,5.9209 v 18.8472 z m 0,-12.586 H 222.81 a 19.9523,19.9523 0 0 0 -7.5332,1.085 3.683,3.683 0 0 0 -2.5108,3.5654 2.6426,2.6426 0 0 0 0.4649,1.58 3.7174,3.7174 0 0 0 1.24,1.086 5.7842,5.7842 0 0 0 1.7051,0.6191 9.4492,9.4492 0 0 0 1.8594,0.1865 15.0836,15.0836 0 0 0 1.7675,-0.0928 9.4108,9.4108 0 0 0 1.5186,-0.31 8.3555,8.3555 0 0 0 1.5195,-0.62 13.852,13.852 0 0 0 1.6426,-1.0225 z"
         style="fill:#6e6f72"
         id="path118" />
      <path
         d="m 253.0655,320.057 v -15.6856 a 6.1874,6.1874 0 0 0 -1.165,-3.875 4.34,4.34 0 0 0 -3.6777,-1.5195 5.3272,5.3272 0 0 0 -2.7891,0.6816 5.7491,5.7491 0 0 0 -1.8389,1.7364 7.2022,7.2022 0 0 0 -1.0117,2.3252 10.4537,10.4537 0 0 0 -0.3057,2.4492 v 13.8877 h -5.9521 v -25.792 h 5.9521 l -0.0625,3.1 a 8.3777,8.3777 0 0 1 3.1621,-2.8516 8.928,8.928 0 0 1 4.1543,-0.9921 9.6918,9.6918 0 0 1 6.82,2.4492 q 2.6644,2.4492 2.666,7.2851 v 16.8014 z"
         style="fill:#6e6f72"
         id="path120" />
      <path
         d="m 282.02,320.057 0.0616,-2.8516 a 8.8671,8.8671 0 0 1 -2.82,2.5108 8.6824,8.6824 0 0 1 -4.4951,1.0849 9.5956,9.5956 0 0 1 -4.6191,-1.1162 11.6434,11.6434 0 0 1 -3.5967,-3.0068 14.0438,14.0438 0 0 1 -2.3555,-4.4024 16.66,16.66 0 0 1 -0.8369,-5.3007 16.3538,16.3538 0 0 1 0.834,-5.3008 13.41,13.41 0 0 1 2.3486,-4.2783 10.8462,10.8462 0 0 1 3.584,-2.8516 10.2383,10.2383 0 0 1 4.6035,-1.0234 9.0078,9.0078 0 0 1 7.292,3.4716 v -22.1953 h 5.9522 v 45.26 z m 0.4961,-13.0195 a 9.8239,9.8239 0 0 0 -0.4658,-3.0079 8.1941,8.1941 0 0 0 -1.333,-2.5722 6.9393,6.9393 0 0 0 -2.0762,-1.7989 5.5277,5.5277 0 0 0 -2.76,-0.6816 5.6465,5.6465 0 0 0 -2.82,0.6816 6.4273,6.4273 0 0 0 -2.0459,1.8291 8.4278,8.4278 0 0 0 -1.2714,2.6358 11.2956,11.2956 0 0 0 0,6.1992 8.0367,8.0367 0 0 0 1.2714,2.6045 6.1988,6.1988 0 0 0 2.0459,1.7666 6.1082,6.1082 0 0 0 5.5489,-0.03 6.632,6.632 0 0 0 2.1074,-1.8291 8.4739,8.4739 0 0 0 1.333,-2.666 10.6175,10.6175 0 0 0 0.4653,-3.1311 z"
         style="fill:#6e6f72"
         id="path122" />
      <path
         d="m 314.32,320.4291 h -0.5586 a 23.4311,23.4311 0 0 1 -4.0088,-0.3106 7.01,7.01 0 0 1 -3.0312,-1.2392 5.9568,5.9568 0 0 1 -1.9424,-2.6358 12.3872,12.3872 0 0 1 -0.69,-4.5566 V 299.721 h -3.5341 v -5.456 h 3.5351 v -12.09 h 5.9522 v 12.09 h 4.65 v 5.456 h -4.65 v 11.78 q 0,2.0449 0.8369,2.6963 a 4.6791,4.6791 0 0 0 2.8213,0.6514 h 0.62 a 1.3871,1.3871 0 0 0 0.4336,-0.0615 v 5.5791 a 1.8369,1.8369 0 0 1 -0.434,0.0628 z"
         style="fill:#6e6f72"
         id="path124" />
      <path
         d="m 336.4532,320.057 v -15.6856 a 5.31,5.31 0 0 0 -1.4092,-4.123 4.71,4.71 0 0 0 -3.248,-1.2715 5.6319,5.6319 0 0 0 -4.168,1.8291 7.4945,7.4945 0 0 0 -1.7763,5.4248 V 320.057 H 319.9 v -45.26 h 5.9522 l -0.0625,22.5674 a 8.6726,8.6726 0 0 1 2.8837,-2.6963 8.1394,8.1394 0 0 1 4.3086,-1.1474 10.9851,10.9851 0 0 1 3.72,0.62 8.4242,8.4242 0 0 1 3.0068,1.8291 8.2726,8.2726 0 0 1 1.9844,3.0381 11.6641,11.6641 0 0 1 0.7129,4.247 v 16.8021 z"
         style="fill:#6e6f72"
         id="path126" />
      <path
         d="m 352.6974,307.9046 a 8.4928,8.4928 0 0 0 0.62,2.9141 7.0476,7.0476 0 0 0 1.55,2.3564 7.3953,7.3953 0 0 0 2.3867,1.5811 7.7947,7.7947 0 0 0 3.0693,0.5889 11.9028,11.9028 0 0 0 4.9287,-0.8682 19.75,19.75 0 0 0 3.69,-2.2314 l 3.5957,3.72 a 22.9693,22.9693 0 0 1 -5.3008,3.4717 16.2162,16.2162 0 0 1 -6.9756,1.3642 14.3934,14.3934 0 0 1 -5.3017,-0.9609 13.0338,13.0338 0 0 1 -4.2988,-2.7285 12.2113,12.2113 0 0 1 -2.8819,-4.34 15.6032,15.6032 0 0 1 -1.0332,-5.8584 14.2593,14.2593 0 0 1 0.9707,-5.3017 12.48,12.48 0 0 1 2.7569,-4.2471 12.9707,12.9707 0 0 1 4.205,-2.82 13.5588,13.5588 0 0 1 5.335,-1.0234 12.6728,12.6728 0 0 1 5.3008,1.0849 12.3085,12.3085 0 0 1 4.0927,2.9766 13.2778,13.2778 0 0 1 2.6348,4.5254 17.3169,17.3169 0 0 1 0.93,5.7968 z M 364.0118,300 a 7.63,7.63 0 0 0 -4.3086,-1.2089 7.9037,7.9037 0 0 0 -4.4336,1.2392 5.38,5.38 0 0 0 -2.3867,3.41 h 13.6406 A 6.1308,6.1308 0 0 0 364.0118,300 Z"
         style="fill:#6e6f72"
         id="path128" />
      <path
         d="m 415.4405,288.7474 a 12.3349,12.3349 0 0 1 -1.1162,5.1768 14.5941,14.5941 0 0 1 -2.9756,4.3086 14.0243,14.0243 0 0 1 -4.34,2.9453 12.86,12.86 0 0 1 -5.209,1.0849 h -8.5557 v 17.794 h -6.2 v -45.26 h 13.5782 a 16.7585,16.7585 0 0 1 6.17,1.085 14.047,14.047 0 0 1 4.6807,2.9443 12.624,12.624 0 0 1 2.9453,4.4024 14.6543,14.6543 0 0 1 1.0223,5.5187 z m -6.4482,-0.3711 a 6.8894,6.8894 0 0 0 -2.4795,-5.6894 10.5793,10.5793 0 0 0 -6.82,-2 h -6.4483 v 15.6865 h 6.82 a 9.7876,9.7876 0 0 0 6.417,-2.0606 7.2392,7.2392 0 0 0 2.5108,-5.9365 z"
         style="fill:#6e6f72"
         id="path130" />
      <path
         d="m 420.2774,307.9046 a 8.5185,8.5185 0 0 0 0.62,2.9141 7.0613,7.0613 0 0 0 1.55,2.3564 7.4061,7.4061 0 0 0 2.3867,1.5811 7.7979,7.7979 0 0 0 3.0693,0.5889 11.9,11.9 0 0 0 4.9287,-0.8682 19.7177,19.7177 0 0 0 3.6895,-2.2314 l 3.5957,3.72 a 22.9693,22.9693 0 0 1 -5.3008,3.4717 16.2137,16.2137 0 0 1 -6.9756,1.3642 14.3926,14.3926 0 0 1 -5.3017,-0.9609 13.039,13.039 0 0 1 -4.2979,-2.7285 12.1847,12.1847 0 0 1 -2.8818,-4.34 15.5812,15.5812 0 0 1 -1.0342,-5.8584 14.2572,14.2572 0 0 1 0.9707,-5.3017 12.4965,12.4965 0 0 1 2.7568,-4.2471 12.9659,12.9659 0 0 1 4.2061,-2.82 13.5551,13.5551 0 0 1 5.3349,-1.0234 12.679,12.679 0 0 1 5.3008,1.0849 12.306,12.306 0 0 1 4.0918,2.9766 13.2633,13.2633 0 0 1 2.6348,4.5254 17.3167,17.3167 0 0 1 0.9307,5.7968 z M 431.5919,300 a 7.6286,7.6286 0 0 0 -4.3086,-1.2089 7.8978,7.8978 0 0 0 -4.4326,1.2392 5.3812,5.3812 0 0 0 -2.3877,3.41 h 13.6406 A 6.1272,6.1272 0 0 0 431.5919,300 Z"
         style="fill:#6e6f72"
         id="path132" />
      <path
         d="m 460.6388,300.4027 a 7.146,7.146 0 0 0 -1.9532,-1.0225 5.9267,5.9267 0 0 0 -1.7666,-0.2793 4.8864,4.8864 0 0 0 -4.0615,2.0772 9.3864,9.3864 0 0 0 -1.581,5.7969 v 13.082 h -5.9522 v -25.792 h 5.9522 v 3.1 a 8.322,8.322 0 0 1 6.9443,-3.8437 7.17,7.17 0 0 1 2.6973,0.4648 9.8366,9.8366 0 0 1 2.3867,1.457 z"
         style="fill:#6e6f72"
         id="path134" />
      <path
         d="m 505.464,320.057 v -33.9141 a 2.27,2.27 0 0 1 0.0625,-0.5576 2.9155,2.9155 0 0 1 0.0615,-0.5586 4.0889,4.0889 0 0 0 -0.2481,0.4346 2.8436,2.8436 0 0 1 -0.372,0.62 l -14.1973,19.1572 H 488.29 l -14.3222,-18.6621 a 1.1684,1.1684 0 0 1 -0.2168,-0.31 1.1884,1.1884 0 0 0 -0.2168,-0.31 1.5432,1.5432 0 0 1 -0.1865,-0.3721 2.264,2.264 0 0 0 0.0625,0.5576 4.5949,4.5949 0 0 0 0.0312,0.5274 5.6448,5.6448 0 0 1 0.03,0.5888 v 32.7989 h -6.1992 v -45.26 h 5.2695 l 17.05,22.1338 16.5547,-22.1338 h 5.5176 v 45.26 z"
         style="fill:#6e6f72"
         id="path136" />
      <path
         d="m 523.506,307.9046 a 8.5161,8.5161 0 0 0 0.62,2.9141 7.0613,7.0613 0 0 0 1.55,2.3564 7.4061,7.4061 0 0 0 2.3867,1.5811 7.7982,7.7982 0 0 0 3.0693,0.5889 11.9,11.9 0 0 0 4.9287,-0.8682 19.7177,19.7177 0 0 0 3.6895,-2.2314 l 3.5957,3.72 a 22.9693,22.9693 0 0 1 -5.3008,3.4717 16.2137,16.2137 0 0 1 -6.9756,1.3642 14.3934,14.3934 0 0 1 -5.3017,-0.9609 13.04,13.04 0 0 1 -4.2979,-2.7285 12.186,12.186 0 0 1 -2.8818,-4.34 15.5832,15.5832 0 0 1 -1.0342,-5.8584 14.2572,14.2572 0 0 1 0.9707,-5.3017 12.4965,12.4965 0 0 1 2.7568,-4.2471 12.9659,12.9659 0 0 1 4.2061,-2.82 13.5553,13.5553 0 0 1 5.335,-1.0234 12.6789,12.6789 0 0 1 5.3007,1.0849 12.305,12.305 0 0 1 4.0918,2.9766 13.2617,13.2617 0 0 1 2.6348,4.5254 17.3167,17.3167 0 0 1 0.9307,5.7968 z M 534.82,300 a 7.6281,7.6281 0 0 0 -4.3086,-1.2089 7.8981,7.8981 0 0 0 -4.4326,1.2392 5.3816,5.3816 0 0 0 -2.3877,3.41 h 13.6406 A 6.1267,6.1267 0 0 0 534.82,300 Z"
         style="fill:#6e6f72"
         id="path138" />
      <path
         d="m 565.6651,320.057 0.0616,-2.8516 a 8.8563,8.8563 0 0 1 -2.82,2.5108 8.6824,8.6824 0 0 1 -4.4951,1.0849 9.5984,9.5984 0 0 1 -4.6191,-1.1162 11.6283,11.6283 0 0 1 -3.5957,-3.0068 14.0458,14.0458 0 0 1 -2.3565,-4.4024 16.66,16.66 0 0 1 -0.8369,-5.3007 16.3538,16.3538 0 0 1 0.834,-5.3008 13.43,13.43 0 0 1 2.3486,-4.2783 10.8553,10.8553 0 0 1 3.584,-2.8516 10.2383,10.2383 0 0 1 4.6035,-1.0234 9.0052,9.0052 0 0 1 7.292,3.4716 v -22.1953 h 5.9522 v 45.26 z m 0.4961,-13.0195 a 9.85,9.85 0 0 0 -0.4648,-3.0079 8.2358,8.2358 0 0 0 -1.333,-2.5722 6.943,6.943 0 0 0 -2.0772,-1.7989 5.524,5.524 0 0 0 -2.7588,-0.6816 5.6493,5.6493 0 0 0 -2.8212,0.6816 6.4358,6.4358 0 0 0 -2.0459,1.8291 8.4258,8.4258 0 0 0 -1.2715,2.6358 11.2956,11.2956 0 0 0 0,6.1992 8.0348,8.0348 0 0 0 1.2715,2.6045 6.2068,6.2068 0 0 0 2.0459,1.7666 6.108,6.108 0 0 0 5.5488,-0.03 6.6344,6.6344 0 0 0 2.1084,-1.8291 8.5164,8.5164 0 0 0 1.333,-2.666 10.6463,10.6463 0 0 0 0.4648,-3.1311 z"
         style="fill:#6e6f72"
         id="path140" />
      <path
         d="m 610.0255,318.3832 a 22.593,22.593 0 0 1 -10.6328,2.4179 21.0557,21.0557 0 0 1 -8.1221,-1.6435 22.5346,22.5346 0 0 1 -12.1523,-11.9971 23.7858,23.7858 0 0 1 -1.9219,-9.7334 24.9522,24.9522 0 0 1 1.6738,-9.1758 22.9047,22.9047 0 0 1 4.65,-7.44 21.3508,21.3508 0 0 1 7.0986,-4.96 22.33,22.33 0 0 1 9.0215,-1.7978 22.9938,22.9938 0 0 1 10.0742,1.9219 20.258,20.258 0 0 1 6.6651,5.1464 l -4.5879,4.0918 a 17.2317,17.2317 0 0 0 -5.332,-3.7509 16.204,16.204 0 0 0 -6.6954,-1.333 15.8985,15.8985 0 0 0 -6.2314,1.2392 15.7079,15.7079 0 0 0 -5.1455,3.4727 16.1508,16.1508 0 0 0 -3.4727,5.3935 18.7967,18.7967 0 0 0 -1.2705,7.0684 18.2828,18.2828 0 0 0 1.4873,7.6572 16.9508,16.9508 0 0 0 3.8135,5.4248 15.8,15.8 0 0 0 5.1455,3.2549 15.0877,15.0877 0 0 0 5.4258,1.085 18.1745,18.1745 0 0 0 6.8193,-1.4258 16.79,16.79 0 0 0 6.4483,-4.836 l 4.4638,3.8438 a 20.0827,20.0827 0 0 1 -7.2222,6.0758 z"
         style="fill:#6e6f72"
         id="path142" />
      <path
         d="m 647.3185,306.7269 a 15.5519,15.5519 0 0 1 -0.961,5.4873 13.5883,13.5883 0 0 1 -2.7285,4.4951 12.647,12.647 0 0 1 -4.1846,3.0069 13.0433,13.0433 0 0 1 -5.3935,1.0849 14.1432,14.1432 0 0 1 -5.27,-0.9609 11.5011,11.5011 0 0 1 -4.1543,-2.79 13.2485,13.2485 0 0 1 -2.7276,-4.371 15.5628,15.5628 0 0 1 -0.9922,-5.7041 14.2832,14.2832 0 0 1 0.8995,-5.0215 13.5876,13.5876 0 0 1 2.5722,-4.31 12.2389,12.2389 0 0 1 4.0928,-3.0068 12.8646,12.8646 0 0 1 5.4561,-1.1162 13.3155,13.3155 0 0 1 9.7021,3.9677 12.5767,12.5767 0 0 1 2.7285,4.2168 13.4724,13.4724 0 0 1 0.9605,5.0218 z m -5.9522,0.3721 a 8.4454,8.4454 0 0 0 -2.001,-5.9522 7.0379,7.0379 0 0 0 -5.44,-2.17 6.9606,6.9606 0 0 0 -3.0029,0.62 6.45,6.45 0 0 0 -2.2188,1.7051 7.49,7.49 0 0 0 -1.376,2.542 10.1659,10.1659 0 0 0 -0.4687,3.1309 9.3492,9.3492 0 0 0 1.8447,6.1376 6.3225,6.3225 0 0 0 5.1592,2.2325 8.4131,8.4131 0 0 0 3.4072,-0.62 6.0908,6.0908 0 0 0 2.3145,-1.7364 7.3544,7.3544 0 0 0 1.3447,-2.6347 11.7371,11.7371 0 0 0 0.4371,-3.2548 z"
         style="fill:#6e6f72"
         id="path144" />
      <path
         d="m 653.2081,320.057 v -45.26 h 25.2959 v 5.89 h -19.0967 v 14.3222 h 18.6621 v 5.89 h -18.6621 v 13.2685 h 20.2744 v 5.89 z"
         style="fill:#6e6f72"
         id="path146" />
      <path
         d="m 725.9015,318.3832 a 22.5932,22.5932 0 0 1 -10.6328,2.4179 21.0557,21.0557 0 0 1 -8.1221,-1.6435 22.5353,22.5353 0 0 1 -12.1524,-11.9971 23.7874,23.7874 0 0 1 -1.9218,-9.7334 24.9522,24.9522 0 0 1 1.6738,-9.1758 22.9047,22.9047 0 0 1 4.65,-7.44 21.3508,21.3508 0 0 1 7.0986,-4.96 22.33,22.33 0 0 1 9.0215,-1.7978 22.9938,22.9938 0 0 1 10.0742,1.9219 20.258,20.258 0 0 1 6.6651,5.1464 l -4.5879,4.0918 a 17.231,17.231 0 0 0 -5.3321,-3.7509 16.2036,16.2036 0 0 0 -6.6953,-1.333 15.8985,15.8985 0 0 0 -6.2314,1.2392 15.7079,15.7079 0 0 0 -5.1455,3.4727 16.1508,16.1508 0 0 0 -3.4727,5.3935 18.7967,18.7967 0 0 0 -1.2705,7.0684 18.2828,18.2828 0 0 0 1.4873,7.6572 16.9508,16.9508 0 0 0 3.8135,5.4248 15.7994,15.7994 0 0 0 5.1455,3.2549 15.0872,15.0872 0 0 0 5.4258,1.085 18.1749,18.1749 0 0 0 6.8193,-1.4258 16.79,16.79 0 0 0 6.4483,-4.836 l 4.4638,3.8438 a 20.0827,20.0827 0 0 1 -7.2222,6.0758 z"
         style="fill:#6e6f72"
         id="path148" />
      <path
         d="m 763.1944,306.7269 a 15.5519,15.5519 0 0 1 -0.9609,5.4873 13.5883,13.5883 0 0 1 -2.7285,4.4951 12.648,12.648 0 0 1 -4.1846,3.0069 13.0433,13.0433 0 0 1 -5.3935,1.0849 14.1441,14.1441 0 0 1 -5.2706,-0.9609 11.502,11.502 0 0 1 -4.1543,-2.79 13.25,13.25 0 0 1 -2.7275,-4.371 15.5628,15.5628 0 0 1 -0.9922,-5.7041 14.2831,14.2831 0 0 1 0.8994,-5.0215 13.59,13.59 0 0 1 2.5723,-4.31 12.2389,12.2389 0 0 1 4.0928,-3.0068 12.8645,12.8645 0 0 1 5.456,-1.1162 13.3155,13.3155 0 0 1 9.7022,3.9677 12.5767,12.5767 0 0 1 2.7285,4.2168 13.4723,13.4723 0 0 1 0.9609,5.0218 z m -5.9521,0.3721 a 8.4454,8.4454 0 0 0 -2.001,-5.9522 7.038,7.038 0 0 0 -5.44,-2.17 6.9613,6.9613 0 0 0 -3.003,0.62 6.45,6.45 0 0 0 -2.2187,1.7051 7.4882,7.4882 0 0 0 -1.376,2.542 10.1659,10.1659 0 0 0 -0.4687,3.1309 9.3486,9.3486 0 0 0 1.8447,6.1376 6.3225,6.3225 0 0 0 5.1592,2.2325 8.4131,8.4131 0 0 0 3.4072,-0.62 6.0908,6.0908 0 0 0 2.3145,-1.7364 7.356,7.356 0 0 0 1.3447,-2.6347 11.7371,11.7371 0 0 0 0.4371,-3.2548 z"
         style="fill:#6e6f72"
         id="path150" />
      <path
         d="m 784.8937,320.057 v -15.6856 a 6.1932,6.1932 0 0 0 -1.1641,-3.875 4.3429,4.3429 0 0 0 -3.6787,-1.5195 5.3277,5.3277 0 0 0 -2.7891,0.6816 5.7512,5.7512 0 0 0 -1.8389,1.7364 7.1786,7.1786 0 0 0 -1.0107,2.3252 10.4036,10.4036 0 0 0 -0.3066,2.4492 v 13.8877 h -5.9522 v -25.792 h 5.9522 l -0.0616,3.1 a 8.3625,8.3625 0 0 1 3.1622,-2.8516 8.9234,8.9234 0 0 1 4.1533,-0.9921 9.69,9.69 0 0 1 6.82,2.4492 q 2.6646,2.4492 2.666,7.2851 v 16.8014 z"
         style="fill:#6e6f72"
         id="path152" />
      <path
         d="m 813.3517,312.8646 a 7.1621,7.1621 0 0 1 -0.6582,3.0381 7.2685,7.2685 0 0 1 -1.879,2.4805 9.4,9.4 0 0 1 -2.8759,1.6738 10.1223,10.1223 0 0 1 -3.5772,0.62 14.2867,14.2867 0 0 1 -9.3,-3.2861 l 2.9141,-4.4024 a 10.4707,10.4707 0 0 0 3.3174,1.86 9.3542,9.3542 0 0 0 2.7588,0.5576 5.056,5.056 0 0 0 2.2939,-0.5264 1.7767,1.7767 0 0 0 1.0537,-1.7051 2.5708,2.5708 0 0 0 -1.0791,-2.17 20.4458,20.4458 0 0 0 -2.7441,-1.6738 q -1.2334,-0.62 -2.6221,-1.3027 a 12.3313,12.3313 0 0 1 -2.5283,-1.6426 8.1352,8.1352 0 0 1 -1.88,-2.294 6.7518,6.7518 0 0 1 -0.74,-3.3173 6.0614,6.0614 0 0 1 0.6884,-2.82 7.6579,7.6579 0 0 1 1.8487,-2.3251 8.5621,8.5621 0 0 1 2.7216,-1.55 9.9047,9.9047 0 0 1 3.3594,-0.5585 21.1273,21.1273 0 0 1 4.0606,0.4345 11.1911,11.1911 0 0 1 4.247,1.8594 l -2.4179,4.65 a 9.3262,9.3262 0 0 0 -2.9756,-1.3955 10.9011,10.9011 0 0 0 -2.666,-0.4024 5.2925,5.2925 0 0 0 -1.9844,0.3721 1.5449,1.5449 0 0 0 -0.93,1.6113 2.0589,2.0589 0 0 0 1.2022,1.7676 q 1.2025,0.7134 2.93,1.5811 1.232,0.62 2.56,1.3945 a 13.1636,13.1636 0 0 1 2.4053,1.7979 8.8081,8.8081 0 0 1 1.7881,2.4179 7.0979,7.0979 0 0 1 0.7086,3.2556 z"
         style="fill:#6e6f72"
         id="path154" />
      <path
         d="m 843.2354,306.7269 a 15.5519,15.5519 0 0 1 -0.9609,5.4873 13.5883,13.5883 0 0 1 -2.7285,4.4951 12.647,12.647 0 0 1 -4.1846,3.0069 13.0433,13.0433 0 0 1 -5.3935,1.0849 14.1432,14.1432 0 0 1 -5.27,-0.9609 11.5011,11.5011 0 0 1 -4.1543,-2.79 13.2485,13.2485 0 0 1 -2.7276,-4.371 15.5628,15.5628 0 0 1 -0.9922,-5.7041 14.2809,14.2809 0 0 1 0.8995,-5.0215 13.5876,13.5876 0 0 1 2.5722,-4.31 12.2389,12.2389 0 0 1 4.0928,-3.0068 12.8645,12.8645 0 0 1 5.456,-1.1162 13.3155,13.3155 0 0 1 9.7022,3.9677 12.5767,12.5767 0 0 1 2.7285,4.2168 13.4723,13.4723 0 0 1 0.9604,5.0218 z m -5.9521,0.3721 a 8.4454,8.4454 0 0 0 -2.001,-5.9522 7.0379,7.0379 0 0 0 -5.44,-2.17 6.9606,6.9606 0 0 0 -3.0029,0.62 6.45,6.45 0 0 0 -2.2188,1.7051 7.49,7.49 0 0 0 -1.376,2.542 10.1659,10.1659 0 0 0 -0.4687,3.1309 9.3486,9.3486 0 0 0 1.8447,6.1376 6.3225,6.3225 0 0 0 5.1592,2.2325 8.4131,8.4131 0 0 0 3.4072,-0.62 6.0908,6.0908 0 0 0 2.3145,-1.7364 7.3544,7.3544 0 0 0 1.3447,-2.6347 11.7371,11.7371 0 0 0 0.4371,-3.2548 z"
         style="fill:#6e6f72"
         id="path156" />
      <path
         d="m 863.5089,300.4027 a 7.1456,7.1456 0 0 0 -1.9531,-1.0225 5.9272,5.9272 0 0 0 -1.7666,-0.2793 4.8866,4.8866 0 0 0 -4.0616,2.0772 9.3864,9.3864 0 0 0 -1.581,5.7969 v 13.082 h -5.9522 v -25.792 h 5.9522 v 3.1 a 8.322,8.322 0 0 1 6.9443,-3.8437 7.17,7.17 0 0 1 2.6973,0.4648 9.8329,9.8329 0 0 1 2.3867,1.457 z"
         style="fill:#6e6f72"
         id="path158" />
      <path
         d="m 881.6124,320.4291 h -0.5586 a 23.4349,23.4349 0 0 1 -4.01,-0.3106 7.0151,7.0151 0 0 1 -3.0312,-1.2392 5.9718,5.9718 0 0 1 -1.9424,-2.6358 12.4106,12.4106 0 0 1 -0.6885,-4.5566 V 299.721 h -3.5341 v -5.456 h 3.5341 v -12.09 h 5.9522 v 12.09 h 4.6494 v 5.456 h -4.6494 v 11.78 q 0,2.0449 0.8369,2.6963 a 4.677,4.677 0 0 0 2.8213,0.6514 h 0.62 a 1.3871,1.3871 0 0 0 0.4336,-0.0615 v 5.5791 a 1.8439,1.8439 0 0 1 -0.4333,0.0628 z"
         style="fill:#6e6f72"
         id="path160" />
      <path
         d="m 887.1915,288.3753 v -7.13 h 5.9522 v 7.13 z m 0,31.6817 v -25.792 h 5.9522 v 25.792 z"
         style="fill:#6e6f72"
         id="path162" />
      <path
         d="m 916.0216,320.057 0.0615,-3.1 a 8.745,8.745 0 0 1 -2.9453,2.7275 8.4356,8.4356 0 0 1 -4.37,1.1162 q -4.6509,0 -7.0684,-2.4492 -2.4185,-2.4477 -2.418,-7.2851 V 294.265 h 5.9522 v 15.6855 a 6.0606,6.0606 0 0 0 1.2256,3.7823 4.26,4.26 0 0 0 3.6172,1.6123 4.9107,4.9107 0 0 0 2.6347,-0.6817 6.1792,6.1792 0 0 0 1.8389,-1.7363 7.8317,7.8317 0 0 0 1.1035,-2.3252 8.7982,8.7982 0 0 0 0.3682,-2.4492 V 294.265 h 5.9512 v 25.792 z"
         style="fill:#6e6f72"
         id="path164" />
      <path
         d="m 960.7228,320.057 v -16.4922 a 4.398,4.398 0 0 0 -1.2637,-3.4717 4.7071,4.7071 0 0 0 -3.2354,-1.1162 5.758,5.758 0 0 0 -2.2177,0.4336 5.4838,5.4838 0 0 0 -3.0206,3.0381 5.8519,5.8519 0 0 0 -0.4306,2.2324 v 15.376 h -5.9522 v -16.4922 a 4.2873,4.2873 0 0 0 -1.3252,-3.4717 4.9429,4.9429 0 0 0 -3.2968,-1.1162 5.2921,5.2921 0 0 0 -3.9434,1.6436 5.6649,5.6649 0 0 0 -1.6025,4.122 v 15.3145 h -5.9522 v -25.792 h 5.9522 l -0.0616,2.4805 a 8.313,8.313 0 0 1 2.9444,-2.3252 8.68,8.68 0 0 1 3.875,-0.8994 10.4817,10.4817 0 0 1 4.9912,1.0234 8.5336,8.5336 0 0 1 3.1308,2.9443 9.0236,9.0236 0 0 1 1.7735,-1.7666 9.7819,9.7819 0 0 1 2.1465,-1.24 13.2216,13.2216 0 0 1 2.2715,-0.7129 10.2463,10.2463 0 0 1 2.1464,-0.248 10.7074,10.7074 0 0 1 4.2618,0.7441 7.1733,7.1733 0 0 1 2.7695,2.0459 8.0813,8.0813 0 0 1 1.5244,3.0381 14.057,14.057 0 0 1 0.4668,3.6582 v 17.05 z"
         style="fill:#6e6f72"
         id="path166" />
    </g>
  </g>
  <metadata
     id="metadata993">
    <rdf:RDF>
      <cc:Work
         rdf:about="">
        <dc:title>new-logo</dc:title>
      </cc:Work>
    </rdf:RDF>
  </metadata>
</svg>
