<svg xmlns="http://www.w3.org/2000/svg" viewBox="0 0 130.885 130.2272">
  <title>new-logo</title>
  <rect y="-84.2821" width="1200.7789" height="359.3167" style="fill: none"/>
  <g>
    <path d="M22.0491,101.27l-.52-.5606c.16.2055.3077.4139.4705.6189Z" style="fill: none"/>
    <path d="M58.8081,61.6343c-5.46-6.5264-10.9444-13.0325-16.3856-19.5747-.6169-.7417-1.519-1.3734-1.619-2.2745,4.9229-1.53,8.0554.5079,10.8311,4.3571C54.8493,48.6,58.6,52.6758,62.1732,56.87c1.9831,2.3272,4.0991,2.57,5.8925.4769,5.41-6.3127,10.7148-12.716,16.0117-19.1244a3.23,3.23,0,0,0-.527-5.0744c-1.7222-1.331-3.4422-.9183-4.895.6321-.4621.4932-.8753,1.0324-1.31,1.5512-3.477,4.15-7.048,8.2267-10.3859,12.486-1.4024,1.7893-2.0649,1.4794-3.3162-.0943-3.3692-4.2367-6.989-8.2745-10.3478-12.5192a6.5,6.5,0,0,0-5.9036-2.8269c-4.3439.203-8.7045.0607-13.058.0384-1.8593-.01-3.7939-.1774-4.7822,1.8822-1.0176,2.1207.1792,3.6225,1.4853,5.1684,6.7378,7.9754,13.415,16.0015,20.1377,23.9893.81.963,1.3178,1.6447.2417,2.9134C41.68,77.8491,32.0211,89.3961,22.0491,101.27l4.86,5.2437Q42.828,87.4166,58.8513,68.4068C61.2409,65.5585,61.23,64.5294,58.8081,61.6343Z" style="fill: #b0b2b0"/>
    <path d="M22,101.3278c-.1628-.205-.3106-.4134-.4705-.6189l-.0888-.096.0888.096C11.2829,87.5341,7.1062,72.9782,9.52,56.6552c5.84-39.49,50.3276-60.7018,84.4288-40.183,2.8187,1.696,3.9671,1.26,5.9-1.0425,1.8937-2.2559,1.2842-3.0736-.8492-4.3571C83.4775,1.7333,66.81-1.0844,49.3974,3.62,26.0016,9.9414,10.3705,25.1029,4.1023,48.4932-2.1538,71.8383,3.73,92.6254,20.5416,110.19c1.4481,1.5131,2.1615,1.3609,3.4671-.2086.9638-1.1589,1.9356-2.3109,2.9007-3.4686l-4.86-5.2437Z" style="fill: #707175"/>
    <g>
      <path d="M110.04,30.64c-.1509-.2023-.2915-.3753-.4281-.5308Z" style="fill: none"/>
      <path d="M128.6355,59.2369c-1.4-15.6607-7.9424-28.8685-19.013-39.943-1.2578-1.2584-1.9139-.9924-2.9.2631-.9211,1.1733-1.87,2.3244-2.8185,3.4762l5.7077,7.0756c.1366.1555.2772.3285.4281.5308,10.5686,14.17,14.2418,29.9967,10.2077,47.1319a56.35,56.35,0,0,1-83.28,36.0708c-3.8282-2.1814-3.7232-2.0831-6.6879,1.0909-1.58,1.6918-1.3387,2.4276.5373,3.6022,12.28,7.6892,25.5586,11.1823,40.0361,9.8383,19.4348-1.8039,34.8737-10.7519,46.2745-26.4662C126.34,89.21,130.0326,74.8682,128.6355,59.2369Z" style="fill: #293078"/>
      <path d="M99.3513,28.5128Q85.7034,44.8763,72.0525,61.2372c-2.7652,3.3271-2.7563,4.267-.08,7.5242,2.5155,3.0619,5.1154,6.0541,7.6575,9.0943,3.3839,4.0469,6.7476,8.11,10.2184,12.2849-4.8861,1.57-7.831-.2189-10.46-3.8364-3.345-4.6031-7.1784-8.8584-10.9026-13.1762-2.1624-2.5074-4.1366-2.5012-6.3084.0366-5.2159,6.0955-10.3347,12.2742-15.49,18.4218a3.5477,3.5477,0,0,0-.2684,4.7734c1.0743,1.4725,2.6316,1.5243,4.1986,1.1083,1.0773-.2857,1.6708-1.2781,2.3489-2.0852,3.5454-4.2184,7.147-8.3935,10.566-12.7127,1.3052-1.649,1.9932-2.0946,3.51-.1444,3.4376,4.4218,7.1407,8.6366,10.72,12.9488.875,1.0542,1.705,2.1548,3.2511,2.1574,5.8045.01,11.6113.0988,17.4127-.0376a3.24,3.24,0,0,0,2.7989-4.8091,12.4815,12.4815,0,0,0-1.8566-2.5727Q89.68,78.6549,79.9458,67.1362c-1.1532-1.358-1.4968-2.4177-.1929-3.9632q13.7435-16.2915,27.3314-32.7138c1.1044-1.3357,1.7207-1.27,2.5279-.35l-5.7077-7.0756Q101.64,25.7833,99.3513,28.5128Z" style="fill: #1ab5e9"/>
    </g>
  </g>
</svg>
