<?xml version="1.0" encoding="UTF-8" standalone="no"?>
<svg
   version="1.1"
   id="svg2"
   xml:space="preserve"
   width="131.64713"
   height="64"
   viewBox="0 0 131.64713 64"
   sodipodi:docname="hhu.svg"
   inkscape:version="1.1.1 (3bf5ae0d25, 2021-09-20)"
   xmlns:inkscape="http://www.inkscape.org/namespaces/inkscape"
   xmlns:sodipodi="http://sodipodi.sourceforge.net/DTD/sodipodi-0.dtd"
   xmlns="http://www.w3.org/2000/svg"
   xmlns:svg="http://www.w3.org/2000/svg"
   xmlns:rdf="http://www.w3.org/1999/02/22-rdf-syntax-ns#"
   xmlns:cc="http://creativecommons.org/ns#"
   xmlns:dc="http://purl.org/dc/elements/1.1/"><metadata
     id="metadata8"><rdf:RDF><cc:Work
         rdf:about=""><dc:format>image/svg+xml</dc:format><dc:type
           rdf:resource="http://purl.org/dc/dcmitype/StillImage" /></cc:Work></rdf:RDF></metadata><defs
     id="defs6"><clipPath
       clipPathUnits="userSpaceOnUse"
       id="clipPath18"><path
         d="M 0,442.981 H 1159.229 V 0 H 0 Z"
         id="path16" /></clipPath></defs><sodipodi:namedview
     pagecolor="#ffffff"
     bordercolor="#666666"
     borderopacity="1"
     objecttolerance="10"
     gridtolerance="10"
     guidetolerance="10"
     inkscape:pageopacity="0"
     inkscape:pageshadow="2"
     inkscape:window-width="1920"
     inkscape:window-height="1166"
     id="namedview4"
     showgrid="false"
     fit-margin-top="16"
     fit-margin-left="0"
     fit-margin-right="0"
     fit-margin-bottom="16"
     inkscape:zoom="3.0334871"
     inkscape:cx="137.46556"
     inkscape:cy="40.382568"
     inkscape:window-x="0"
     inkscape:window-y="2194"
     inkscape:window-maximized="1"
     inkscape:current-layer="g10"
     inkscape:pagecheckerboard="0" /><g
     id="g10"
     inkscape:groupmode="layer"
     inkscape:label="Logo_HHU_+Name_horizontal_rgb_+Safezone"
     transform="matrix(1.3333333,0,0,-1.3333333,-178.53093,453.69159)"><g
       id="g906"
       transform="matrix(0.11079269,0,0,0.11079269,119.06326,291.89893)"><g
         id="g20"
         transform="translate(629.8887,280.0385)"><path
           d="m 0,0 v -75.451 c 0,-44.976 -33.694,-75.451 -75.256,-75.451 -41.564,0 -75.259,30.475 -75.259,75.451 V 0 h 38.137 c 0,-13.714 0.002,-69.366 0.002,-72.17 0,-23.316 16.62,-39.262 37.12,-39.262 20.5,0 37.119,15.946 37.119,39.262 V 0 Z"
           style="fill:#006ab3;fill-opacity:1;fill-rule:nonzero;stroke:none"
           id="path22" /></g><g
         id="g24"
         transform="translate(172.0342,133.0297)"><path
           d="M 0,0 H -38.136 V 195.239 H 0 v -53.498 c 10.961,5.892 23.61,9.159 37.122,9.159 41.562,0 75.256,-30.476 75.256,-75.452 V 0 H 74.242 v 72.17 c 0,23.314 -16.619,39.259 -37.12,39.259 -20.5,0 -37.12,-15.945 -37.12,-39.259 z"
           style="fill:#006ab3;fill-opacity:1;fill-rule:nonzero;stroke:none"
           id="path26" /></g><g
         id="g28"
         transform="translate(345.4092,133.0297)"><path
           d="m 0,0 h -38.139 v 195.239 h 38.137 v -53.498 c 10.96,5.892 23.61,9.159 37.122,9.159 41.562,0 75.256,-30.476 75.256,-75.452 V 0 H 74.24 v 72.17 c 0,23.314 -16.62,39.259 -37.12,39.259 C 16.62,111.429 0,95.484 0,72.17 Z"
           style="fill:#006ab3;fill-opacity:1;fill-rule:nonzero;stroke:none"
           id="path30" /></g></g><g
       id="g914"
       transform="matrix(0.11079269,0,0,0.11079269,119.06326,291.89893)"><g
         id="g32"
         transform="translate(711.7734,157.6664)"><path
           d="m 0,0 c -0.805,2.04 -1.956,3.729 -3.454,5.066 -1.501,1.337 -3.322,2.341 -5.466,3.009 -2.143,0.669 -4.536,1.004 -7.179,1.004 -1.108,0 -1.982,-0.01 -2.626,-0.026 -0.643,-0.02 -1.23,-0.036 -1.767,-0.053 -0.535,-0.02 -1.125,-0.036 -1.769,-0.053 -0.643,-0.019 -1.517,-0.046 -2.626,-0.08 l 0.181,-33.563 c 1.036,0 2.312,-0.018 3.83,-0.054 1.518,-0.033 3.153,-0.053 4.902,-0.053 1.787,0 3.699,0.229 5.734,0.687 2.036,0.458 3.912,1.301 5.625,2.534 1.715,1.231 3.143,2.956 4.288,5.172 1.141,2.217 1.713,5.086 1.713,8.605 C 1.386,-5.062 0.805,-2.04 0,0 m -4.4,-14.88 c -0.68,-1.829 -1.608,-3.271 -2.786,-4.327 -1.177,-1.058 -2.537,-1.787 -4.071,-2.191 -1.537,-0.406 -3.163,-0.608 -4.876,-0.608 -0.679,0 -1.358,0.02 -2.035,0.053 -0.68,0.036 -1.431,0.106 -2.253,0.212 l -0.178,28.074 c 0.608,0.036 1.222,0.053 1.848,0.053 h 1.795 c 4.678,0 8.079,-1.152 10.206,-3.456 2.125,-2.306 3.368,-6.339 3.368,-10.841 0,-2.817 -0.34,-5.139 -1.018,-6.969 M 8.726,-1.525 v -14.57 c 0,-1.23 0.052,-2.408 0.161,-3.536 0.106,-1.125 0.428,-2.11 0.964,-2.956 0.535,-0.843 1.346,-1.522 2.437,-2.03 1.089,-0.511 2.6,-0.767 4.527,-0.767 1.214,0 2.277,0.186 3.187,0.555 0.913,0.368 1.679,0.8 2.306,1.293 0.624,0.492 1.115,0.985 1.471,1.477 0.357,0.494 0.626,0.863 0.805,1.111 l 0.535,-4.014 4.018,0.371 c -0.036,0.176 -0.079,0.482 -0.133,0.923 -0.053,0.44 -0.108,0.932 -0.161,1.479 -0.053,0.544 -0.099,1.125 -0.135,1.742 -0.034,0.614 -0.053,1.187 -0.053,1.715 v 17.207 h -4.177 v -12.984 c 0,-1.055 -0.171,-2.06 -0.511,-3.009 -0.339,-0.952 -0.802,-1.778 -1.392,-2.481 -0.591,-0.704 -1.287,-1.258 -2.089,-1.662 -0.804,-0.405 -1.688,-0.608 -2.652,-0.608 -1.072,0 -1.939,0.133 -2.6,0.396 -0.66,0.265 -1.161,0.66 -1.501,1.187 -0.338,0.528 -0.56,1.178 -0.669,1.954 -0.106,0.773 -0.159,1.652 -0.159,2.637 v 14.57 z m 16.633,9.819 c -0.481,0.475 -1.062,0.713 -1.739,0.713 -0.715,0 -1.306,-0.238 -1.767,-0.713 -0.466,-0.475 -0.697,-1.028 -0.697,-1.662 0,-0.634 0.231,-1.188 0.697,-1.665 0.461,-0.475 1.052,-0.71 1.767,-0.71 0.677,0 1.258,0.235 1.739,0.71 0.485,0.477 0.726,1.031 0.726,1.665 0,0.634 -0.241,1.187 -0.726,1.662 m -9.883,0 c -0.465,0.475 -1.053,0.713 -1.769,0.713 -0.679,0 -1.257,-0.238 -1.741,-0.713 -0.482,-0.475 -0.723,-1.028 -0.723,-1.662 0,-0.634 0.241,-1.188 0.723,-1.665 0.484,-0.475 1.062,-0.71 1.741,-0.71 0.716,0 1.304,0.235 1.769,0.71 0.464,0.477 0.696,1.031 0.696,1.665 0,0.634 -0.232,1.187 -0.696,1.662 m 36.457,-23.41 c -0.446,0.79 -1.017,1.47 -1.713,2.03 -0.697,0.565 -1.457,1.005 -2.279,1.32 -0.821,0.319 -1.624,0.581 -2.409,0.793 -1.465,0.385 -2.652,0.932 -3.562,1.636 -0.911,0.703 -1.366,1.654 -1.366,2.85 0,0.915 0.399,1.681 1.204,2.296 0.804,0.616 1.831,0.924 3.081,0.924 1.32,0 2.348,-0.246 3.081,-0.739 0.73,-0.494 1.366,-1.002 1.901,-1.53 l 2.035,2.585 c -0.571,0.494 -1.402,0.969 -2.491,1.426 -1.089,0.458 -2.544,0.687 -4.367,0.687 -1.106,0 -2.161,-0.133 -3.16,-0.395 -1,-0.265 -1.884,-0.661 -2.653,-1.191 -0.768,-0.527 -1.382,-1.194 -1.847,-2.004 -0.465,-0.809 -0.697,-1.742 -0.697,-2.797 0,-1.233 0.214,-2.261 0.643,-3.088 0.43,-0.829 0.983,-1.515 1.66,-2.059 0.68,-0.545 1.412,-0.969 2.197,-1.268 0.786,-0.298 1.538,-0.553 2.25,-0.763 1.501,-0.424 2.705,-0.942 3.616,-1.559 0.913,-0.616 1.369,-1.645 1.369,-3.088 0,-1.231 -0.369,-2.173 -1.099,-2.823 -0.732,-0.65 -1.778,-0.976 -3.135,-0.976 -0.714,0 -1.384,0.113 -2.008,0.342 -0.626,0.229 -1.207,0.521 -1.742,0.872 -0.537,0.352 -1.009,0.713 -1.421,1.081 -0.41,0.369 -0.74,0.714 -0.991,1.03 l -2.035,-3.219 c 2.25,-1.761 4.965,-2.641 8.143,-2.641 1.179,0 2.286,0.159 3.321,0.475 1.036,0.318 1.93,0.783 2.679,1.4 0.752,0.614 1.349,1.38 1.795,2.296 0.448,0.915 0.67,1.97 0.67,3.167 0,1.161 -0.222,2.137 -0.67,2.93 m 22.34,0 c -0.445,0.79 -1.016,1.47 -1.714,2.03 -0.697,0.565 -1.455,1.005 -2.277,1.32 -0.821,0.319 -1.626,0.581 -2.409,0.793 -1.467,0.385 -2.652,0.932 -3.562,1.636 -0.914,0.703 -1.37,1.654 -1.37,2.85 0,0.915 0.403,1.681 1.207,2.296 0.803,0.616 1.83,0.924 3.081,0.924 1.321,0 2.347,-0.246 3.08,-0.739 0.732,-0.494 1.368,-1.002 1.903,-1.53 l 2.035,2.585 c -0.571,0.494 -1.402,0.969 -2.491,1.426 -1.091,0.458 -2.546,0.687 -4.367,0.687 -1.106,0 -2.161,-0.133 -3.16,-0.395 -1,-0.265 -1.884,-0.661 -2.653,-1.191 -0.768,-0.527 -1.383,-1.194 -1.847,-2.004 -0.465,-0.809 -0.697,-1.742 -0.697,-2.797 0,-1.233 0.214,-2.261 0.643,-3.088 0.429,-0.829 0.98,-1.515 1.66,-2.059 0.68,-0.545 1.412,-0.969 2.197,-1.268 0.785,-0.298 1.534,-0.553 2.25,-0.763 1.501,-0.424 2.705,-0.942 3.615,-1.559 0.912,-0.616 1.367,-1.645 1.367,-3.088 0,-1.231 -0.367,-2.173 -1.096,-2.823 -0.735,-0.65 -1.778,-0.976 -3.137,-0.976 -0.713,0 -1.383,0.113 -2.007,0.342 -0.626,0.229 -1.207,0.521 -1.741,0.872 -0.538,0.352 -1.01,0.713 -1.422,1.081 -0.409,0.369 -0.742,0.714 -0.99,1.03 l -2.035,-3.219 c 2.25,-1.761 4.963,-2.641 8.143,-2.641 1.179,0 2.286,0.159 3.321,0.475 1.036,0.318 1.929,0.783 2.679,1.4 0.751,0.614 1.349,1.38 1.794,2.296 0.447,0.915 0.67,1.97 0.67,3.167 0,1.161 -0.223,2.137 -0.67,2.93 m 26.654,1.294 v 2.322 c 0,1.301 -0.153,2.594 -0.456,3.878 -0.303,1.284 -0.812,2.429 -1.528,3.431 -0.713,1.003 -1.669,1.813 -2.864,2.427 -1.197,0.618 -2.705,0.926 -4.528,0.926 -1.498,0 -2.901,-0.299 -4.206,-0.899 -1.304,-0.597 -2.436,-1.433 -3.402,-2.505 -0.964,-1.074 -1.722,-2.359 -2.276,-3.855 -0.555,-1.496 -0.831,-3.158 -0.831,-4.989 0,-4.047 0.946,-7.106 2.84,-9.183 1.893,-2.076 4.697,-3.115 8.412,-3.115 1.927,0 3.623,0.389 5.09,1.162 1.463,0.773 2.838,1.901 4.124,3.377 l -1.659,1.692 c -1.574,-1.373 -2.92,-2.273 -4.047,-2.694 -1.125,-0.422 -2.222,-0.633 -3.293,-0.633 -2.359,0 -4.127,0.747 -5.305,2.243 -1.179,1.495 -1.841,3.634 -1.982,6.415 z m -5.543,8.496 c 0.91,-1.265 1.365,-2.956 1.365,-5.067 v -0.792 H 85.124 c 0.142,1.022 0.393,1.997 0.749,2.929 0.356,0.933 0.812,1.761 1.365,2.482 0.555,0.72 1.215,1.294 1.983,1.714 0.768,0.425 1.633,0.634 2.599,0.634 1.462,0 2.651,-0.634 3.564,-1.9 m 17.435,16.13 h -4.232 v -35.5 h 4.232 z m 24.48,-28.587 c -0.537,-1.267 -1.188,-2.242 -1.956,-2.929 -0.768,-0.686 -1.572,-1.144 -2.411,-1.371 -0.838,-0.231 -1.544,-0.345 -2.116,-0.345 -1.071,0 -2.001,0.239 -2.787,0.713 -0.785,0.475 -1.437,1.135 -1.953,1.981 -0.52,0.842 -0.903,1.845 -1.154,3.008 -0.25,1.162 -0.373,2.41 -0.373,3.747 0,1.373 0.159,2.63 0.481,3.774 0.321,1.142 0.777,2.12 1.366,2.93 0.59,0.809 1.294,1.433 2.116,1.874 0.821,0.438 1.715,0.66 2.678,0.66 0.93,0 1.814,-0.169 2.653,-0.501 0.841,-0.335 1.573,-0.872 2.196,-1.612 0.624,-0.737 1.125,-1.671 1.501,-2.796 0.376,-1.128 0.562,-2.482 0.562,-4.065 0,-2.112 -0.268,-3.801 -0.803,-5.068 m 1.072,-7.179 4.019,0.371 c -0.036,0.176 -0.082,0.482 -0.135,0.923 -0.054,0.44 -0.107,0.932 -0.162,1.479 -0.053,0.544 -0.099,1.125 -0.132,1.742 -0.036,0.614 -0.054,1.187 -0.054,1.715 v 29.536 h -3.858 V -4.85 c -0.571,1.089 -1.491,2.032 -2.759,2.824 -1.269,0.793 -2.761,1.188 -4.474,1.188 -1.463,0 -2.839,-0.266 -4.126,-0.793 -1.284,-0.527 -2.409,-1.31 -3.375,-2.348 -0.963,-1.039 -1.732,-2.342 -2.302,-3.906 -0.572,-1.565 -0.859,-3.37 -0.859,-5.41 0,-1.655 0.205,-3.211 0.617,-4.671 0.41,-1.463 1.037,-2.746 1.875,-3.854 0.838,-1.109 1.91,-1.981 3.215,-2.615 1.304,-0.63 2.848,-0.949 4.633,-0.949 1.145,0 2.134,0.159 2.975,0.475 0.839,0.318 1.553,0.704 2.141,1.161 0.591,0.458 1.063,0.942 1.422,1.453 0.357,0.508 0.624,0.959 0.802,1.347 z m 32.681,16.972 c -0.502,1.495 -1.234,2.769 -2.198,3.825 -0.963,1.058 -2.17,1.874 -3.616,2.455 -1.447,0.58 -3.1,0.872 -4.955,0.872 -1.859,0 -3.503,-0.292 -4.93,-0.872 -1.429,-0.581 -2.634,-1.397 -3.617,-2.455 -0.982,-1.056 -1.722,-2.33 -2.223,-3.825 -0.501,-1.496 -0.749,-3.158 -0.749,-4.989 0,-1.901 0.294,-3.617 0.883,-5.146 0.591,-1.532 1.403,-2.833 2.439,-3.907 1.035,-1.072 2.257,-1.899 3.668,-2.48 1.412,-0.58 2.92,-0.872 4.529,-0.872 1.607,0 3.115,0.292 4.527,0.872 1.409,0.581 2.632,1.408 3.669,2.48 1.036,1.074 1.85,2.375 2.437,3.907 0.591,1.529 0.885,3.245 0.885,5.146 0,1.831 -0.251,3.493 -0.749,4.989 m -5.599,-11.744 c -1.233,-1.725 -2.956,-2.587 -5.17,-2.587 -2.216,0 -3.938,0.862 -5.172,2.587 -1.231,1.722 -1.847,4.01 -1.847,6.86 0,2.816 0.606,5.069 1.821,6.758 1.214,1.688 2.946,2.531 5.198,2.531 2.25,0 3.983,-0.843 5.196,-2.531 1.214,-1.689 1.822,-3.942 1.822,-6.758 0,-2.85 -0.617,-5.138 -1.848,-6.86 m 13.42,-4.962 h 3.963 v 11.135 c 0,0.774 0.026,1.55 0.082,2.323 0.053,0.773 0.169,1.513 0.347,2.218 0.392,1.441 0.973,2.648 1.742,3.617 0.768,0.966 1.633,1.45 2.598,1.45 1.608,0 2.465,-0.862 2.571,-2.587 l 3.483,1.214 c -0.036,0.775 -0.197,1.443 -0.481,2.007 -0.287,0.56 -0.644,1.011 -1.073,1.346 -0.428,0.332 -0.903,0.58 -1.42,0.74 -0.519,0.156 -1.01,0.236 -1.472,0.236 -1.393,0 -2.609,-0.388 -3.643,-1.161 -1.038,-0.774 -1.913,-1.812 -2.626,-3.115 l -0.537,4.013 -4.018,-0.371 c 0.036,-0.176 0.082,-0.484 0.135,-0.923 0.053,-0.44 0.106,-0.941 0.162,-1.506 0.052,-0.563 0.095,-1.143 0.131,-1.741 0.037,-0.597 0.056,-1.161 0.056,-1.688 z m 37.486,34.655 c -0.464,0.281 -1.187,0.537 -2.171,0.766 -0.982,0.228 -2.044,0.341 -3.186,0.341 -1.573,0 -2.982,-0.281 -4.232,-0.842 C 205.519,9.66 204.447,8.691 203.553,7.32 202.876,6.3 202.464,5.182 202.322,3.968 202.18,2.754 202.107,2.329 202.107,1.271 v -2.796 h -4.232 v -2.64 h 4.232 v -20.531 h 4.019 v 20.531 h 6.482 v 2.64 h -6.482 v 2.64 c 0,0.879 0.036,1.101 0.108,2.089 0.07,0.983 0.248,1.871 0.536,2.664 0.284,0.793 0.705,1.452 1.259,1.981 0.551,0.527 1.329,0.79 2.329,0.79 1.037,0 1.93,-0.176 2.679,-0.528 0.749,-0.352 1.376,-0.72 1.874,-1.108 z"
           style="fill:#000000;fill-opacity:1;fill-rule:nonzero;stroke:none"
           id="path34" /></g><g
         id="g36"
         transform="translate(712.5869,223.1967)"><path
           d="m 0,0 h -4.151 v -20.27 c 0,-2.182 -0.221,-3.967 -0.664,-5.357 -0.444,-1.39 -1.056,-2.49 -1.836,-3.298 -0.781,-0.811 -1.694,-1.365 -2.74,-1.664 -1.047,-0.299 -2.172,-0.448 -3.38,-0.448 -1.24,0 -2.384,0.149 -3.429,0.448 -1.048,0.299 -1.951,0.853 -2.715,1.664 -0.764,0.808 -1.366,1.908 -1.81,3.298 -0.443,1.39 -0.665,3.175 -0.665,5.357 V 0 h -4.309 v -20.638 c 0,-4.856 1.082,-8.306 3.245,-10.346 2.163,-2.04 5.391,-3.062 9.683,-3.062 4.293,0 7.495,1.022 9.605,3.062 2.11,2.04 3.166,5.49 3.166,10.346 z m 28.623,-32.938 v 14.57 c 0,1.23 -0.053,2.408 -0.159,3.536 -0.106,1.125 -0.426,2.11 -0.956,2.956 -0.532,0.845 -1.34,1.522 -2.421,2.033 -1.084,0.508 -2.583,0.763 -4.498,0.763 -1.204,0 -2.26,-0.183 -3.165,-0.554 -0.903,-0.368 -1.667,-0.8 -2.289,-1.294 -0.619,-0.491 -1.115,-0.984 -1.489,-1.476 -0.373,-0.493 -0.63,-0.863 -0.77,-1.108 L 12.343,-9.501 8.352,-9.87 c 0.036,-0.178 0.082,-0.484 0.134,-0.925 0.053,-0.44 0.107,-0.941 0.16,-1.503 0.052,-0.563 0.096,-1.144 0.132,-1.742 0.036,-0.6 0.053,-1.161 0.053,-1.69 v -17.208 h 4.15 v 12.984 c 0,1.058 0.169,2.06 0.506,3.01 0.338,0.951 0.798,1.777 1.383,2.48 0.586,0.704 1.277,1.258 2.074,1.662 0.8,0.406 1.677,0.608 2.636,0.608 1.063,0 1.922,-0.13 2.58,-0.396 0.655,-0.262 1.152,-0.66 1.488,-1.187 0.337,-0.528 0.559,-1.178 0.665,-1.953 0.109,-0.774 0.162,-1.654 0.162,-2.638 v -14.57 z m 12.471,34.39 c -0.532,0.545 -1.152,0.817 -1.862,0.817 -0.745,0 -1.382,-0.272 -1.915,-0.817 -0.533,-0.546 -0.797,-1.17 -0.797,-1.874 0,-0.705 0.264,-1.32 0.797,-1.848 0.533,-0.527 1.17,-0.793 1.915,-0.793 0.71,0 1.33,0.266 1.862,0.793 0.533,0.528 0.8,1.143 0.8,1.848 0,0.704 -0.267,1.328 -0.8,1.874 m 0.215,-11.219 h -4.257 v -23.172 h 4.257 z m 10.399,0 h -4.574 l 9.522,-23.645 h 3.354 l 9.736,23.645 h -3.83 l -6.172,-16.254 c -0.604,-1.62 -0.941,-2.833 -1.012,-3.643 -0.072,0.385 -0.177,0.896 -0.32,1.529 -0.141,0.634 -0.39,1.407 -0.744,2.323 z M 92.73,-22.063 v 2.321 c 0,1.302 -0.152,2.595 -0.453,3.882 -0.3,1.283 -0.806,2.427 -1.514,3.429 -0.711,1.002 -1.66,1.812 -2.848,2.429 -1.187,0.614 -2.686,0.922 -4.495,0.922 -1.491,0 -2.884,-0.298 -4.178,-0.896 -1.296,-0.599 -2.421,-1.435 -3.38,-2.507 -0.956,-1.075 -1.71,-2.359 -2.258,-3.855 -0.552,-1.496 -0.827,-3.158 -0.827,-4.986 0,-4.047 0.94,-7.11 2.821,-9.186 1.879,-2.076 4.664,-3.115 8.354,-3.115 1.915,0 3.599,0.389 5.054,1.161 1.453,0.777 2.818,1.902 4.098,3.38 l -1.651,1.689 c -1.56,-1.373 -2.899,-2.269 -4.017,-2.693 -1.116,-0.422 -2.207,-0.632 -3.272,-0.632 -2.342,0 -4.098,0.747 -5.268,2.243 -1.168,1.494 -1.827,3.633 -1.968,6.414 z m -5.506,8.498 c 0.903,-1.267 1.356,-2.956 1.356,-5.069 v -0.79 H 77.033 c 0.143,1.02 0.391,1.995 0.747,2.93 0.355,0.931 0.805,1.759 1.357,2.481 0.549,0.72 1.204,1.291 1.967,1.715 0.762,0.422 1.625,0.634 2.581,0.634 1.455,0 2.635,-0.634 3.539,-1.901 m 12.849,-19.373 h 3.936 v 11.139 c 0,0.774 0.027,1.547 0.08,2.322 0.053,0.774 0.168,1.513 0.347,2.216 0.39,1.444 0.965,2.648 1.729,3.616 0.762,0.966 1.621,1.451 2.58,1.451 1.595,0 2.447,-0.863 2.554,-2.585 l 3.459,1.214 c -0.036,0.773 -0.197,1.443 -0.48,2.004 -0.284,0.564 -0.637,1.012 -1.064,1.347 -0.427,0.334 -0.897,0.58 -1.409,0.739 -0.516,0.16 -1.002,0.237 -1.465,0.237 -1.383,0 -2.59,-0.386 -3.618,-1.161 -1.029,-0.774 -1.896,-1.812 -2.607,-3.113 l -0.532,4.011 -3.989,-0.369 c 0.033,-0.178 0.079,-0.484 0.132,-0.925 0.053,-0.44 0.106,-0.941 0.159,-1.503 0.053,-0.563 0.098,-1.144 0.135,-1.742 0.034,-0.6 0.053,-1.161 0.053,-1.69 z m 34.236,9.581 c -0.443,0.792 -1.009,1.469 -1.701,2.033 -0.693,0.561 -1.445,1.002 -2.261,1.32 -0.818,0.316 -1.615,0.58 -2.395,0.79 -1.455,0.388 -2.633,0.932 -3.539,1.638 -0.903,0.703 -1.356,1.652 -1.356,2.849 0,0.914 0.4,1.68 1.197,2.296 0.798,0.615 1.816,0.923 3.059,0.923 1.313,0 2.333,-0.246 3.06,-0.737 0.728,-0.494 1.356,-1.005 1.889,-1.532 l 2.02,2.588 c -0.565,0.491 -1.391,0.965 -2.473,1.422 -1.082,0.458 -2.528,0.687 -4.336,0.687 -1.099,0 -2.147,-0.132 -3.139,-0.395 -0.993,-0.264 -1.872,-0.66 -2.634,-1.187 -0.763,-0.527 -1.375,-1.197 -1.835,-2.007 -0.463,-0.81 -0.691,-1.741 -0.691,-2.797 0,-1.233 0.212,-2.262 0.638,-3.088 0.424,-0.826 0.975,-1.513 1.648,-2.057 0.674,-0.547 1.401,-0.969 2.183,-1.268 0.78,-0.301 1.524,-0.554 2.235,-0.766 1.488,-0.421 2.685,-0.941 3.592,-1.556 0.903,-0.616 1.356,-1.645 1.356,-3.088 0,-1.233 -0.364,-2.173 -1.092,-2.823 -0.727,-0.653 -1.765,-0.978 -3.112,-0.978 -0.711,0 -1.376,0.112 -1.994,0.344 -0.622,0.226 -1.197,0.518 -1.731,0.87 -0.532,0.352 -1.001,0.713 -1.409,1.081 -0.409,0.371 -0.736,0.714 -0.985,1.031 l -2.021,-3.22 c 2.233,-1.761 4.929,-2.641 8.087,-2.641 1.171,0 2.27,0.159 3.298,0.478 1.029,0.315 1.915,0.783 2.659,1.397 0.747,0.616 1.34,1.38 1.783,2.295 0.443,0.916 0.665,1.971 0.665,3.168 0,1.161 -0.222,2.14 -0.665,2.93 m 12.264,24.809 c -0.532,0.545 -1.154,0.817 -1.862,0.817 -0.744,0 -1.383,-0.272 -1.915,-0.817 -0.532,-0.546 -0.797,-1.17 -0.797,-1.874 0,-0.705 0.265,-1.32 0.797,-1.848 0.532,-0.527 1.171,-0.793 1.915,-0.793 0.708,0 1.33,0.266 1.862,0.793 0.532,0.528 0.797,1.143 0.797,1.848 0,0.704 -0.265,1.328 -0.797,1.874 m 0.212,-11.219 h -4.257 v -23.172 h 4.257 z m 20.592,-20.268 c -0.499,-0.246 -0.949,-0.432 -1.356,-0.554 -0.41,-0.123 -0.863,-0.183 -1.359,-0.183 -0.284,0 -0.619,0.052 -1.01,0.157 -0.389,0.105 -0.691,0.245 -0.905,0.424 -0.496,0.384 -0.79,0.859 -0.877,1.423 -0.089,0.564 -0.133,1.443 -0.133,2.64 v 13.724 h 5.534 v 2.637 h -5.534 v 6.811 l -4.044,-0.949 v -5.862 h -3.936 v -2.637 h 3.936 v -14.095 c 0,-1.194 0.043,-2.226 0.132,-3.086 0.09,-0.862 0.364,-1.592 0.826,-2.191 0.497,-0.668 1.143,-1.145 1.943,-1.424 0.797,-0.282 1.639,-0.425 2.526,-0.425 0.923,0 1.836,0.143 2.739,0.425 0.906,0.279 1.677,0.667 2.316,1.161 z m 26.814,-0.422 c -0.638,-0.176 -1.257,-0.263 -1.862,-0.263 -0.496,0 -0.896,0.167 -1.197,0.502 -0.301,0.332 -0.45,1.029 -0.45,2.083 v 12.247 c 0,0.422 -0.01,0.861 -0.028,1.319 -0.018,0.457 -0.079,0.915 -0.187,1.373 -0.106,0.457 -0.284,0.898 -0.532,1.32 -0.248,0.421 -0.583,0.792 -1.01,1.107 -0.922,0.705 -1.942,1.162 -3.059,1.373 -1.118,0.21 -2.192,0.316 -3.219,0.316 -0.959,0 -1.908,-0.086 -2.847,-0.262 -0.94,-0.179 -1.802,-0.477 -2.58,-0.898 -0.781,-0.422 -1.446,-0.977 -1.994,-1.663 -0.552,-0.687 -0.916,-1.556 -1.092,-2.614 l 3.245,-1.054 c 0.106,0.527 0.248,1.02 0.427,1.478 0.175,0.455 0.45,0.87 0.823,1.241 0.374,0.369 0.86,0.658 1.463,0.87 0.604,0.211 1.365,0.318 2.288,0.318 0.496,0 0.975,-0.046 1.438,-0.133 0.46,-0.089 0.884,-0.238 1.277,-0.448 0.602,-0.318 1.026,-0.723 1.277,-1.214 0.248,-0.494 0.37,-1.197 0.37,-2.112 v -4.012 c -1.204,0 -2.242,-0.019 -3.112,-0.053 -0.869,-0.036 -1.71,-0.106 -2.526,-0.212 -1.135,-0.175 -2.181,-0.458 -3.139,-0.842 -0.959,-0.389 -1.793,-0.89 -2.501,-1.506 -0.711,-0.615 -1.27,-1.345 -1.677,-2.19 -0.407,-0.845 -0.611,-1.795 -0.611,-2.85 0,-1.058 0.194,-1.99 0.585,-2.799 0.39,-0.81 0.896,-1.477 1.517,-2.004 0.619,-0.528 1.321,-0.926 2.101,-1.188 0.78,-0.265 1.578,-0.398 2.394,-0.398 1.915,0 3.467,0.425 4.657,1.268 1.188,0.845 2.011,1.811 2.474,2.902 0.106,-1.055 0.47,-1.97 1.089,-2.743 0.621,-0.774 1.534,-1.161 2.741,-1.161 0.708,0 1.39,0.069 2.048,0.212 0.655,0.139 1.125,0.246 1.409,0.315 z m -7.475,6.519 c -0.017,-0.687 -0.063,-1.364 -0.132,-2.031 -0.106,-0.882 -0.364,-1.629 -0.772,-2.245 -0.409,-0.614 -0.878,-1.108 -1.411,-1.476 -0.53,-0.372 -1.082,-0.634 -1.648,-0.793 -0.568,-0.16 -1.048,-0.237 -1.438,-0.237 -0.53,0 -1.045,0.071 -1.542,0.21 -0.496,0.14 -0.932,0.371 -1.302,0.687 -0.374,0.318 -0.675,0.729 -0.907,1.24 -0.231,0.511 -0.344,1.152 -0.344,1.928 0,0.773 0.159,1.424 0.479,1.951 0.319,0.53 0.708,0.959 1.169,1.294 0.462,0.334 0.94,0.59 1.438,0.765 0.496,0.176 0.921,0.299 1.277,0.369 0.426,0.106 0.896,0.176 1.409,0.213 0.513,0.033 1.012,0.069 1.491,0.105 0.477,0.034 0.92,0.053 1.329,0.053 h 0.93 c 0,-0.669 -0.009,-1.347 -0.026,-2.033 m 2.554,23.805 c -0.477,0.475 -1.055,0.714 -1.728,0.714 -0.71,0 -1.296,-0.239 -1.756,-0.714 -0.462,-0.474 -0.691,-1.028 -0.691,-1.662 0,-0.634 0.229,-1.187 0.691,-1.662 0.46,-0.475 1.046,-0.713 1.756,-0.713 0.673,0 1.251,0.238 1.728,0.713 0.479,0.475 0.72,1.028 0.72,1.662 0,0.634 -0.241,1.188 -0.72,1.662 m -9.817,0 c -0.46,0.475 -1.046,0.714 -1.754,0.714 -0.675,0 -1.25,-0.239 -1.729,-0.714 -0.48,-0.474 -0.718,-1.028 -0.718,-1.662 0,-0.634 0.238,-1.187 0.718,-1.662 0.479,-0.475 1.054,-0.713 1.729,-0.713 0.708,0 1.294,0.238 1.754,0.713 0.463,0.475 0.693,1.028 0.693,1.662 0,0.634 -0.23,1.188 -0.693,1.662 m 31.553,-29.902 c -0.499,-0.246 -0.949,-0.432 -1.359,-0.554 -0.407,-0.123 -0.86,-0.183 -1.356,-0.183 -0.284,0 -0.622,0.052 -1.01,0.157 -0.392,0.105 -0.693,0.245 -0.905,0.424 -0.497,0.384 -0.79,0.859 -0.877,1.423 -0.089,0.564 -0.135,1.443 -0.135,2.64 v 13.724 h 5.533 v 2.637 h -5.533 v 6.811 l -4.043,-0.949 v -5.862 h -3.938 v -2.637 h 3.938 v -14.095 c 0,-1.194 0.044,-2.226 0.133,-3.086 0.089,-0.862 0.364,-1.592 0.824,-2.191 0.496,-0.668 1.144,-1.145 1.944,-1.424 0.798,-0.282 1.638,-0.425 2.527,-0.425 0.92,0 1.836,0.143 2.739,0.425 0.906,0.279 1.677,0.667 2.315,1.161 z"
           style="fill:#000000;fill-opacity:1;fill-rule:nonzero;stroke:none"
           id="path38" /></g><g
         id="g40"
         transform="translate(691.2197,247.0966)"><path
           d="M 0,0 V 15.73 H 16.205 V 0 h 4.223 V 32.938 H 16.205 V 18.633 H 0 V 32.938 H -4.223 V 0 Z m 47.346,10.874 v 2.322 c 0,1.301 -0.15,2.595 -0.449,3.879 -0.298,1.284 -0.799,2.428 -1.502,3.432 -0.707,1.003 -1.646,1.812 -2.827,2.429 -1.177,0.614 -2.664,0.922 -4.459,0.922 -1.478,0 -2.859,-0.298 -4.143,-0.898 C 32.68,22.362 31.564,21.526 30.613,20.455 29.664,19.38 28.915,18.096 28.37,16.6 c -0.547,-1.496 -0.819,-3.158 -0.819,-4.986 0,-4.048 0.932,-7.109 2.8,-9.186 1.864,-2.076 4.625,-3.115 8.287,-3.115 1.9,0 3.569,0.388 5.012,1.162 1.444,0.773 2.799,1.9 4.067,3.379 L 46.078,5.543 C 44.529,4.17 43.202,3.273 42.094,2.85 40.986,2.428 39.904,2.216 38.85,2.216 c -2.326,0 -4.067,0.747 -5.228,2.245 -1.161,1.494 -1.811,3.633 -1.951,6.413 z m -5.464,8.497 c 0.898,-1.266 1.347,-2.956 1.347,-5.067 V 13.512 H 31.774 c 0.142,1.021 0.388,1.997 0.74,2.929 0.351,0.933 0.799,1.761 1.346,2.481 0.544,0.721 1.195,1.294 1.954,1.716 0.756,0.424 1.609,0.633 2.558,0.633 1.443,0 2.614,-0.633 3.51,-1.9 m 16.812,15.017 c -0.527,0.547 -1.144,0.819 -1.847,0.819 -0.74,0 -1.373,-0.272 -1.901,-0.819 -0.528,-0.545 -0.79,-1.171 -0.79,-1.874 0,-0.704 0.262,-1.318 0.79,-1.846 0.528,-0.529 1.161,-0.792 1.901,-0.792 0.703,0 1.32,0.263 1.847,0.792 0.528,0.528 0.793,1.142 0.793,1.846 0,0.703 -0.265,1.329 -0.793,1.874 M 58.906,23.172 H 54.683 V 0 h 4.223 z M 87.197,0 v 14.569 c 0,1.231 -0.052,2.41 -0.159,3.536 -0.105,1.125 -0.422,2.111 -0.949,2.957 -0.527,0.843 -1.33,1.52 -2.401,2.03 -1.075,0.511 -2.561,0.766 -4.462,0.766 -1.198,0 -2.243,-0.185 -3.139,-0.554 -0.899,-0.368 -1.655,-0.802 -2.272,-1.293 -0.614,-0.494 -1.108,-0.986 -1.476,-1.477 -0.371,-0.494 -0.627,-0.865 -0.767,-1.111 l -0.527,4.014 -3.958,-0.371 c 0.034,-0.176 0.08,-0.484 0.13,-0.923 0.054,-0.441 0.106,-0.942 0.159,-1.505 0.053,-0.562 0.097,-1.145 0.133,-1.742 0.033,-0.598 0.053,-1.161 0.053,-1.689 V 0 h 4.117 v 12.984 c 0,1.056 0.166,2.06 0.501,3.009 0.335,0.951 0.793,1.778 1.373,2.481 0.581,0.704 1.267,1.258 2.057,1.663 0.792,0.404 1.664,0.607 2.614,0.607 1.055,0 1.908,-0.133 2.56,-0.395 0.651,-0.266 1.142,-0.661 1.477,-1.188 0.335,-0.528 0.554,-1.181 0.66,-1.954 0.106,-0.773 0.159,-1.655 0.159,-2.638 L 83.08,0 Z m 7.844,0 h 3.904 v 11.137 c 0,0.773 0.028,1.549 0.08,2.322 0.053,0.775 0.166,1.513 0.342,2.218 0.388,1.441 0.959,2.648 1.718,3.616 0.754,0.966 1.609,1.451 2.559,1.451 1.585,0 2.427,-0.863 2.534,-2.585 l 3.429,1.212 c -0.033,0.775 -0.192,1.442 -0.474,2.006 -0.281,0.564 -0.633,1.012 -1.055,1.347 -0.422,0.335 -0.889,0.58 -1.399,0.739 -0.511,0.157 -0.995,0.236 -1.45,0.236 -1.374,0 -2.571,-0.387 -3.59,-1.161 -1.022,-0.773 -1.884,-1.811 -2.587,-3.115 l -0.528,4.014 -3.958,-0.371 c 0.034,-0.176 0.078,-0.484 0.13,-0.923 0.053,-0.441 0.106,-0.942 0.159,-1.505 0.053,-0.562 0.096,-1.145 0.132,-1.742 0.034,-0.598 0.054,-1.161 0.054,-1.689 z m 23.629,34.388 c -0.527,0.547 -1.142,0.819 -1.848,0.819 -0.736,0 -1.37,-0.272 -1.897,-0.819 -0.529,-0.545 -0.793,-1.171 -0.793,-1.874 0,-0.704 0.264,-1.318 0.793,-1.846 0.527,-0.529 1.161,-0.792 1.897,-0.792 0.706,0 1.321,0.263 1.848,0.792 0.53,0.528 0.793,1.142 0.793,1.846 0,0.703 -0.263,1.329 -0.793,1.874 m 0.212,-11.216 h -4.223 V 0 h 4.223 z M 143.109,5.225 c -1.3,-1.231 -2.428,-2.05 -3.378,-2.454 -0.951,-0.405 -1.969,-0.608 -3.061,-0.608 -1.267,0 -2.332,0.246 -3.194,0.74 -0.863,0.493 -1.556,1.161 -2.084,2.006 -0.528,0.843 -0.906,1.812 -1.134,2.903 -0.23,1.089 -0.345,2.216 -0.345,3.377 0,1.162 0.132,2.342 0.398,3.537 0.262,1.197 0.676,2.279 1.24,3.247 0.561,0.966 1.284,1.759 2.163,2.376 0.88,0.614 1.918,0.922 3.115,0.922 1.337,0 2.401,-0.209 3.192,-0.633 0.792,-0.422 1.505,-0.95 2.139,-1.583 l 2.004,3.008 c -1.018,0.704 -2.137,1.179 -3.351,1.427 -1.213,0.245 -2.401,0.368 -3.562,0.368 -1.795,0 -3.424,-0.308 -4.884,-0.922 -1.459,-0.617 -2.69,-1.479 -3.694,-2.587 -1.003,-1.109 -1.777,-2.429 -2.323,-3.961 -0.544,-1.53 -0.817,-3.211 -0.817,-5.039 0,-3.941 0.984,-6.933 2.956,-8.974 1.971,-2.04 4.698,-3.062 8.181,-3.062 0.563,0 1.187,0.063 1.874,0.186 0.686,0.123 1.381,0.335 2.084,0.633 0.703,0.299 1.399,0.721 2.086,1.267 0.686,0.545 1.347,1.241 1.98,2.084 z m 11.142,30.661 h -4.117 V 0 h 4.117 v 12.984 c 0,1.056 0.168,2.06 0.503,3.009 0.333,0.951 0.79,1.778 1.371,2.481 0.58,0.704 1.267,1.258 2.06,1.663 0.793,0.404 1.662,0.607 2.611,0.607 1.058,0 1.91,-0.133 2.56,-0.395 0.651,-0.266 1.145,-0.661 1.48,-1.188 0.332,-0.528 0.554,-1.181 0.66,-1.954 0.104,-0.773 0.156,-1.655 0.156,-2.638 V 0 h 4.118 v 14.569 c 0,1.231 -0.054,2.41 -0.158,3.536 -0.105,1.125 -0.424,2.111 -0.951,2.957 -0.527,0.843 -1.327,1.52 -2.401,2.03 -1.073,0.511 -2.559,0.766 -4.459,0.766 -1.197,0 -2.237,-0.175 -3.115,-0.527 -0.879,-0.352 -1.62,-0.767 -2.216,-1.241 -0.601,-0.474 -1.082,-0.959 -1.453,-1.452 -0.369,-0.492 -0.624,-0.863 -0.766,-1.109 z M 198.169,0 v 15.73 h 16.202 V 0 h 4.223 v 32.938 h -4.223 V 18.633 h -16.202 v 14.305 h -4.224 V 0 Z m 47.398,10.874 v 2.322 c 0,1.301 -0.149,2.595 -0.448,3.879 -0.301,1.284 -0.802,2.428 -1.506,3.432 -0.703,1.003 -1.644,1.812 -2.823,2.429 -1.18,0.614 -2.666,0.922 -4.461,0.922 -1.476,0 -2.859,-0.298 -4.143,-0.898 -1.285,-0.598 -2.402,-1.434 -3.351,-2.505 -0.949,-1.075 -1.698,-2.359 -2.243,-3.855 -0.547,-1.496 -0.82,-3.158 -0.82,-4.986 0,-4.048 0.933,-7.109 2.797,-9.186 1.866,-2.076 4.628,-3.115 8.287,-3.115 1.901,0 3.573,0.388 5.016,1.162 1.443,0.773 2.797,1.9 4.064,3.379 L 244.3,5.543 c -1.549,-1.373 -2.876,-2.27 -3.985,-2.693 -1.107,-0.422 -2.191,-0.634 -3.247,-0.634 -2.322,0 -4.063,0.747 -5.224,2.245 -1.161,1.494 -1.815,3.633 -1.954,6.413 z m -5.463,8.497 c 0.898,-1.266 1.346,-2.956 1.346,-5.067 v -0.792 h -11.454 c 0.14,1.021 0.388,1.997 0.739,2.929 0.352,0.933 0.8,1.761 1.344,2.481 0.547,0.721 1.197,1.294 1.954,1.716 0.757,0.424 1.612,0.633 2.561,0.633 1.443,0 2.614,-0.633 3.51,-1.9 m 16.436,15.017 c -0.527,0.547 -1.144,0.819 -1.848,0.819 -0.739,0 -1.373,-0.272 -1.9,-0.819 -0.527,-0.545 -0.79,-1.171 -0.79,-1.874 0,-0.704 0.263,-1.318 0.79,-1.846 0.527,-0.529 1.161,-0.792 1.9,-0.792 0.704,0 1.321,0.263 1.848,0.792 0.527,0.528 0.793,1.142 0.793,1.846 0,0.703 -0.266,1.329 -0.793,1.874 m 0.212,-11.216 h -4.223 V 0 h 4.223 z M 284.937,0 v 14.569 c 0,1.231 -0.053,2.41 -0.159,3.536 -0.103,1.125 -0.422,2.111 -0.949,2.957 -0.527,0.843 -1.33,1.52 -2.402,2.03 -1.074,0.511 -2.561,0.766 -4.461,0.766 -1.195,0 -2.243,-0.185 -3.139,-0.554 -0.898,-0.368 -1.655,-0.802 -2.269,-1.293 -0.617,-0.494 -1.111,-0.986 -1.48,-1.477 -0.368,-0.494 -0.624,-0.865 -0.766,-1.111 l -0.527,4.014 -3.958,-0.371 c 0.033,-0.176 0.079,-0.484 0.132,-0.923 0.054,-0.441 0.104,-0.942 0.157,-1.505 0.053,-0.562 0.097,-1.145 0.133,-1.742 0.035,-0.598 0.053,-1.161 0.053,-1.689 V 0 h 4.117 v 12.984 c 0,1.056 0.166,2.06 0.501,3.009 0.334,0.951 0.792,1.778 1.373,2.481 0.58,0.704 1.267,1.258 2.06,1.663 0.79,0.404 1.662,0.607 2.611,0.607 1.055,0 1.907,-0.133 2.56,-0.395 0.651,-0.266 1.142,-0.661 1.477,-1.188 0.335,-0.528 0.554,-1.181 0.66,-1.954 0.106,-0.773 0.159,-1.655 0.159,-2.638 V 0 Z m 26.101,10.874 v 2.322 c 0,1.301 -0.149,2.595 -0.448,3.879 -0.299,1.284 -0.802,2.428 -1.506,3.432 -0.703,1.003 -1.645,1.812 -2.823,2.429 -1.18,0.614 -2.664,0.922 -4.459,0.922 -1.479,0 -2.86,-0.298 -4.143,-0.898 -1.287,-0.598 -2.402,-1.434 -3.353,-2.505 -0.95,-1.075 -1.699,-2.359 -2.244,-3.855 -0.546,-1.496 -0.818,-3.158 -0.818,-4.986 0,-4.048 0.932,-7.109 2.799,-9.186 1.864,-2.076 4.625,-3.115 8.287,-3.115 1.898,0 3.569,0.388 5.013,1.162 1.443,0.773 2.799,1.9 4.064,3.379 l -1.636,1.689 c -1.549,-1.373 -2.876,-2.27 -3.985,-2.693 -1.107,-0.422 -2.189,-0.634 -3.247,-0.634 -2.322,0 -4.063,0.747 -5.225,2.245 -1.161,1.494 -1.811,3.633 -1.954,6.413 z m -5.464,8.497 c 0.9,-1.266 1.347,-2.956 1.347,-5.067 v -0.792 h -11.454 c 0.139,1.021 0.387,1.997 0.739,2.929 0.352,0.933 0.8,1.761 1.347,2.481 0.544,0.721 1.195,1.294 1.951,1.716 0.757,0.424 1.611,0.633 2.56,0.633 1.444,0 2.615,-0.633 3.51,-1.9"
           style="fill:#000000;fill-opacity:1;fill-rule:nonzero;stroke:none"
           id="path42" /></g></g><g
       id="g44"
       transform="matrix(0.11079269,0,0,0.11079269,225.72762,304.2687)"><path
         d="m 0,0 h 34.732 c 15.242,0 27.6,12.324 27.6,27.526 0,15.206 -12.358,27.531 -27.6,27.531 H 0 Z"
         style="fill:#006ab3;fill-opacity:1;fill-rule:nonzero;stroke:none"
         id="path46" /></g></g></svg>
