<?xml version="1.0" encoding="UTF-8" standalone="no"?>
<svg
   version="1.1"
   id="Layer_1"
   x="0px"
   y="0px"
   width="75.569725"
   height="64"
   viewBox="0 0 75.569725 63.999998"
   enable-background="new 0 0 500 423.45"
   xml:space="preserve"
   sodipodi:docname="unilu.svg"
   inkscape:version="1.1.1 (3bf5ae0d25, 2021-09-20)"
   xmlns:inkscape="http://www.inkscape.org/namespaces/inkscape"
   xmlns:sodipodi="http://sodipodi.sourceforge.net/DTD/sodipodi-0.dtd"
   xmlns="http://www.w3.org/2000/svg"
   xmlns:svg="http://www.w3.org/2000/svg"><defs
   id="defs13" /><sodipodi:namedview
   id="namedview11"
   pagecolor="#ffffff"
   bordercolor="#666666"
   borderopacity="1.0"
   inkscape:pageshadow="2"
   inkscape:pageopacity="0.0"
   inkscape:pagecheckerboard="0"
   showgrid="false"
   fit-margin-top="0"
   fit-margin-left="0"
   fit-margin-right="0"
   fit-margin-bottom="0"
   inkscape:zoom="1.6790648"
   inkscape:cx="250.13925"
   inkscape:cy="211.72501"
   inkscape:window-width="1920"
   inkscape:window-height="1166"
   inkscape:window-x="0"
   inkscape:window-y="2194"
   inkscape:window-maximized="1"
   inkscape:current-layer="Layer_1" />
<line
   fill="none"
   stroke="#676a69"
   stroke-width="2"
   x1="0"
   y1="38.856892"
   x2="75.569725"
   y2="38.856892"
   id="line2" />
<path
   fill="#676a69"
   d="m 3.514899,51.492908 c -1.657244,0 -2.81058916,-1.064928 -2.81058916,-2.839154 v -4.4766 H 1.6988074 v 4.4766 c 0,1.38882 0.8696564,1.912216 1.8160916,1.912216 0.9357044,0 1.8431456,-0.532464 1.8431456,-1.912216 v -4.4766 h 0.9762097 v 4.4766 c 0,1.715735 -1.2131963,2.839154 -2.8193553,2.839154 m 10.418949,-0.118644 v -7.19711 h -0.98422 v 5.087052 c 0,0.08857 0.01814,0.236987 0.01814,0.236987 0,0 -0.06892,-0.127713 -0.127562,-0.207061 L 9.1134065,44.177154 H 8.2763963 v 7.19711 h 0.9855803 v -5.174259 c 0,-0.07935 -0.019648,-0.238196 -0.019648,-0.238196 0,0 0.089928,0.139351 0.1277128,0.196632 l 3.7750096,5.215974 h 0.788797 z m 1.991565,0 h 0.98558 v -7.19711 h -0.98558 z m 8.153066,-7.19711 h -0.937216 l -1.832868,5.196477 c -0.02857,0.08857 -0.05985,0.246055 -0.05985,0.246055 0,0 -0.02857,-0.157487 -0.05864,-0.246055 L 19.364893,44.177154 H 18.40939 l 2.534608,7.19711 h 0.610452 z m 5.706572,7.19711 V 50.447477 H 26.562003 V 48.32835 h 2.966565 v -0.926787 h -2.966565 v -2.297622 h 3.036996 v -0.926787 h -4.022426 v 7.19711 z m 6.911003,0 -2.651591,-3.015988 c 1.073846,0 2.050056,-0.907441 2.050056,-2.061995 0,-1.161356 -0.887642,-2.119127 -2.2284,-2.119127 h -2.324978 v 7.19711 h 0.985429 v -3.362248 l 2.908074,3.362248 z m -3.007071,-6.270323 c 0.937216,0 1.381264,0.661387 1.381264,1.155915 0,0.767939 -0.513119,1.319901 -1.400761,1.319901 H 32.526419 V 45.10379 h 1.162564 m 6.191126,6.389118 c 1.201407,0 2.207694,-0.729096 2.207694,-2.020281 0,-1.204128 -0.866936,-1.726315 -1.68581,-2.131066 -0.886433,-0.442687 -1.575175,-0.706879 -1.575175,-1.487968 0,-0.541533 0.471253,-0.826733 1.032282,-0.826733 0.602744,0 0.977721,0.127713 1.421618,0.453116 l 0.531104,-0.809654 c -0.561181,-0.393264 -1.221056,-0.610452 -1.942293,-0.610452 -1.289975,0 -2.078923,0.787588 -2.078923,1.853725 0,1.368115 1.04528,1.82244 2.068494,2.346894 0.64325,0.325554 1.204128,0.658666 1.204128,1.270478 0,0.680883 -0.503596,1.006287 -1.231333,1.006287 -0.494528,0 -1.1142,-0.188774 -1.499605,-0.533674 l -0.56103,0.76008 c 0.660026,0.543044 1.381263,0.729248 2.108849,0.729248 m 3.825793,-0.118644 h 0.98422 v -7.19711 h -0.98422 z m 6.593307,-6.270323 v -0.926787 h -3.980711 v 0.926787 h 1.468471 v 6.270323 h 0.985429 v -6.270323 z m 5.837005,6.270323 V 50.447477 H 52.913015 V 48.32835 h 2.966716 v -0.926787 h -2.966716 v -2.297622 h 3.035787 v -0.926787 h -4.022275 v 7.19711 z m -0.965932,-9.217391 h -0.946435 l -0.917719,1.450032 h 0.947796 z m 8.447033,9.217391 c 2.466596,0 3.933706,-1.615379 3.933706,-3.617523 0,-1.962848 -1.38882,-3.579738 -3.84408,-3.579738 h -1.834078 v 7.19711 h 1.744452 m 0.06892,-6.309317 c 1.726163,0 2.839003,1.231485 2.839003,2.701165 0,1.340758 -0.896862,2.72187 -3.025207,2.72187 h -0.641738 v -5.423035 h 0.827942 m 8.320831,6.428112 c 1.60631,0 2.820866,-1.12357 2.820866,-2.839154 v -4.4766 h -0.977721 v 4.4766 c 0,1.379752 -0.90593,1.912216 -1.843145,1.912216 -0.946435,0 -1.814732,-0.523396 -1.814732,-1.912216 v -4.4766 h -0.993137 v 4.4766 c 0,1.774226 1.151985,2.839154 2.807869,2.839154 M 4.4558933,63.882867 V 62.955929 H 1.7248034 V 56.685455 H 0.73937419 v 7.197412 z M 9.129125,64 c 1.60495,0 2.818146,-1.123571 2.818146,-2.837945 v -4.4766 h -0.976058 v 4.4766 c 0,1.378542 -0.906081,1.911158 -1.842088,1.911158 -0.9476443,0 -1.8160916,-0.522036 -1.8160916,-1.911158 v -4.4766 H 6.3185358 v 4.4766 C 6.318687,62.936432 7.4720321,64 9.129125,64 m 10.900631,-0.117133 -2.503323,-3.845441 2.198777,-3.351971 h -1.133849 l -1.39018,2.108849 c -0.127562,0.190133 -0.235627,0.395683 -0.235627,0.395683 0,0 -0.118493,-0.20555 -0.227918,-0.373617 l -1.379752,-2.131066 h -1.212138 l 2.207694,3.401545 -2.494104,3.795867 h 1.144126 l 1.596033,-2.435612 c 0.13799,-0.208271 0.325403,-0.521885 0.325403,-0.521885 0,0 0.187413,0.325252 0.305755,0.502388 l 1.606461,2.455109 h 1.192642 z m 6.152131,0 v -0.926938 h -3.2232 v -2.120487 h 2.966716 v -0.925578 h -2.966716 v -2.297471 h 3.036996 V 56.685455 H 21.9722 v 7.197412 z m 9.552315,0 v -7.197412 h -0.877515 l -2.632094,3.519887 -2.710232,-3.519887 H 28.67599 v 7.197412 h 0.986638 v -5.216125 c 0,-0.129073 -0.02086,-0.265703 -0.02086,-0.265703 0,0 0.05864,0.108065 0.09885,0.157639 l 2.277974,2.967925 h 0.393265 l 2.258477,-3.047274 c 0.04035,-0.04957 0.09884,-0.167916 0.09884,-0.167916 0,0 -0.02086,0.147059 -0.02086,0.27719 v 5.294264 h 0.985882 z m 4.88921,0 c 1.588174,0 2.219483,-1.055709 2.219483,-1.952722 0,-0.887642 -0.652166,-1.547668 -1.213196,-1.714375 0.464754,-0.296837 0.827942,-0.830511 0.827942,-1.657092 0,-1.123571 -0.866936,-1.873374 -2.090561,-1.873374 h -1.90209 v 7.197412 h 2.158422 m -0.42319,-6.270323 c 0.808445,0 1.232844,0.384046 1.232844,1.026993 0,0.598966 -0.247415,1.249772 -1.321261,1.249772 h -0.660026 v -2.276613 h 0.748443 m 0.414122,3.203249 c 0.728795,0 1.202768,0.414122 1.202768,1.035003 0,0.671664 -0.413971,1.105283 -1.301613,1.105283 h -1.063568 v -2.140135 h 1.162413 M 48.19429,64 c 2.031919,0 3.678734,-1.625958 3.678734,-3.716519 0,-2.089352 -1.498397,-3.716519 -3.726797,-3.716519 -2.080283,0 -3.647599,1.597242 -3.647599,3.697022 0,2.17006 1.636387,3.736016 3.695662,3.736016 m -0.03778,-6.465897 c 1.585453,0 2.690736,1.150776 2.690736,2.710384 0,1.724803 -1.241913,2.790941 -2.652951,2.790941 -1.417537,0 -2.669879,-1.174202 -2.669879,-2.771293 0,-1.579256 1.073846,-2.730032 2.632094,-2.730032 M 56.623035,64 c 1.606461,0 2.820866,-1.123571 2.820866,-2.837945 v -4.4766 h -0.97757 v 4.4766 c 0,1.378542 -0.906081,1.911158 -1.843296,1.911158 -0.946436,0 -1.814581,-0.522036 -1.814581,-1.911158 v -4.4766 h -0.993288 v 4.4766 C 53.815166,62.936432 54.965942,64 56.623035,64 m 10.213399,-0.117133 -2.65159,-3.017499 c 1.075206,0 2.050206,-0.907441 2.050206,-2.059275 0,-1.162414 -0.887793,-2.120638 -2.228702,-2.120638 h -2.326187 v 7.197412 h 0.986789 v -3.361039 l 2.907923,3.361039 z m -3.00571,-6.270474 c 0.936006,0 1.379752,0.661236 1.379752,1.153346 0,0.769299 -0.514025,1.321261 -1.399249,1.321261 h -1.144126 v -2.474607 h 1.163623 M 71.656725,64 c 1.735232,0 3.293328,-1.388972 3.293328,-3.341542 h -3.312977 v 0.926787 h 2.168852 c -0.255124,0.866936 -1.083066,1.450183 -2.119127,1.450183 -1.459251,0 -2.651741,-1.282116 -2.651741,-2.742576 0,-1.665104 1.162413,-2.758598 2.612747,-2.758598 0.836859,0 1.450032,0.22671 2.069553,0.739526 l 0.601384,-0.730306 c -0.691161,-0.601384 -1.489177,-0.97621 -2.651591,-0.97621 -1.982496,0 -3.658028,1.487817 -3.658028,3.716519 C 68.009276,62.511881 69.834436,64 71.656725,64"
   id="path4"
   style="stroke-width:0.151139" />
<path
   fill="#e31b1d"
   d="m 36.020461,8.3363986 c 1.060998,0 1.979926,-0.6013838 2.43803,-1.527113 h 0.312556 V 30.797686 c 0,1.516533 -1.231484,2.749377 -2.750586,2.749377 -1.517894,0 -2.749227,-1.232844 -2.749227,-2.749377 V 6.8094368 h 0.313614 c 0.459615,0.925578 1.377334,1.5269618 2.435613,1.5269618 M 33.725559,2.7988003 c 0,1.2704782 1.028353,2.3015516 2.300191,2.3015516 1.270479,0 2.301552,-1.0309222 2.301552,-2.3015516 0,-1.2704782 -1.030922,-2.29747075 -2.301552,-2.29747075 -1.271989,-1.5113e-4 -2.300191,1.02699255 -2.300191,2.29747075 m 0,0 c 0,1.2704782 1.028353,2.3015516 2.300191,2.3015516 1.270479,0 2.301552,-1.0309222 2.301552,-2.3015516 0,-1.2704782 -1.030922,-2.29747075 -2.301552,-2.29747075 C 34.753761,0.50117842 33.725559,1.5283221 33.725559,2.7988003 M 6.2145519,33.548424 V 9.5573031 c 0,-1.5191026 -1.2326934,-2.7490754 -2.7504357,-2.7490754 -1.5192538,0 -2.75330737,1.2301239 -2.75330737,2.7490754 V 30.797686 c 0,1.520614 1.23405357,2.750587 2.75330737,2.750587 v 0 h 2.7504357 z m 1.4879679,0 h 1.1494155 c 1.5191027,0 2.7517957,-1.46439 2.7517957,-2.982284 h -0.0027 c 0,1.472401 0.299256,2.982284 1.599962,2.982284 h -0.0039 V 9.5573031 c 0,-1.5191026 -1.231333,-2.7490754 -2.749226,-2.7490754 -1.5178938,0 -2.7480177,1.2301239 -2.7480177,2.7490754 V 33.548424 h 0.00136 M 23.990969,6.8067163 V 30.799197 c 0,1.519103 1.234205,2.749076 2.751948,2.749076 1.515173,0 2.748017,-1.230124 2.748017,-2.749076 V 9.5586634 c 0,-1.5204629 -1.232693,-2.7519471 -2.748017,-2.7519471 v 0 z m -2.639801,0 c -1.516382,0 -2.748018,1.4657503 -2.748018,2.9836438 h 0.0027 c 0,-1.4722493 -0.301977,-2.9821324 -1.601172,-2.9836438 h 0.0027 V 30.799197 c 0,1.519103 1.231333,2.749076 2.751796,2.749076 1.516533,0 2.748017,-1.230124 2.748017,-2.749076 V 6.8067163 h -0.0038 z"
   id="path6"
   style="stroke-width:0.151139" />
<path
   fill="#00a4dd"
   d="m 55.822449,1.5257527 c 1.058278,0 1.978718,-0.60017471 2.438333,-1.5257527 h 0.306964 v 30.797837 c 0,1.516533 -1.230124,2.749378 -2.746506,2.749378 -1.530892,0 -2.758446,-1.232845 -2.758446,-2.749378 V 0 h 0.311196 c 0.458255,0.92557799 1.38882,1.5257527 2.448459,1.5257527 M 67.870077,33.548424 V 9.5573031 c 0,-1.5191026 -1.234054,-2.7505868 -2.751947,-2.7505868 -1.516382,0 -2.748018,1.2314842 -2.748018,2.7505868 V 30.797686 c 0,1.519253 1.231484,2.750587 2.748018,2.750587 v 0 h 2.751947 z m 2.638592,0 c 1.516534,0 2.749227,-1.46439 2.749227,-2.983493 h -0.0026 c 0,1.472098 0.301977,2.982284 1.602381,2.983493 h -0.0038 V 9.5573031 c 0,-1.5191026 -1.231484,-2.7505868 -2.750586,-2.7505868 -1.517894,0 -2.749076,1.2314842 -2.749076,2.7505868 V 33.548424 h 0.005 z M 43.178727,30.792547 c 0,1.521672 1.234054,2.755726 2.758446,2.755726 1.520463,0 2.755726,-1.234054 2.755726,-2.755726 0,-1.521672 -1.235414,-2.756935 -2.755726,-2.756935 -1.524392,0 -2.758446,1.235263 -2.758446,2.756935"
   id="path8"
   style="stroke-width:0.151139" />
</svg>
