<svg xmlns="http://www.w3.org/2000/svg" viewBox="0 0 846.7653 134.2581">
  <title>new-logo</title>
  <g>
    <g>
      <path d="M22.9476,104.6873l-.52-.5606c.16.2055.3077.4139.47.619Z" style="fill: #fff"/>
      <path d="M59.7065,65.0522c-5.46-6.5265-10.9443-13.0325-16.3856-19.5748-.6168-.7417-1.5189-1.3733-1.6189-2.2745,4.9229-1.53,8.0554.508,10.8311,4.3571,3.2147,4.4578,6.9649,8.5336,10.5386,12.7275,1.9831,2.3272,4.0991,2.57,5.8925.477,5.41-6.3128,10.7148-12.716,16.0117-19.1245a3.23,3.23,0,0,0-.527-5.0743c-1.7222-1.3311-3.4422-.9183-4.895.6321-.4621.4931-.8753,1.0324-1.31,1.5511-3.477,4.15-7.048,8.2267-10.3859,12.486-1.4024,1.7894-2.065,1.4794-3.3163-.0943-3.3691-4.2367-6.9889-8.2744-10.3477-12.5191A6.4994,6.4994,0,0,0,48.29,35.7946c-4.3439.2029-8.7046.0606-13.058.0383-1.8593-.01-3.7939-.1773-4.7822,1.8822-1.0176,2.1207.1792,3.6225,1.4853,5.1685,6.7378,7.9753,13.415,16.0014,20.1376,23.9892.8105.963,1.3179,1.6448.2418,2.9135C42.5784,81.2669,32.92,92.8139,22.9476,104.6873l4.86,5.2437Q43.7265,90.8345,59.75,71.8247C62.1394,68.9764,62.1285,67.9473,59.7065,65.0522Z" style="fill: #fff"/>
      <path d="M22.8985,104.7457c-.1628-.2051-.3106-.4135-.47-.619l-.0888-.0959.0888.0959C12.1814,90.9519,8.0047,76.396,10.4188,60.0731c5.84-39.49,50.3276-60.7018,84.4288-40.1831,2.8187,1.696,3.9671,1.26,5.9-1.0425,1.8937-2.2559,1.2842-3.0736-.8492-4.3571C84.376,5.1511,67.7089,2.3334,50.2959,7.0381,26.9,13.3593,11.269,28.5207,5.0008,51.911-1.2553,75.2562,4.6283,96.0432,21.44,113.6083c1.4481,1.513,2.1615,1.3608,3.4671-.2086.9638-1.1589,1.9356-2.311,2.9007-3.4687l-4.86-5.2437Z" style="fill: #fff"/>
      <g>
        <path d="M110.9388,34.0574c-.1509-.2022-.2915-.3753-.4281-.5308Z" style="fill: #fff"/>
        <path d="M129.534,62.6547c-1.4-15.6607-7.9424-28.8684-19.013-39.943-1.2578-1.2583-1.9139-.9924-2.9.2632-.921,1.1732-1.87,2.3243-2.8184,3.4762l5.7077,7.0755c.1366.1555.2772.3286.4281.5308,10.5686,14.17,14.2418,29.9968,10.2077,47.1319a56.35,56.35,0,0,1-83.28,36.0708c-3.8282-2.1814-3.7232-2.0831-6.6879,1.0909-1.58,1.6918-1.3387,2.4276.5373,3.6023,12.28,7.6891,25.5586,11.1822,40.0361,9.8383,19.4348-1.804,34.8737-10.7519,46.2745-26.4663C127.2385,92.6282,130.9311,78.286,129.534,62.6547Z" style="fill: #fff"/>
        <path d="M100.25,31.9306Q86.6019,48.2941,72.951,64.655c-2.7652,3.3271-2.7563,4.267-.08,7.5243,2.5155,3.0618,5.1154,6.054,7.6575,9.0942,3.3839,4.0469,6.7476,8.11,10.2184,12.285-4.8861,1.57-7.8311-.219-10.46-3.8365-3.345-4.6031-7.1784-8.8584-10.9026-13.1762-2.1625-2.5073-4.1366-2.5012-6.3084.0367-5.2159,6.0954-10.3347,12.2741-15.49,18.4217a3.5477,3.5477,0,0,0-.2684,4.7734c1.0743,1.4726,2.6316,1.5243,4.1986,1.1083,1.0773-.2857,1.6708-1.2781,2.3489-2.0852,3.5454-4.2183,7.147-8.3934,10.566-12.7127,1.3052-1.6489,1.9932-2.0946,3.51-.1444,3.4376,4.4218,7.1407,8.6366,10.72,12.9488.875,1.0543,1.705,2.1548,3.2511,2.1574,5.8045.01,11.6113.0988,17.4127-.0376a3.24,3.24,0,0,0,2.7989-4.8091,12.4815,12.4815,0,0,0-1.8566-2.5727Q90.5786,82.0727,80.8443,70.5541c-1.1532-1.3581-1.4968-2.4177-.1929-3.9632Q94.3948,50.2992,107.9828,33.877c1.1044-1.3357,1.7207-1.27,2.5279-.35l-5.7077-7.0755Q102.5389,29.2011,100.25,31.9306Z" style="fill: #fff"/>
      </g>
    </g>
    <g style="isolation: isolate">
      <g style="isolation: isolate">
        <path d="M237.3562,96.3639a47.7656,47.7656,0,0,1-22.4785,5.1123,44.5119,44.5119,0,0,1-17.1709-3.4737A47.66,47.66,0,0,1,172.0174,72.64a50.2743,50.2743,0,0,1-4.0635-20.5791,52.7625,52.7625,0,0,1,3.5391-19.3984,48.4194,48.4194,0,0,1,9.83-15.7285A45.1333,45.1333,0,0,1,196.3308,6.4479a47.2024,47.2024,0,0,1,19.0713-3.8008q12.9756,0,21.2989,4.0635A42.8638,42.8638,0,0,1,250.7918,17.59l-9.6992,8.65A36.4858,36.4858,0,0,0,229.82,18.31a34.2769,34.2769,0,0,0-14.1563-2.8184,33.5991,33.5991,0,0,0-13.1728,2.6221,33.218,33.218,0,0,0-10.8789,7.34,34.14,34.14,0,0,0-7.34,11.4033,39.7336,39.7336,0,0,0-2.6865,14.9424,38.62,38.62,0,0,0,3.1455,16.1875,35.8136,35.8136,0,0,0,8.0606,11.4688,33.4053,33.4053,0,0,0,10.8789,6.8808,31.8757,31.8757,0,0,0,11.4687,2.294,38.4139,38.4139,0,0,0,14.418-3.0147,35.4947,35.4947,0,0,0,13.6318-10.2236l9.4375,8.1269A42.4632,42.4632,0,0,1,237.3562,96.3639Z" style="fill: #fff"/>
        <path d="M357.7459,52.0611A48.7035,48.7035,0,0,1,353.88,71.526a50.3454,50.3454,0,0,1-10.4864,15.6631,48.4061,48.4061,0,0,1-34.5371,14.2871A49.541,49.541,0,0,1,273.991,87.4508a46.9547,46.9547,0,0,1-10.4863-15.6631,51.3718,51.3718,0,0,1-3.8008-19.9883,50.9375,50.9375,0,0,1,3.67-19.4638A47.923,47.923,0,0,1,273.532,16.7379a46.4358,46.4358,0,0,1,15.4-10.3555A49.3408,49.3408,0,0,1,308.201,2.6471a52.1257,52.1257,0,0,1,20.25,3.8008,46.309,46.309,0,0,1,15.5976,10.4863,47.6582,47.6582,0,0,1,10.0928,15.7285A51.9294,51.9294,0,0,1,357.7459,52.0611Zm-13.6319-.5244a38.6424,38.6424,0,0,0-2.621-14.3515,33.7382,33.7382,0,0,0-7.34-11.4034,34.1226,34.1226,0,0,0-11.3379-7.5371,37.3614,37.3614,0,0,0-14.4834-2.7529A36.0409,36.0409,0,0,0,294.11,18.2447a32.9751,32.9751,0,0,0-11.0752,7.5371,33.7634,33.7634,0,0,0-7.1435,11.4688,40.3994,40.3994,0,0,0-2.5557,14.5488,37.1282,37.1282,0,0,0,2.8828,14.7451,36.6479,36.6479,0,0,0,7.7989,11.6661,35.872,35.872,0,0,0,11.3379,7.6679,33.914,33.914,0,0,0,13.5009,2.752,35.6784,35.6784,0,0,0,13.4346-2.5557,33.23,33.23,0,0,0,11.207-7.4053,36.3015,36.3015,0,0,0,7.7334-11.666A39.383,39.383,0,0,0,344.114,51.5367Z" style="fill: #fff"/>
        <path d="M431.6707,73.9059a27.4486,27.4486,0,0,1-1.6377,9.124,23.4666,23.4666,0,0,1-5.1777,8.4043,26.5361,26.5361,0,0,1-9.1748,6.1055,34.8038,34.8038,0,0,1-13.501,2.3632H373.4744V4.22h25.2969a33.91,33.91,0,0,1,11.1416,1.7676,26.3088,26.3088,0,0,1,8.8476,5.0352,22.3892,22.3892,0,0,1,5.7666,7.8505,24.8984,24.8984,0,0,1,2.0323,10.2051q0,8.2426-3.212,13.6074a25.3682,25.3682,0,0,1-7.7988,8.3721,18.9326,18.9326,0,0,1,5.6367,2.8242,25.62,25.62,0,0,1,5.2432,4.9883,24.9167,24.9167,0,0,1,3.8008,6.7627A23.2083,23.2083,0,0,1,431.6707,73.9059ZM412.9275,30.1852q0-6.3663-4.1289-9.9395t-12.2549-3.5742h-9.9619V46.6871h8.7822a22.062,22.062,0,0,0,8.7813-1.4922,14.4281,14.4281,0,0,0,5.374-3.834,12.8559,12.8559,0,0,0,2.6875-5.2617A24.6672,24.6672,0,0,0,412.9275,30.1852ZM418.04,72.8385a12.49,12.49,0,0,0-4.3261-9.9795q-4.3243-3.7178-11.6651-3.72H386.5818V87.4508h14.1563q8.9121,0,13.1074-3.98Q418.0379,79.4942,418.04,72.8385Z" style="fill: #fff"/>
        <path d="M498.6492,99.9029l-38.667-44.6953V99.9029H446.8748V4.22h30.9336a31.7321,31.7321,0,0,1,12.124,2.2276,28.7946,28.7946,0,0,1,9.3721,6.0957,26.674,26.674,0,0,1,6.0293,8.9785,28.408,28.408,0,0,1,2.0967,10.8789,26.0136,26.0136,0,0,1-2.2286,10.748,28.3017,28.3017,0,0,1-6.0293,8.7158,28.0128,28.0128,0,0,1-8.7158,5.8331,25.95,25.95,0,0,1-10.289,2.0966l35.2578,40.1084Zm-4.8506-67.957a13.435,13.435,0,0,0-1.1133-5.1572,14.66,14.66,0,0,0-3.4082-4.8946,19.3171,19.3171,0,0,0-5.7021-3.7207,20.0725,20.0725,0,0,0-8.126-1.5019H459.9822V49.44h15.2041q8.9121,0,13.7627-4.8945A17.1446,17.1446,0,0,0,493.7986,31.9459Z" style="fill: #fff"/>
        <path d="M526.8269,99.9029V4.22h53.4776V16.6715h-40.37V46.95h39.4531V59.402H539.9344V87.4508h42.8613V99.9029Z" style="fill: #fff"/>
        <path d="M659.865,99.9029,638.5008,67.2662q-.6577-.9154-1.3116-2.0322-.6562-1.1118-1.3105-2.1621-.6577-1.1806-1.4414-2.49a23.1,23.1,0,0,0-1.4424,2.49q-.6562,1.05-1.4414,2.2275-.7866,1.1807-1.4414,2.2285l-21.2344,32.375H593.6736L626.8347,49.44l-29.36-45.22h16.1221l18.3506,28.3115c.3476.6123.7207,1.2022,1.1142,1.77q.5889.8539.9824,1.5068a10.7444,10.7444,0,0,1,.918,1.7041q.3926-.7866.917-1.7041a13.6438,13.6438,0,0,1,.9834-1.6377c.3935-.5674.8066-1.2,1.2451-1.9014L656.5887,4.22h15.0732L642.4324,48.7848l33.293,51.1181Z" style="fill: #fff"/>
        <path d="M750.4344,99.9029,738.9,68.97H708.36L696.826,99.9029H682.9314L719.6326,4.22h8.3887l36.9619,95.6826ZM724.35,29.7789a2.0064,2.0064,0,0,1-.3272-.8516,5.14,5.14,0,0,0-.1963-.8525c-.0888-.3476-.1767-.6553-.2627-.917-.0879.2617-.1757.5694-.2617.917a4.6993,4.6993,0,0,0-.1972.8525,2.4814,2.4814,0,0,1-.1963.7208l-9.9619,26.87h21.3652Z" style="fill: #fff"/>
        <path d="M774.6814,99.9029V85.485h13.6319V99.9029Z" style="fill: #fff"/>
        <path d="M813.2654,115.566a13.7725,13.7725,0,0,1-3.84,4.7188,13.3881,13.3881,0,0,1-5.1631,2.4248,24.357,24.357,0,0,1-5.4649.6552q-2.2295,0-3.2763-.0654a19.6425,19.6425,0,0,1-3.1455-.59V111.9615q2.6235.2609,3.4072.3282a13.9945,13.9945,0,0,0,2.2285-.0655,7.2755,7.2755,0,0,0,1.2451-.1318,5.1966,5.1966,0,0,0,1.376-.458,2.7429,2.7429,0,0,0,1.1143-1.1143,4.4647,4.4647,0,0,0,.4589-2.2285V45.3766h12.583V108.03A16.3743,16.3743,0,0,1,813.2654,115.566Zm-11.06-82.6406V17.8512h12.583V32.9254Z" style="fill: #fff"/>
        <path d="M830.3855,99.9029V4.22h12.583V99.9029Z" style="fill: #fff"/>
      </g>
    </g>
    <line x1="168.9443" y1="126.2149" x2="492.3165" y2="126.2149" style="fill: #fff;stroke: #fff;stroke-width: 8px"/>
  </g>
</svg>
