<svg xmlns="http://www.w3.org/2000/svg" viewBox="0 0 846.7653 134.2581">
  <title>new-logo</title>
  <rect y="-230.8359" width="1200.7789" height="359.3167" style="fill: none"/>
  <g>
    <g>
      <path d="M22.9476,104.6873l-.52-.5606c.16.2055.3077.4139.47.619Z" style="fill: none"/>
      <path d="M59.7065,65.0522c-5.46-6.5265-10.9443-13.0325-16.3856-19.5748-.6168-.7417-1.5189-1.3733-1.6189-2.2745,4.9229-1.53,8.0554.508,10.8311,4.3571,3.2147,4.4578,6.9649,8.5336,10.5386,12.7275,1.9831,2.3272,4.0991,2.57,5.8925.477,5.41-6.3128,10.7148-12.716,16.0117-19.1245a3.23,3.23,0,0,0-.527-5.0743c-1.7222-1.3311-3.4422-.9183-4.895.6321-.4621.4931-.8753,1.0324-1.31,1.5511-3.477,4.15-7.048,8.2267-10.3859,12.486-1.4024,1.7894-2.065,1.4794-3.3163-.0943-3.3691-4.2367-6.9889-8.2744-10.3477-12.5191A6.4994,6.4994,0,0,0,48.29,35.7946c-4.3439.2029-8.7046.0606-13.058.0383-1.8593-.01-3.7939-.1773-4.7822,1.8822-1.0176,2.1207.1792,3.6225,1.4853,5.1685,6.7378,7.9753,13.415,16.0014,20.1376,23.9892.8105.963,1.3179,1.6448.2418,2.9135C42.5784,81.2669,32.92,92.8139,22.9476,104.6873l4.86,5.2437Q43.7265,90.8345,59.75,71.8247C62.1394,68.9764,62.1285,67.9473,59.7065,65.0522Z" style="fill: #b0b2b0"/>
      <path d="M22.8985,104.7457c-.1628-.2051-.3106-.4135-.47-.619l-.0888-.0959.0888.0959C12.1814,90.9519,8.0047,76.396,10.4188,60.0731c5.84-39.49,50.3276-60.7018,84.4288-40.1831,2.8187,1.696,3.9671,1.26,5.9-1.0425,1.8937-2.2559,1.2842-3.0736-.8492-4.3571C84.376,5.1511,67.7089,2.3334,50.2959,7.0381,26.9,13.3593,11.269,28.5207,5.0008,51.911-1.2553,75.2562,4.6283,96.0432,21.44,113.6083c1.4481,1.513,2.1615,1.3608,3.4671-.2086.9638-1.1589,1.9356-2.311,2.9007-3.4687l-4.86-5.2437Z" style="fill: #707175"/>
      <g>
        <path d="M110.9388,34.0574c-.1509-.2022-.2915-.3753-.4281-.5308Z" style="fill: none"/>
        <path d="M129.534,62.6547c-1.4-15.6607-7.9424-28.8684-19.013-39.943-1.2578-1.2583-1.9139-.9924-2.9.2632-.921,1.1732-1.87,2.3243-2.8184,3.4762l5.7077,7.0755c.1366.1555.2772.3286.4281.5308,10.5686,14.17,14.2418,29.9968,10.2077,47.1319a56.35,56.35,0,0,1-83.28,36.0708c-3.8282-2.1814-3.7232-2.0831-6.6879,1.0909-1.58,1.6918-1.3387,2.4276.5373,3.6023,12.28,7.6891,25.5586,11.1822,40.0361,9.8383,19.4348-1.804,34.8737-10.7519,46.2745-26.4663C127.2385,92.6282,130.9311,78.286,129.534,62.6547Z" style="fill: #293078"/>
        <path d="M100.25,31.9306Q86.6019,48.2941,72.951,64.655c-2.7652,3.3271-2.7563,4.267-.08,7.5243,2.5155,3.0618,5.1154,6.054,7.6575,9.0942,3.3839,4.0469,6.7476,8.11,10.2184,12.285-4.8861,1.57-7.8311-.219-10.46-3.8365-3.345-4.6031-7.1784-8.8584-10.9026-13.1762-2.1625-2.5073-4.1366-2.5012-6.3084.0367-5.2159,6.0954-10.3347,12.2741-15.49,18.4217a3.5477,3.5477,0,0,0-.2684,4.7734c1.0743,1.4726,2.6316,1.5243,4.1986,1.1083,1.0773-.2857,1.6708-1.2781,2.3489-2.0852,3.5454-4.2183,7.147-8.3934,10.566-12.7127,1.3052-1.6489,1.9932-2.0946,3.51-.1444,3.4376,4.4218,7.1407,8.6366,10.72,12.9488.875,1.0543,1.705,2.1548,3.2511,2.1574,5.8045.01,11.6113.0988,17.4127-.0376a3.24,3.24,0,0,0,2.7989-4.8091,12.4815,12.4815,0,0,0-1.8566-2.5727Q90.5786,82.0727,80.8443,70.5541c-1.1532-1.3581-1.4968-2.4177-.1929-3.9632Q94.3948,50.2992,107.9828,33.877c1.1044-1.3357,1.7207-1.27,2.5279-.35l-5.7077-7.0755Q102.5389,29.2011,100.25,31.9306Z" style="fill: #1ab5e9"/>
      </g>
    </g>
    <g style="isolation: isolate">
      <g style="isolation: isolate">
        <path d="M237.3556,96.3639a47.766,47.766,0,0,1-22.4786,5.1123,44.5131,44.5131,0,0,1-17.1708-3.4736,47.66,47.66,0,0,1-25.69-25.3623,50.2747,50.2747,0,0,1-4.0635-20.5791,52.7626,52.7626,0,0,1,3.5391-19.3985,48.4207,48.4207,0,0,1,9.83-15.7285A45.1323,45.1323,0,0,1,196.33,6.4479a47.2021,47.2021,0,0,1,19.0713-3.8008q12.9756,0,21.2988,4.0635A42.8652,42.8652,0,0,1,250.7911,17.59l-9.6992,8.65a36.4849,36.4849,0,0,0-11.2725-7.93,34.2784,34.2784,0,0,0-14.1562-2.8184A33.6,33.6,0,0,0,202.49,18.1139a33.219,33.219,0,0,0-10.8789,7.34,34.1389,34.1389,0,0,0-7.34,11.4034,39.7311,39.7311,0,0,0-2.6865,14.9423,38.6183,38.6183,0,0,0,3.1455,16.1875,35.8119,35.8119,0,0,0,8.06,11.4688A33.4077,33.4077,0,0,0,203.67,86.3366a31.8777,31.8777,0,0,0,11.4688,2.2939,38.4132,38.4132,0,0,0,14.4179-3.0146,35.4935,35.4935,0,0,0,13.6319-10.2237l9.4375,8.127A42.464,42.464,0,0,1,237.3556,96.3639Z" style="fill: #6e6f72"/>
        <path d="M357.7452,52.0612A48.7013,48.7013,0,0,1,353.879,71.526a50.3456,50.3456,0,0,1-10.4863,15.6631,48.4065,48.4065,0,0,1-34.5371,14.2871A49.54,49.54,0,0,1,273.99,87.4508,46.9547,46.9547,0,0,1,263.504,71.7877a51.371,51.371,0,0,1-3.8008-19.9883,50.9394,50.9394,0,0,1,3.67-19.4638,47.9262,47.9262,0,0,1,10.1582-15.5977,46.435,46.435,0,0,1,15.4-10.3554A49.339,49.339,0,0,1,308.2,2.6471a52.125,52.125,0,0,1,20.25,3.8008,46.307,46.307,0,0,1,15.5976,10.4863,47.6592,47.6592,0,0,1,10.0928,15.7285A51.9275,51.9275,0,0,1,357.7452,52.0612Zm-13.6318-.5244a38.6413,38.6413,0,0,0-2.6211-14.3516,33.7353,33.7353,0,0,0-7.34-11.4033,34.1186,34.1186,0,0,0-11.3379-7.5371,37.36,37.36,0,0,0-14.4833-2.753,36.0388,36.0388,0,0,0-14.2217,2.753,32.9712,32.9712,0,0,0-11.0752,7.5371,33.7607,33.7607,0,0,0-7.1436,11.4687,40.4,40.4,0,0,0-2.5556,14.5488,37.1273,37.1273,0,0,0,2.8828,14.7452,36.6483,36.6483,0,0,0,7.7988,11.666,35.8731,35.8731,0,0,0,11.3379,7.6679,33.9145,33.9145,0,0,0,13.501,2.752A35.6779,35.6779,0,0,0,322.29,86.0748,33.2307,33.2307,0,0,0,333.4972,78.67a36.3052,36.3052,0,0,0,7.7334-11.6661A39.3825,39.3825,0,0,0,344.1134,51.5368Z" style="fill: #6e6f72"/>
        <path d="M431.67,73.9059a27.4486,27.4486,0,0,1-1.6377,9.124,23.4629,23.4629,0,0,1-5.1777,8.4043A26.5361,26.5361,0,0,1,415.68,97.54a34.8034,34.8034,0,0,1-13.501,2.3633H373.4737V4.22h25.2969a33.9091,33.9091,0,0,1,11.1416,1.7676,26.312,26.312,0,0,1,8.8477,5.0352,22.3911,22.3911,0,0,1,5.7666,7.8506,24.8979,24.8979,0,0,1,2.0322,10.205q0,8.2428-3.2119,13.6075a25.3661,25.3661,0,0,1-7.7989,8.372,18.9323,18.9323,0,0,1,5.6368,2.8243,25.6161,25.6161,0,0,1,5.2431,4.9882,24.9182,24.9182,0,0,1,3.8008,6.7627A23.2065,23.2065,0,0,1,431.67,73.9059ZM412.9269,30.1852q0-6.3663-4.129-9.9395t-12.2548-3.5742h-9.9619V46.6871h8.7822a22.0616,22.0616,0,0,0,8.7812-1.4921,14.43,14.43,0,0,0,5.3741-3.834,12.8577,12.8577,0,0,0,2.6875-5.2617A24.6736,24.6736,0,0,0,412.9269,30.1852Zm5.1123,42.6533a12.49,12.49,0,0,0-4.3262-9.9795q-4.3242-3.7178-11.6651-3.72H386.5812V87.4508h14.1562q8.9121,0,13.1074-3.98Q418.0372,79.4944,418.0392,72.8385Z" style="fill: #6e6f72"/>
        <path d="M498.6485,99.903l-38.667-44.6954V99.903H446.8741V4.22h30.9336a31.7318,31.7318,0,0,1,12.124,2.2276,28.7946,28.7946,0,0,1,9.3721,6.0957,26.674,26.674,0,0,1,6.0293,8.9785A28.408,28.408,0,0,1,507.43,32.401a26.0159,26.0159,0,0,1-2.2285,10.7481,28.3057,28.3057,0,0,1-6.0293,8.7158,28.0165,28.0165,0,0,1-8.7158,5.833,25.9513,25.9513,0,0,1-10.2891,2.0967L515.4249,99.903Zm-4.8506-67.9571a13.4347,13.4347,0,0,0-1.1132-5.1572,14.6618,14.6618,0,0,0-3.4082-4.8945,19.317,19.317,0,0,0-5.7022-3.7207,20.0721,20.0721,0,0,0-8.126-1.502H459.9815V49.44h15.2041q8.9121,0,13.7627-4.8946A17.1442,17.1442,0,0,0,493.7979,31.9459Z" style="fill: #6e6f72"/>
        <path d="M526.8263,99.903V4.22h53.4775V16.6715h-40.37V46.95h39.4531V59.402H539.9337V87.4508H582.795V99.903Z" style="fill: #6e6f72"/>
        <path d="M659.8644,99.903,638.5,67.2662q-.6577-.9154-1.3115-2.0322-.6562-1.1118-1.3106-2.1621-.6578-1.1806-1.4414-2.49a23.1156,23.1156,0,0,0-1.4424,2.49q-.6562,1.05-1.4414,2.2275-.7866,1.1808-1.4414,2.2286L608.877,99.903H593.6729L626.8341,49.44l-29.36-45.22h16.1221l18.3506,28.3116c.3476.6123.7207,1.2021,1.1142,1.77q.5889.8539.9825,1.5068a10.7521,10.7521,0,0,1,.9179,1.7041q.3927-.7866.917-1.7041a13.6648,13.6648,0,0,1,.9834-1.6377c.3936-.5673.8067-1.2,1.2451-1.9013L656.588,4.22h15.0732l-29.23,44.5645,33.293,51.1182Z" style="fill: #6e6f72"/>
        <path d="M750.4337,99.903,738.9,68.97H708.36L696.8253,99.903H682.9308L719.6319,4.22h8.3887L764.9825,99.903ZM724.35,29.7789a2.005,2.005,0,0,1-.3271-.8515,5.1593,5.1593,0,0,0-.1963-.8526c-.0889-.3476-.1768-.6552-.2627-.917-.0879.2618-.1758.5694-.2617.917a4.6984,4.6984,0,0,0-.1973.8526,2.4774,2.4774,0,0,1-.1963.7207l-9.9619,26.87h21.3652Z" style="fill: #6e6f72"/>
        <path d="M774.6808,99.903V85.485h13.6318V99.903Z" style="fill: #6e6f72"/>
        <path d="M813.2647,115.566a13.7716,13.7716,0,0,1-3.84,4.7188,13.3881,13.3881,0,0,1-5.1631,2.4248,24.3571,24.3571,0,0,1-5.4648.6553q-2.23,0-3.2764-.0655a19.631,19.631,0,0,1-3.1455-.59v-10.748q2.6235.2607,3.4072.3281a14.0041,14.0041,0,0,0,2.2285-.0654,7.2677,7.2677,0,0,0,1.2452-.1319,5.1972,5.1972,0,0,0,1.3759-.458,2.7417,2.7417,0,0,0,1.1143-1.1143,4.4633,4.4633,0,0,0,.459-2.2285V45.3766h12.583V108.03A16.3729,16.3729,0,0,1,813.2647,115.566ZM802.2052,32.9254V17.8512h12.583V32.9254Z" style="fill: #6e6f72"/>
        <path d="M830.3849,99.903V4.22h12.583V99.903Z" style="fill: #6e6f72"/>
      </g>
    </g>
    <line x1="168.9443" y1="126.2149" x2="492.3165" y2="126.2149" style="fill: none;stroke: #6e6f72;stroke-width: 8px"/>
  </g>
</svg>
