<svg xmlns="http://www.w3.org/2000/svg" viewBox="0 0 469.0243 73.5502">
  <title>cobrexa</title>
  <g>
    <path d="M35.9118,68.7843A37.4981,37.4981,0,0,1,23.49,66.798a25.7336,25.7336,0,0,1-16.13-15.7246,37.8209,37.8209,0,0,1-2.25-13.5762,37.4205,37.4205,0,0,1,2.148-13.01A27.79,27.79,0,0,1,13.5,14.4777a26.4455,26.4455,0,0,1,9.7471-6.2012A35.7912,35.7912,0,0,1,35.9524,6.088a50.12,50.12,0,0,1,6.8691.4258,47.5887,47.5887,0,0,1,5.6538,1.1143A40.24,40.24,0,0,1,53.4,9.3507q2.2083.9522,3.87,1.7627v14.63H55.4865q-1.1352-.9668-2.8574-2.2978a37.887,37.887,0,0,0-3.9106-2.6211,27.1577,27.1577,0,0,0-4.8228-2.1778,17.0631,17.0631,0,0,0-5.5522-.8867,18.8216,18.8216,0,0,0-6.2412,1.0313,15.19,15.19,0,0,0-5.4712,3.4179,16.7734,16.7734,0,0,0-3.87,6.1065,25.473,25.473,0,0,0-1.4794,9.2217,24.4646,24.4646,0,0,0,1.6005,9.4638,16.4781,16.4781,0,0,0,4.0328,5.9854,14.7319,14.7319,0,0,0,5.5117,3.1748,20.0153,20.0153,0,0,0,5.998.9512,19.1461,19.1461,0,0,0,5.6128-.8467,21.8364,21.8364,0,0,0,5.127-2.2989,33.8712,33.8712,0,0,0,3.688-2.5q1.7021-1.33,2.7963-2.2978H57.27V63.5968q-2.27,1.0122-4.3364,1.9043a35.5376,35.5376,0,0,1-4.3364,1.54,52.3044,52.3044,0,0,1-5.5523,1.2968A44.3961,44.3961,0,0,1,35.9118,68.7843Z" style="fill: #252525"/>
    <path d="M127.382,37.4562q0,14.4286-8.2675,22.918-8.2677,8.4917-22.8575,8.49-14.55,0-22.8169-8.49t-8.2675-22.918q0-14.5488,8.2675-22.999T96.257,6.007q14.5078,0,22.8169,8.45Q127.381,22.9064,127.382,37.4562ZM106.7536,52.7355a18.0657,18.0657,0,0,0,3.3638-6.5049,31.6257,31.6257,0,0,0,1.0942-8.8154,29.745,29.745,0,0,0-1.2563-9.24,17.9524,17.9524,0,0,0-3.2827-6.16,12.2909,12.2909,0,0,0-4.7622-3.5254,15.1106,15.1106,0,0,0-11.1856-.041,13.06,13.06,0,0,0-4.8022,3.4863,17.1528,17.1528,0,0,0-3.3033,6.2608,30.4681,30.4681,0,0,0-1.2763,9.2607,29.8032,29.8032,0,0,0,1.2363,9.18,18.142,18.142,0,0,0,3.2622,6.18,12.4575,12.4575,0,0,0,4.7417,3.5263,14.66,14.66,0,0,0,5.7144,1.1348,14.4427,14.4427,0,0,0,5.7143-1.1553A12.5037,12.5037,0,0,0,106.7536,52.7355Z" style="fill: #252525"/>
    <path d="M190.8884,49.1281a16.9323,16.9323,0,0,1-1.7627,7.8222,16.1312,16.1312,0,0,1-4.8433,5.7139,22.6235,22.6235,0,0,1-7.8423,3.81,43.1916,43.1916,0,0,1-10.8408,1.1348H139.2565V7.2628h23.4249a83.3265,83.3265,0,0,1,10.6787.4864,21.9446,21.9446,0,0,1,6.7075,2.1484,11.8847,11.8847,0,0,1,5.1264,4.6807,13.2635,13.2635,0,0,1,1.6822,6.708,13.2445,13.2445,0,0,1-2.31,7.72,15.1348,15.1348,0,0,1-6.5249,5.208v.3242a17.0169,17.0169,0,0,1,9.3823,4.8633A13.6306,13.6306,0,0,1,190.8884,49.1281ZM170.9489,24.3253a6.6558,6.6558,0,0,0-.75-2.999,4.6663,4.6663,0,0,0-2.6543-2.2295,12.8972,12.8972,0,0,0-4.2353-.709q-2.5328-.06-7.1123-.06h-1.459V31.0929H157.17q3.687,0,6.2818-.1211a11.2578,11.2578,0,0,0,4.0932-.8105,5.0119,5.0119,0,0,0,2.7559-2.4111A8.4769,8.4769,0,0,0,170.9489,24.3253Zm3.7691,24.56a7.5665,7.5665,0,0,0-1.1128-4.4375,6.7435,6.7435,0,0,0-3.7808-2.331,19.7184,19.7184,0,0,0-5.0151-.5664q-3.1956-.0411-6.6738-.0411H154.738V56.5441H155.87q6.5523,0,9.3833-.04a13.7114,13.7114,0,0,0,5.2178-1.0538,6.3757,6.3757,0,0,0,3.3364-2.6953A7.9972,7.9972,0,0,0,174.718,48.8849Z" style="fill: #252525"/>
    <path d="M260.5959,67.6086H241.5881L225.17,45.4806h-7.2094v22.128H202.4792V7.2628h26.0991a60,60,0,0,1,9.2012.6084,19.8582,19.8582,0,0,1,7.2129,2.6338,15.7429,15.7429,0,0,1,5.41,5.2491,15.0359,15.0359,0,0,1,2.0059,8.0849q0,6.687-3.1,10.9024a23.3985,23.3985,0,0,1-8.8555,7.0107ZM236.3205,25.7433a7.6851,7.6851,0,0,0-.9336-3.8906A6.2479,6.2479,0,0,0,232.1857,19.3a11.7993,11.7993,0,0,0-3.6875-.79q-2.1093-.1421-4.9042-.1416h-5.6333v16.251h4.7822a44.7363,44.7363,0,0,0,6.2417-.3643,8.9493,8.9493,0,0,0,4.2148-1.6621,8.099,8.099,0,0,0,2.3711-2.7763A9.3117,9.3117,0,0,0,236.3205,25.7433Z" style="fill: #252525"/>
    <path d="M311.051,67.6086H267.4035V7.2628H311.051V18.9347H282.885v10.416h26.1406V41.0226H282.885V55.9367h28.166Z" style="fill: #252525"/>
    <path d="M464.9738,67.6086H448.9025l-4.2041-12.1993h-22.331l-4.2041,12.1993H402.4807l22.29-60.3458h17.9131ZM440.9572,44.3459l-7.4238-21.6192-7.4258,21.6192Z" style="fill: #252525"/>
  </g>
  <g>
    <path d="M358.0573,57.0955l3.7726-5.0271,1.9267-2.5674,3.4006-4.5313a1.6715,1.6715,0,0,0,.0055-1.9992l-1.6166-2.1786a1.6713,1.6713,0,0,0-2.6741-.0137l-2.2026,2.9058-2.5574,3.3738L354.3281,52.05l-6.5405,8.6286a1.6714,1.6714,0,0,1-1.332.6618H332.3573l12.1906-15.9982a1.6712,1.6712,0,0,0,.0148-2.0063l-1.5618-2.1133a1.6714,1.6714,0,0,0-2.6786-.0128l-17.6969,23.47A1.6714,1.6714,0,0,0,323.96,67.357h25.5612a1.6715,1.6715,0,0,0,1.3368-.6682l1.42-1.8925Z" style="fill: #b890c2;stroke: #a673b1;stroke-linejoin: round"/>
    <path d="M362.349,21.9811h0l6.44-8.4521a1.6714,1.6714,0,0,1,1.3294-.6583H384.026l-11.95,15.7655a1.6713,1.6713,0,0,0-.0128,2.0022l1.5669,2.1227a1.6713,1.6713,0,0,0,2.6815.0106l5.7607-7.6761L393.7545,9.5284a1.6714,1.6714,0,0,0-1.3368-2.6746H367.06a1.6714,1.6714,0,0,0-1.3345.6651l-7.1007,9.4171-8.9708,11.8972-.1218.1615a1.6713,1.6713,0,0,0-.0077,2.0022l1.613,2.1739a1.6713,1.6713,0,0,0,2.6716.0171l4.7749-6.2662,3.7647-4.9406" style="fill: #df796f;stroke: #d75544;stroke-miterlimit: 10"/>
    <path d="M365.9009,36.7823h0L369.58,41.741,384.1229,61.34H369.5505a1.6714,1.6714,0,0,1-1.3422-.6755l-3.3815-4.5572a1.6713,1.6713,0,0,0-2.679-.0073l-1.6844,2.2445a1.6712,1.6712,0,0,0-.0073,1.9966l4.684,6.3378a1.6713,1.6713,0,0,0,1.3441.678H392.531a1.6714,1.6714,0,0,0,1.3447-2.664l-20.588-27.8923h0l-3.6512-4.9466-4.31-5.8388a1.6714,1.6714,0,0,0-2.6741-.02l-1.6479,2.1626a1.6715,1.6715,0,0,0-.0128,2.009Z" style="fill: #7e96cd;stroke: #5b78bb;stroke-miterlimit: 10"/>
    <path d="M350.7751,37.17l-3.6736-4.951L332.7451,12.8707h14.5722a1.6715,1.6715,0,0,1,1.3423.6754l3.2178,4.3367a1.6714,1.6714,0,0,0,2.6768.01l1.6634-2.2061a1.6712,1.6712,0,0,0,.01-1.9988l-4.5436-6.1556a1.6713,1.6713,0,0,0-1.3447-.6788h-26.1a1.6713,1.6713,0,0,0-1.3441,2.6647L343.35,37.1947l3.6467,4.9343,2.6848,3.6328,1.0347,1.4.6043.8176.0244.033a1.6714,1.6714,0,0,0,2.6761.0163l1.6744-2.209a1.6715,1.6715,0,0,0,.01-2.0056l-4.93-6.6442Z" style="fill: #71b964;stroke: #49a648;stroke-miterlimit: 10"/>
  </g>
</svg>
