<svg xmlns="http://www.w3.org/2000/svg" viewBox="0 0 176.4426 148.4338">
  <title>cobrexa</title>
  <line x1="69.5239" y1="140.1331" x2="69.5239" y2="140.1331" style="fill: none"/>
  <g>
    <path d="M87.7693,122.2541l9.0657-12.08,4.63-6.17,8.1718-10.889a4.0163,4.0163,0,0,0,.0131-4.8041l-3.8846-5.2353a4.0164,4.0164,0,0,0-6.4262-.0329l-5.2929,6.9826L87.9007,98.133l-9.0928,11.9957L63.0907,130.8638a4.0165,4.0165,0,0,1-3.2008,1.59H26.011L55.3056,94.01a4.0162,4.0162,0,0,0,.0354-4.8214L51.588,84.11a4.0164,4.0164,0,0,0-6.4369-.0309L2.6247,140.4784a4.0163,4.0163,0,0,0,3.2069,6.4344H67.2564a4.0164,4.0164,0,0,0,3.2124-1.6056l3.4128-4.5477Z" style="fill: #b890c2;stroke: #a673b1;stroke-linejoin: round"/>
    <path d="M98.0825,37.8725h0l15.4768-20.3106a4.0161,4.0161,0,0,1,3.1946-1.5821h33.4192L121.4561,53.865a4.0163,4.0163,0,0,0-.0307,4.8113l3.7652,5.1011a4.0164,4.0164,0,0,0,6.4438.0256l13.8432-18.4463L173.5513,7.9481a4.0164,4.0164,0,0,0-3.2124-6.4272h-60.935a4.0163,4.0163,0,0,0-3.2069,1.5983l-17.0633,22.63-21.5572,28.59-.2928.3883a4.0163,4.0163,0,0,0-.0186,4.8113l3.8762,5.2239a4.0164,4.0164,0,0,0,6.42.0411L89.0356,49.7449l9.0468-11.8724" style="fill: #df796f;stroke: #d75544;stroke-miterlimit: 10"/>
    <path d="M106.6178,73.44h0l8.8417,11.916,34.9466,47.0975H115.388a4.0165,4.0165,0,0,1-3.2254-1.6231L104.0367,119.88a4.0163,4.0163,0,0,0-6.4378-.0175l-4.0477,5.3936a4.0164,4.0164,0,0,0-.0176,4.7979l11.2558,15.23a4.0164,4.0164,0,0,0,3.23,1.6292h62.5917a4.0163,4.0163,0,0,0,3.2314-6.4015L124.3686,73.4848h0l-8.774-11.8869L105.238,47.5669a4.0163,4.0163,0,0,0-6.426-.0491l-3.96,5.1968a4.0165,4.0165,0,0,0-.0308,4.8276Z" style="fill: #7e96cd;stroke: #5b78bb;stroke-miterlimit: 10"/>
    <path d="M70.27,74.3718,61.4418,62.4742,26.9429,15.98H61.9606a4.0164,4.0164,0,0,1,3.2255,1.6231l7.7326,10.4213a4.0164,4.0164,0,0,0,6.4323.0248l3.9974-5.3014a4.0164,4.0164,0,0,0,.0246-4.8033L72.4545,3.1521a4.0165,4.0165,0,0,0-3.2314-1.6312H6.5031a4.0163,4.0163,0,0,0-3.23,6.4035L52.4257,74.4315,61.189,86.2889l6.4517,8.73,2.4863,3.3642,1.4521,1.9648.0587.0794a4.0163,4.0163,0,0,0,6.4307.0391l4.0238-5.3084a4.0163,4.0163,0,0,0,.0247-4.8194L70.27,74.3718Z" style="fill: #71b964;stroke: #49a648;stroke-miterlimit: 10"/>
  </g>
</svg>
