<svg width="117" height="117" xmlns="http://www.w3.org/2000/svg" xmlns:xlink="http://www.w3.org/1999/xlink" overflow="hidden"><defs><clipPath id="clip0"><rect x="-1" y="-1" width="117" height="117"/></clipPath></defs><g clip-path="url(#clip0)" transform="translate(1 1)"><path d="M0 100.5C-3.69209e-15 92.4919 6.49187 86 14.5 86 22.5081 86 29 92.4919 29 100.5 29 108.508 22.5081 115 14.5 115 6.49187 115-5.53813e-15 108.508 0 100.5Z" fill="#CB3C33" fill-rule="evenodd"/><path d="M86 100.5C86 92.4919 92.4919 86 100.5 86 108.508 86 115 92.4919 115 100.5 115 108.508 108.508 115 100.5 115 92.4919 115 86 108.508 86 100.5Z" fill="#9558B2" fill-rule="evenodd"/><path d="M1.32888-1.49469 29.8614 23.8727 27.2037 26.8621-1.32888 1.49469ZM31.0245 19.5544 36.006 32.0118 23.0512 28.5226Z" transform="matrix(-1 -8.74228e-08 -8.74228e-08 1 61.006 60)"/><path d="M60 5 60.0001 38.3577 56.0001 38.3577 56 5ZM64.0001 36.3577 58.0001 48.3577 52.0001 36.3577Z"/><path d="M64.715 69.2453 85.856 87.08 85.4261 87.5896 64.2851 69.7548ZM87.2012 83.4176 90.7367 91.6335 82.0427 89.5324Z"/><path d="M43 14.5C43 6.49187 49.4919 0 57.5 0 65.5081-3.69209e-15 72 6.49187 72 14.5 72 22.5081 65.5081 29 57.5 29 49.4919 29 43 22.5081 43 14.5Z" fill="#4063D8" fill-rule="evenodd"/><path d="M43 63.5C43 55.4919 49.4919 49 57.5 49 65.5081 49 72 55.4919 72 63.5 72 71.5081 65.5081 78 57.5 78 49.4919 78 43 71.5081 43 63.5Z" fill="#389826" fill-rule="evenodd"/></g></svg>