<svg width="96" height="163" xmlns="http://www.w3.org/2000/svg" xmlns:xlink="http://www.w3.org/1999/xlink" overflow="hidden"><defs><clipPath id="clip0"><rect x="0" y="0" width="96" height="163"/></clipPath></defs><g clip-path="url(#clip0)"><rect x="0" y="0" width="95.9019" height="162.834" fill="#FFFFFF" transform="scale(1.00102 1)"/><path d="M0 9.4903C-2.54367e-15 4.24895 4.47258 0 9.98979 0 15.507-2.41648e-15 19.9796 4.24895 19.9796 9.4903 19.9796 14.7316 15.507 18.9806 9.98979 18.9806 4.47258 18.9806-3.8155e-15 14.7316 0 9.4903Z" fill="#389826" fill-rule="evenodd" transform="matrix(1.00102 0 -0 1 38 74.9234)"/><path d="M0 9.4903C-2.41648e-15 4.24895 4.24895 0 9.4903 0 14.7316-2.41648e-15 18.9806 4.24895 18.9806 9.4903 18.9806 14.7316 14.7316 18.9806 9.4903 18.9806 4.24895 18.9806-3.62472e-15 14.7316 0 9.4903Z" fill="#CB3C33" fill-rule="evenodd" transform="matrix(1.00102 0 -0 1 5 140.856)"/><path d="M0 9.4903C-2.41648e-15 4.24895 4.24895 0 9.4903 0 14.7316-2.41648e-15 18.9806 4.24895 18.9806 9.4903 18.9806 14.7316 14.7316 18.9806 9.4903 18.9806 4.24895 18.9806-3.62472e-15 14.7316 0 9.4903Z" fill="#9558B2" fill-rule="evenodd" transform="matrix(1.00102 0 -0 1 70 140.856)"/><path d="M0 9.4903C-2.54367e-15 4.24895 4.47258 0 9.98979 0 15.507-2.41648e-15 19.9796 4.24895 19.9796 9.4903 19.9796 14.7316 15.507 18.9806 9.98979 18.9806 4.47258 18.9806-3.8155e-15 14.7316 0 9.4903Z" fill="#4063D8" fill-rule="evenodd" transform="matrix(1.00102 0 -0 1 38 3.99591)"/><path d="M1.99796-4.08753e-06 1.99804 41.2746-1.99787 41.2747-1.99796 4.08753e-06ZM5.99395 39.2767 0.00010488 51.2644-5.99379 39.2767Z" transform="matrix(1.00102 0 -0 1 48 22.9765)"/><path d="M-1.76081 0.944134-23.5074-39.6131-19.9857-41.5014 1.76081-0.944134ZM-26.0848-35.964-26.4672-49.3613-15.52-41.6288Z" transform="matrix(1.00102 8.75122e-08 8.74228e-08 -1 41.4943 90.9071)"/><path d="M0.297651-0.149293 22.07 43.259 21.4747 43.5576-0.297651 0.149293ZM24.747 40.4262 24.7582 49.3613 17.6034 44.0092Z" transform="matrix(1.00102 0 -0 1 55.5001 91.4066)"/></g></svg>