<?xml version="1.0" encoding="UTF-8" standalone="no"?>
<svg
   width="63.999992"
   height="64"
   viewBox="0 0 16.933332 16.933332"
   version="1.1"
   id="svg3620"
   inkscape:version="1.1.1 (3bf5ae0d25, 2021-09-20)"
   sodipodi:docname="permedcoe.svg"
   xmlns:inkscape="http://www.inkscape.org/namespaces/inkscape"
   xmlns:sodipodi="http://sodipodi.sourceforge.net/DTD/sodipodi-0.dtd"
   xmlns="http://www.w3.org/2000/svg"
   xmlns:svg="http://www.w3.org/2000/svg"
   xmlns:rdf="http://www.w3.org/1999/02/22-rdf-syntax-ns#"
   xmlns:cc="http://creativecommons.org/ns#"
   xmlns:dc="http://purl.org/dc/elements/1.1/">
  <defs
     id="defs3614" />
  <sodipodi:namedview
     id="base"
     pagecolor="#ffffff"
     bordercolor="#666666"
     borderopacity="1.0"
     inkscape:pageopacity="0.0"
     inkscape:pageshadow="2"
     inkscape:zoom="1.9694257"
     inkscape:cx="89.873916"
     inkscape:cy="146.48941"
     inkscape:document-units="mm"
     inkscape:current-layer="layer1"
     inkscape:document-rotation="0"
     showgrid="false"
     inkscape:window-width="1920"
     inkscape:window-height="1166"
     inkscape:window-x="0"
     inkscape:window-y="2194"
     inkscape:window-maximized="1"
     fit-margin-top="0"
     fit-margin-left="0"
     fit-margin-right="0"
     fit-margin-bottom="0"
     inkscape:pagecheckerboard="0"
     units="px" />
  <metadata
     id="metadata3617">
    <rdf:RDF>
      <cc:Work
         rdf:about="">
        <dc:format>image/svg+xml</dc:format>
        <dc:type
           rdf:resource="http://purl.org/dc/dcmitype/StillImage" />
      </cc:Work>
    </rdf:RDF>
  </metadata>
  <g
     inkscape:label="Layer 1"
     inkscape:groupmode="layer"
     id="layer1"
     transform="translate(-6.9223071,-92.357376)">
    <path
       d="M 23.855638,109.29071 H 6.9223071 V 92.357376 H 23.855638 Z"
       style="fill:#001982;fill-opacity:1;fill-rule:nonzero;stroke:none;stroke-width:0.181022"
       id="path512" />
    <path
       d="m 9.5337833,103.49053 c 0.015568,0.0836 0.096304,0.13885 0.1801167,0.12328 0.083813,-0.0157 0.1390248,-0.0961 0.1234567,-0.17976 -0.086709,-0.46703 -0.062995,-0.351 -0.062995,-4.535141 0,-0.466493 0.086709,-0.937874 0.2709893,-1.390791 0.03204,-0.07892 -0.006,-0.168711 -0.085081,-0.200752 -0.078925,-0.03202 -0.168893,0.0058 -0.2009341,0.08472 -0.1998482,0.490929 -0.2936171,1.002316 -0.2936171,1.506824 0,4.02991 -0.026791,4.08693 0.068064,4.59162"
       style="fill:#e0b9bd;fill-opacity:1;fill-rule:nonzero;stroke:none;stroke-width:0.181022"
       id="path516" />
    <path
       d="m 12.185374,95.930929 c -1.159264,0.504148 -1.947796,1.653635 -1.947796,2.968038 V 100.44 c 0,0.0851 0.06915,0.15405 0.154231,0.15405 0.08526,0 0.154412,-0.069 0.154412,-0.15405 v -1.541033 c 0,-1.189316 0.713407,-2.229107 1.76261,-2.685463 0.07802,-0.03403 0.113863,-0.124904 0.07983,-0.202925 -0.03403,-0.07802 -0.125086,-0.113683 -0.203287,-0.07965"
       style="fill:#e0b9bd;fill-opacity:1;fill-rule:nonzero;stroke:none;stroke-width:0.181022"
       id="path520" />
    <path
       d="m 11.490467,105.30738 c 0.06734,0.0523 0.164368,0.0402 0.216683,-0.027 0.05232,-0.0673 0.04019,-0.16401 -0.02716,-0.21633 -0.70689,-0.54904 -1.133559,-1.39224 -1.13374,-2.31255 v -1.54105 c 0,-0.0851 -0.06915,-0.15404 -0.154411,-0.15404 -0.08526,0 -0.154231,0.069 -0.154231,0.15404 v 1.54105 c -1.81e-4,1.01644 0.472286,1.94996 1.252852,2.55584"
       style="fill:#e0b9bd;fill-opacity:1;fill-rule:nonzero;stroke:none;stroke-width:0.181022"
       id="path524" />
    <path
       d="m 13.27098,94.897295 c -1.224613,0.06498 -2.405238,0.68734 -3.137291,1.787411 -0.04724,0.07096 -0.02788,0.166537 0.04308,0.213606 0.07114,0.04705 0.166902,0.02786 0.213968,-0.0431 0.673401,-1.01191 1.756274,-1.584844 2.880239,-1.649288 z"
       style="fill:#e0b9bd;fill-opacity:1;fill-rule:nonzero;stroke:none;stroke-width:0.181022"
       id="path528" />
    <path
       d="m 13.27098,95.670095 c -0.102458,0.0067 -0.205822,0.0172 -0.309547,0.03385 -0.08418,0.01339 -0.141559,0.0925 -0.127983,0.176496 0.01358,0.08399 0.09268,0.141197 0.176859,0.127801 0.08743,-0.01394 0.174324,-0.02299 0.260671,-0.02915 z"
       style="fill:#e0b9bd;fill-opacity:1;fill-rule:nonzero;stroke:none;stroke-width:0.181022"
       id="path532" />
    <path
       d="m 12.67187,103.36219 c 0.125991,0.22283 0.342132,0.38847 0.599183,0.44748 v -0.32059 c -0.148438,-0.0532 -0.270628,-0.16129 -0.34177,-0.29977 -0.04308,-0.0838 -0.332899,0.0391 -0.257413,0.17288"
       style="fill:#e0b9bd;fill-opacity:1;fill-rule:nonzero;stroke:none;stroke-width:0.181022"
       id="path536" />
    <path
       d="m 13.27098,104.90026 c -1.08595,-0.10554 -1.953226,-1.01844 -1.952864,-2.14873 1.81e-4,-0.76066 0.61638,-1.38681 1.389343,-1.387 0.200391,1.9e-4 0.390826,0.0435 0.563521,0.1202 v -0.33163 c -0.364397,-0.12907 -0.778032,-0.13667 -1.180987,0.0206 v -2.274723 c 3.71e-4,-0.715939 0.531843,-1.2724 1.180987,-1.371603 v -0.311898 c -0.818581,0.101369 -1.489629,0.798666 -1.489629,1.680966 v 2.435288 c -0.181927,0.11839 -0.339235,0.27063 -0.463778,0.44767 -0.0024,-1.960287 -0.01122,-2.771449 0.01376,-3.109412 0.07241,-0.939686 0.871439,-1.816737 1.93965,-1.918472 v -0.309547 c -1.032911,0.08616 -1.881542,0.805368 -2.162306,1.762427 -0.135043,0.454368 -0.09938,0.347202 -0.09938,4.547094 3.7e-4,1.12396 0.751964,2.06763 1.774376,2.36649 0.163101,0.0478 0.32602,0.0771 0.487311,0.0911 z"
       style="fill:#e0b9bd;fill-opacity:1;fill-rule:nonzero;stroke:none;stroke-width:0.181022"
       id="path540" />
    <path
       d="m 13.27098,97.998706 c -0.410195,0.09431 -0.716304,0.459613 -0.717752,0.897324 -1.81e-4,0.06843 -1.81e-4,1.4232 -1.81e-4,1.54394 0,0.0851 0.06915,0.15404 0.154412,0.15404 0.08526,0 0.154411,-0.069 0.154411,-0.15404 v -1.541046 c 1.82e-4,-0.284382 0.181204,-0.494731 0.40911,-0.577458 z"
       style="fill:#e0b9bd;fill-opacity:1;fill-rule:nonzero;stroke:none;stroke-width:0.181022"
       id="path544" />
    <path
       d="m 13.27098,105.67393 c -0.320047,-0.0228 -0.644257,-0.0985 -0.962131,-0.23678 -0.0782,-0.034 -0.169256,0.002 -0.203288,0.0797 -0.03403,0.078 0.0016,0.16889 0.07983,0.20274 0.358966,0.15623 0.724993,0.2404 1.085588,0.26357 z"
       style="fill:#e0b9bd;fill-opacity:1;fill-rule:nonzero;stroke:none;stroke-width:0.181022"
       id="path548" />
    <path
       d="m 13.27098,106.44151 c -1.356035,-0.0798 -2.653057,-0.89225 -3.225629,-2.29916 -0.03222,-0.0787 -0.1221897,-0.11676 -0.2012964,-0.0847 -0.078926,0.032 -0.1169397,0.12183 -0.084899,0.20076 0.6205424,1.52601 2.0348664,2.41067 3.5118244,2.49231 z"
       style="fill:#e0b9bd;fill-opacity:1;fill-rule:nonzero;stroke:none;stroke-width:0.181022"
       id="path552" />
    <path
       d="m 12.489436,102.42129 c -0.184462,0 -0.334528,0.14971 -0.334528,0.33398 0,0.1841 0.150066,0.33399 0.334528,0.33399 0.184642,0 0.334709,-0.14989 0.334709,-0.33399 0,-0.18427 -0.150067,-0.33398 -0.334709,-0.33398 m 0,0.97879 c -0.35607,0 -0.645705,-0.28928 -0.645705,-0.64481 0,-0.35552 0.289635,-0.64479 0.645705,-0.64479 0.35607,0 0.645886,0.28927 0.645886,0.64479 0,0.35553 -0.289816,0.64481 -0.645886,0.64481"
       style="fill:#e0b9bd;fill-opacity:1;fill-rule:nonzero;stroke:none;stroke-width:0.181022"
       id="path556" />
    <path
       d="m 14.99449,96.865652 c 0.0181,0.0062 0.05232,0.01125 0.102096,0.01574 0.04996,0.0046 0.08399,0.0069 0.102096,0.0069 0.06662,0 0.130155,-0.009 0.190797,-0.02714 0.06064,-0.01812 0.114225,-0.04906 0.16111,-0.09305 0.04688,-0.04362 0.08399,-0.104084 0.111328,-0.181202 0.02715,-0.07711 0.04091,-0.174506 0.04091,-0.292349 0,-0.09974 -0.01303,-0.1841 -0.03874,-0.253794 -0.0257,-0.06933 -0.06046,-0.124542 -0.10445,-0.165454 -0.04381,-0.04073 -0.09449,-0.07024 -0.152058,-0.08834 -0.05738,-0.0181 -0.118026,-0.02715 -0.181565,-0.02715 -0.09377,0 -0.171065,0.0076 -0.231527,0.02262 z m -0.57203,-1.536515 c 0.108975,-0.02408 0.22845,-0.04308 0.358786,-0.05648 0.129973,-0.01357 0.260128,-0.02045 0.390464,-0.02045 0.139025,0 0.275877,0.01286 0.410738,0.03856 0.134681,0.02569 0.254879,0.07621 0.360958,0.151696 0.105898,0.07567 0.192064,0.182107 0.258681,0.319503 0.06662,0.137578 0.09992,0.316608 0.09992,0.537093 0,0.199486 -0.02806,0.368737 -0.084,0.507582 -0.05593,0.139028 -0.130878,0.252347 -0.224648,0.339961 -0.09395,0.0878 -0.202201,0.151153 -0.324572,0.190434 -0.122733,0.03931 -0.249086,0.05884 -0.379241,0.05884 h -0.05901 c -0.02716,0 -0.05594,-5.29e-4 -0.08617,-0.0021 -0.03041,-0.0016 -0.05992,-0.0036 -0.0887,-0.0069 -0.0286,-0.0031 -0.04906,-0.006 -0.06119,-0.009 v 1.092284 h -0.57203 z"
       style="fill:#ffffff;fill-opacity:1;fill-rule:nonzero;stroke:none;stroke-width:0.181022"
       id="path560" />
    <path
       d="m 17.408054,96.602772 c -0.114949,0 -0.201296,0.04598 -0.258861,0.138301 -0.05757,0.09214 -0.09069,0.22121 -0.09974,0.387389 h 0.626336 c 0.0092,-0.172156 -0.0091,-0.30285 -0.05431,-0.392093 -0.04544,-0.08907 -0.116578,-0.133597 -0.213425,-0.133597 m 0.708158,1.699615 c -0.07567,0.06644 -0.178669,0.12074 -0.308642,0.1631 -0.130155,0.04218 -0.266464,0.06354 -0.408567,0.06354 -0.157308,0 -0.292893,-0.02735 -0.406394,-0.08164 -0.113501,-0.05449 -0.206546,-0.132871 -0.279136,-0.235693 -0.07277,-0.102643 -0.126534,-0.227365 -0.16129,-0.373991 -0.03476,-0.14645 -0.05213,-0.313349 -0.05213,-0.500706 0,-0.407842 0.08092,-0.709247 0.242931,-0.904205 0.161834,-0.194961 0.386482,-0.292352 0.674125,-0.292352 0.09685,0 0.190617,0.01431 0.281489,0.04309 0.09069,0.02878 0.17179,0.07693 0.242751,0.144997 0.07114,0.06788 0.128706,0.158578 0.172695,0.271894 0.04381,0.113321 0.06571,0.256145 0.06571,0.428482 0,0.06643 -0.0038,0.137395 -0.01122,0.212884 -0.0076,0.07548 -0.01901,0.157125 -0.03422,0.244736 h -1.103148 c 0.0062,0.187362 0.04544,0.33091 0.118026,0.430652 0.07277,0.09957 0.189168,0.149344 0.349553,0.149344 0.09685,0 0.185367,-0.01503 0.26556,-0.04526 0.08019,-0.03007 0.141559,-0.06173 0.183918,-0.09504 z"
       style="fill:#ffffff;fill-opacity:1;fill-rule:nonzero;stroke:none;stroke-width:0.181022"
       id="path564" />
    <path
       d="m 19.70982,96.738723 c -0.07259,-0.02715 -0.139205,-0.04074 -0.199848,-0.04074 -0.08164,0 -0.152058,0.02262 -0.211072,0.06788 -0.05901,0.04541 -0.0992,0.108794 -0.120198,0.190433 v 1.513708 H 18.638533 V 96.20397 h 0.41291 l 0.06354,0.271896 h 0.0181 c 0.03946,-0.09974 0.09612,-0.177586 0.170342,-0.233521 0.07422,-0.05575 0.159661,-0.08381 0.256508,-0.08381 0.07277,0 0.143731,0.01521 0.213425,0.04544 z"
       style="fill:#ffffff;fill-opacity:1;fill-rule:nonzero;stroke:none;stroke-width:0.181022"
       id="path568" />
    <path
       d="m 17.357857,105.21873 c 0,0.13595 0.01032,0.26103 0.03114,0.37526 0.021,0.11422 0.05268,0.21215 0.09558,0.29433 0.04272,0.082 0.09757,0.14627 0.164549,0.19243 0.06734,0.0463 0.147171,0.0693 0.239673,0.0693 0.168713,0 0.299411,-0.0731 0.391913,-0.2194 0.0925,-0.14626 0.139024,-0.38358 0.139024,-0.71195 0,-0.13088 -0.01,-0.25271 -0.02968,-0.36567 -0.01973,-0.11295 -0.05014,-0.21161 -0.09178,-0.29633 -0.04182,-0.0847 -0.09612,-0.15079 -0.163282,-0.19822 -0.06698,-0.0474 -0.149162,-0.0711 -0.24619,-0.0711 -0.168893,0 -0.299591,0.0749 -0.392093,0.22519 -0.09268,0.15007 -0.138844,0.3854 -0.138844,0.70617 m -0.499621,0 c 0,-0.44894 0.08906,-0.79487 0.267188,-1.03708 0.177945,-0.24257 0.432643,-0.36385 0.76337,-0.36385 0.173419,0 0.324934,0.0333 0.454365,0.0999 0.129611,0.067 0.237138,0.16184 0.322762,0.28493 0.08562,0.12328 0.149343,0.27063 0.190797,0.44278 0.04164,0.17179 0.06245,0.36295 0.06245,0.5733 0,0.44893 -0.08961,0.79468 -0.268817,1.03707 -0.179392,0.24257 -0.433186,0.36386 -0.761559,0.36386 -0.175954,0 -0.328555,-0.0333 -0.458166,-0.0999 -0.129431,-0.067 -0.236234,-0.16183 -0.320772,-0.28493 -0.08454,-0.12327 -0.147532,-0.27063 -0.189167,-0.44278 -0.04181,-0.17179 -0.06245,-0.36294 -0.06245,-0.57329"
       style="fill:#ffffff;fill-opacity:1;fill-rule:nonzero;stroke:none;stroke-width:0.181022"
       id="path572" />
    <path
       d="m 16.429233,106.41588 c -0.08418,0.0711 -0.196771,0.12292 -0.337606,0.15514 -0.141016,0.0324 -0.281127,0.0485 -0.420333,0.0485 -0.175048,0 -0.337787,-0.0299 -0.488397,-0.0896 -0.15061,-0.0599 -0.282756,-0.15929 -0.396076,-0.29832 -0.1135,-0.13902 -0.202382,-0.32167 -0.267188,-0.54813 -0.06481,-0.22628 -0.09721,-0.50451 -0.09721,-0.83433 0,-0.34268 0.03657,-0.62742 0.109337,-0.8537 0.07295,-0.22628 0.168351,-0.40658 0.286739,-0.54089 0.118026,-0.13414 0.25343,-0.22882 0.40567,-0.28366 0.152239,-0.055 0.306108,-0.0825 0.461606,-0.0825 0.158756,0 0.297238,0.0129 0.415445,0.0389 0.118208,0.0259 0.214692,0.0548 0.289092,0.0871 l -0.121466,0.53854 c -0.06155,-0.0322 -0.133594,-0.0574 -0.21614,-0.0751 -0.08273,-0.0178 -0.18066,-0.0266 -0.293979,-0.0266 -0.223562,0 -0.395352,0.0968 -0.515008,0.29089 -0.120017,0.19406 -0.179936,0.498 -0.179936,0.91199 0,0.17777 0.01376,0.34033 0.04146,0.48749 0.02733,0.14718 0.07114,0.27407 0.13106,0.3807 0.05992,0.1068 0.136129,0.18916 0.22845,0.24745 0.09232,0.0581 0.203287,0.0872 0.332899,0.0872 0.11332,0 0.210348,-0.0152 0.291446,-0.046 0.08092,-0.0308 0.153868,-0.0672 0.218674,-0.10916 z"
       style="fill:#ffffff;fill-opacity:1;fill-rule:nonzero;stroke:none;stroke-width:0.181022"
       id="path576" />
    <path
       d="m 19.595523,103.22412 h 1.700701 v 0.56262 h -1.088485 v 0.83451 h 0.986388 v 0.56261 h -0.986388 v 0.87307 h 1.107854 v 0.56262 h -1.72007 z"
       style="fill:#ffffff;fill-opacity:1;fill-rule:nonzero;stroke:none;stroke-width:0.181022"
       id="path580" />
    <path
       d="m 18.47802,100.49643 c -0.117664,0 -0.205821,0.047 -0.264292,0.1412 -0.05883,0.0941 -0.09286,0.22609 -0.102096,0.39571 h 0.639913 c 0.0092,-0.17578 -0.0092,-0.30937 -0.05557,-0.40043 -0.04634,-0.091 -0.119293,-0.13648 -0.217951,-0.13648 m 0.723364,1.73582 c -0.07748,0.0679 -0.18247,0.12345 -0.31534,0.16671 -0.13287,0.0433 -0.272076,0.0648 -0.417436,0.0648 -0.160567,0 -0.299049,-0.0279 -0.415084,-0.0833 -0.115854,-0.0556 -0.210709,-0.13576 -0.284928,-0.24076 -0.07422,-0.10481 -0.129069,-0.23225 -0.16473,-0.38195 -0.03548,-0.14953 -0.05322,-0.32005 -0.05322,-0.51139 0,-0.41672 0.08255,-0.72445 0.248,-0.92357 0.165273,-0.19895 0.39499,-0.29851 0.688608,-0.29851 0.09884,0 0.194779,0.0147 0.287462,0.044 0.09286,0.0293 0.17541,0.0786 0.248,0.14807 0.07277,0.0693 0.131422,0.16202 0.176316,0.27769 0.04471,0.11568 0.06716,0.26158 0.06716,0.43753 0,0.0679 -0.0038,0.14047 -0.01159,0.21741 -0.0076,0.0773 -0.01919,0.16057 -0.03475,0.24999 h -1.12668 c 0.006,0.19134 0.04616,0.33797 0.12056,0.43988 0.07422,0.10192 0.193151,0.15278 0.356976,0.15278 0.09902,0 0.189349,-0.0156 0.271351,-0.0463 0.08164,-0.0308 0.144456,-0.0632 0.18772,-0.0972 z"
       style="fill:#ffffff;fill-opacity:1;fill-rule:nonzero;stroke:none;stroke-width:0.181022"
       id="path584" />
    <path
       d="m 20.447068,101.95917 c 0.08345,0 0.149886,-0.0208 0.199486,-0.0624 0.04942,-0.0416 0.08635,-0.10264 0.111148,-0.18283 v -1.09247 c -0.03095,-0.0277 -0.06553,-0.0478 -0.104269,-0.0601 -0.03874,-0.0125 -0.08888,-0.0186 -0.15061,-0.0186 -0.123638,0 -0.216503,0.0556 -0.278231,0.16672 -0.06191,0.11097 -0.09286,0.30864 -0.09286,0.59248 0,0.21288 0.02552,0.3758 0.07657,0.48822 0.05087,0.11278 0.130517,0.16907 0.238768,0.16907 m 0.862388,-0.37019 c 0,0.12944 0.0016,0.25904 0.0047,0.38866 0.0031,0.12961 0,0.43047 0,0.43047 H 20.88767 v -0.26846 h -0.01865 c -0.105174,0.21614 -0.289092,0.32421 -0.551755,0.32421 -0.234966,0 -0.41979,-0.0927 -0.554108,-0.27787 -0.134499,-0.18518 -0.20184,-0.48604 -0.20184,-0.90257 0,-0.4073 0.07277,-0.71667 0.218132,-0.9281 0.145179,-0.21144 0.361682,-0.31715 0.649145,-0.31715 0.07422,0 0.135947,0.005 0.185366,0.014 0.04942,0.009 0.09739,0.0248 0.143731,0.0463 v -0.935154 h 0.551755 z"
       style="fill:#ffffff;fill-opacity:1;fill-rule:nonzero;stroke:none;stroke-width:0.181022"
       id="path588" />
    <path
       d="m 16.507905,99.163328 -0.627784,1.377212 -0.105536,0.30683 h -0.01828 l -0.110062,-0.2976 -0.669238,-1.386442 h -0.554651 v 3.202822 h 0.545601 v -1.65635 -0.32295 l 0.11006,0.25887 0.554471,1.13029 h 0.192607 l 0.522429,-1.12577 0.128345,-0.31479 v 0.40205 0 1.62865 h 0.577459 v -3.202822 z"
       style="fill:#ffffff;fill-opacity:1;fill-rule:nonzero;stroke:none;stroke-width:0.181022"
       id="path592" />
  </g>
</svg>
