<?xml version="1.0" encoding="UTF-8" standalone="no"?>
<svg
   xmlns:dc="http://purl.org/dc/elements/1.1/"
   xmlns:cc="http://creativecommons.org/ns#"
   xmlns:rdf="http://www.w3.org/1999/02/22-rdf-syntax-ns#"
   xmlns:svg="http://www.w3.org/2000/svg"
   xmlns="http://www.w3.org/2000/svg"
   xmlns:sodipodi="http://sodipodi.sourceforge.net/DTD/sodipodi-0.dtd"
   xmlns:inkscape="http://www.inkscape.org/namespaces/inkscape"
   width="32.999889mm"
   height="32.999893mm"
   viewBox="0 0 32.99989 32.999893"
   version="1.1"
   id="svg3620"
   inkscape:version="1.0.2 (e86c870879, 2021-01-15)"
   sodipodi:docname="squared.svg">
  <defs
     id="defs3614" />
  <sodipodi:namedview
     id="base"
     pagecolor="#ffffff"
     bordercolor="#666666"
     borderopacity="1.0"
     inkscape:pageopacity="0.0"
     inkscape:pageshadow="2"
     inkscape:zoom="1.9694257"
     inkscape:cx="90.025909"
     inkscape:cy="146.58314"
     inkscape:document-units="mm"
     inkscape:current-layer="layer1"
     inkscape:document-rotation="0"
     showgrid="false"
     inkscape:window-width="1920"
     inkscape:window-height="1047"
     inkscape:window-x="0"
     inkscape:window-y="33"
     inkscape:window-maximized="1"
     fit-margin-top="0"
     fit-margin-left="0"
     fit-margin-right="0"
     fit-margin-bottom="0" />
  <metadata
     id="metadata3617">
    <rdf:RDF>
      <cc:Work
         rdf:about="">
        <dc:format>image/svg+xml</dc:format>
        <dc:type
           rdf:resource="http://purl.org/dc/dcmitype/StillImage" />
        <dc:title />
      </cc:Work>
    </rdf:RDF>
  </metadata>
  <g
     inkscape:label="Layer 1"
     inkscape:groupmode="layer"
     id="layer1"
     transform="translate(-6.9223071,-92.357376)">
    <path
       d="M 39.922198,125.35727 H 6.9223071 V 92.357376 H 39.922198 Z"
       style="fill:#001982;fill-opacity:1;fill-rule:nonzero;stroke:none;stroke-width:0.352778"
       id="path512" />
    <path
       d="m 12.011585,114.05381 c 0.03034,0.16298 0.187678,0.27058 0.351014,0.24024 0.163336,-0.0307 0.270933,-0.18732 0.240594,-0.35031 -0.16898,-0.91016 -0.122766,-0.68403 -0.122766,-8.83814 0,-0.90911 0.16898,-1.82774 0.528108,-2.71039 0.06244,-0.15381 -0.01164,-0.32879 -0.165806,-0.39123 -0.153811,-0.0624 -0.329141,0.0113 -0.391583,0.1651 -0.389467,0.95673 -0.572205,1.95333 -0.572205,2.93652 0,7.85354 -0.05221,7.96467 0.132644,8.94821"
       style="fill:#e0b9bd;fill-opacity:1;fill-rule:nonzero;stroke:none;stroke-width:0.352778"
       id="path516" />
    <path
       d="m 17.179039,99.321561 c -2.259189,0.982489 -3.795889,3.222629 -3.795889,5.784149 v 3.00319 c 0,0.16581 0.134761,0.30022 0.300567,0.30022 0.166158,0 0.300919,-0.13441 0.300919,-0.30022 v -3.00319 c 0,-2.31775 1.390297,-4.34411 3.434997,-5.233463 0.152048,-0.06632 0.221898,-0.243417 0.155575,-0.395464 -0.06632,-0.152047 -0.243769,-0.221544 -0.396169,-0.155222"
       style="fill:#e0b9bd;fill-opacity:1;fill-rule:nonzero;stroke:none;stroke-width:0.352778"
       id="path520" />
    <path
       d="m 15.824795,117.5945 c 0.131233,0.10195 0.320322,0.0783 0.422275,-0.0526 0.101953,-0.13124 0.07832,-0.31962 -0.05292,-0.42157 -1.377597,-1.06998 -2.209094,-2.71322 -2.209447,-4.50674 v -3.0032 c 0,-0.1658 -0.134761,-0.30021 -0.300919,-0.30021 -0.166159,0 -0.300567,0.13441 -0.300567,0.30021 v 3.0032 c -3.53e-4,1.98085 0.920397,3.80012 2.441575,4.98087"
       style="fill:#e0b9bd;fill-opacity:1;fill-rule:nonzero;stroke:none;stroke-width:0.352778"
       id="path524" />
    <path
       d="m 19.294682,97.3072 c -2.386542,0.126647 -4.687358,1.339497 -6.113992,3.48333 -0.09207,0.13829 -0.05433,0.32455 0.08396,0.41628 0.138641,0.0917 0.325261,0.0543 0.416983,-0.084 1.312333,-1.972023 3.42265,-3.088565 5.613047,-3.214154 z"
       style="fill:#e0b9bd;fill-opacity:1;fill-rule:nonzero;stroke:none;stroke-width:0.352778"
       id="path528" />
    <path
       d="m 19.294682,98.813244 c -0.199672,0.01305 -0.401108,0.03351 -0.60325,0.06597 -0.164042,0.02611 -0.275872,0.18027 -0.249414,0.343959 0.02646,0.163689 0.180622,0.275166 0.344664,0.249061 0.170392,-0.02716 0.339725,-0.0448 0.508,-0.0568 z"
       style="fill:#e0b9bd;fill-opacity:1;fill-rule:nonzero;stroke:none;stroke-width:0.352778"
       id="path532" />
    <path
       d="m 18.127129,113.80369 c 0.245533,0.43427 0.66675,0.75706 1.167694,0.87207 v -0.62477 c -0.289277,-0.10372 -0.527402,-0.31433 -0.666044,-0.5842 -0.08396,-0.16334 -0.648758,0.0762 -0.50165,0.3369"
       style="fill:#e0b9bd;fill-opacity:1;fill-rule:nonzero;stroke:none;stroke-width:0.352778"
       id="path536" />
    <path
       d="m 19.294682,116.8011 c -2.116314,-0.20567 -3.806472,-1.98473 -3.805767,-4.18747 3.53e-4,-1.48237 1.201209,-2.70263 2.70757,-2.70299 0.390525,3.6e-4 0.761647,0.0847 1.098197,0.23425 v -0.64629 c -0.710142,-0.25153 -1.516239,-0.26635 -2.301522,0.0402 v -4.43301 c 7.05e-4,-1.39523 1.036461,-2.47967 2.301522,-2.673 v -0.60783 c -1.595261,0.19755 -2.903008,1.55645 -2.903008,3.27589 v 4.74592 c -0.354542,0.23072 -0.661106,0.5274 -0.903817,0.87242 -0.0046,-3.82023 -0.02187,-5.40103 0.02681,-6.05966 0.141111,-1.83127 1.698272,-3.54048 3.780014,-3.73874 v -0.60325 c -2.01295,0.16792 -3.666772,1.56951 -4.21393,3.43464 -0.263173,0.88548 -0.193675,0.67663 -0.193675,8.86143 7.05e-4,2.1904 1.465438,4.02943 3.457927,4.61186 0.317853,0.0931 0.635353,0.15028 0.949678,0.17745 z"
       style="fill:#e0b9bd;fill-opacity:1;fill-rule:nonzero;stroke:none;stroke-width:0.352778"
       id="path540" />
    <path
       d="m 19.294682,103.35127 c -0.799394,0.1838 -1.395942,0.8957 -1.398764,1.74872 -3.53e-4,0.13335 -3.53e-4,2.77354 -3.53e-4,3.00884 0,0.16581 0.134761,0.30021 0.30092,0.30021 0.166158,0 0.300919,-0.1344 0.300919,-0.30021 v -3.0032 c 3.53e-4,-0.55421 0.353131,-0.96414 0.797278,-1.12536 z"
       style="fill:#e0b9bd;fill-opacity:1;fill-rule:nonzero;stroke:none;stroke-width:0.352778"
       id="path544" />
    <path
       d="m 19.294682,118.30884 c -0.623711,-0.0444 -1.255536,-0.19191 -1.875014,-0.46143 -0.1524,-0.0663 -0.329847,0.003 -0.396169,0.15522 -0.06632,0.15205 0.0032,0.32914 0.155575,0.39511 0.699558,0.30445 1.412875,0.46849 2.115608,0.51364 z"
       style="fill:#e0b9bd;fill-opacity:1;fill-rule:nonzero;stroke:none;stroke-width:0.352778"
       id="path548" />
    <path
       d="m 19.294682,119.80472 c -2.642658,-0.15557 -5.170311,-1.73884 -6.286147,-4.48063 -0.06279,-0.15346 -0.238125,-0.22754 -0.392289,-0.1651 -0.153811,0.0624 -0.227894,0.23742 -0.165453,0.39123 1.209322,2.97392 3.965575,4.69794 6.843889,4.85704 z"
       style="fill:#e0b9bd;fill-opacity:1;fill-rule:nonzero;stroke:none;stroke-width:0.352778"
       id="path552" />
    <path
       d="m 17.771599,111.97006 c -0.359481,0 -0.651933,0.29175 -0.651933,0.65087 0,0.35878 0.292452,0.65088 0.651933,0.65088 0.359833,0 0.652286,-0.2921 0.652286,-0.65088 0,-0.35912 -0.292453,-0.65087 -0.652286,-0.65087 m 0,1.90747 c -0.693914,0 -1.258358,-0.56374 -1.258358,-1.2566 0,-0.69285 0.564444,-1.25659 1.258358,-1.25659 0.693914,0 1.258711,0.56374 1.258711,1.25659 0,0.69286 -0.564797,1.2566 -1.258711,1.2566"
       style="fill:#e0b9bd;fill-opacity:1;fill-rule:nonzero;stroke:none;stroke-width:0.352778"
       id="path556" />
    <path
       d="m 22.653479,101.14316 c 0.03528,0.012 0.101953,0.0219 0.198967,0.0307 0.09737,0.009 0.163689,0.0134 0.198966,0.0134 0.129823,0 0.253648,-0.0176 0.371828,-0.0529 0.118181,-0.0353 0.222603,-0.0956 0.313972,-0.18133 0.09137,-0.085 0.163689,-0.20284 0.216959,-0.35313 0.05292,-0.15028 0.07973,-0.34008 0.07973,-0.56973 0,-0.194384 -0.0254,-0.358779 -0.07549,-0.494598 -0.05009,-0.135114 -0.117828,-0.242711 -0.203553,-0.322439 -0.08537,-0.07938 -0.18415,-0.136878 -0.296333,-0.172156 -0.111831,-0.03528 -0.230011,-0.05292 -0.353836,-0.05292 -0.182739,0 -0.333375,0.01482 -0.451203,0.0441 z m -1.114778,-2.994378 c 0.212372,-0.04692 0.445206,-0.08396 0.699206,-0.110066 0.253294,-0.02646 0.506941,-0.03986 0.760941,-0.03986 0.270934,0 0.537634,0.02505 0.800453,0.07514 0.262467,0.05009 0.496711,0.14852 0.703439,0.295628 0.206375,0.147461 0.374297,0.354895 0.50412,0.622653 0.129822,0.268111 0.194733,0.617008 0.194733,1.046693 0,0.38876 -0.05468,0.7186 -0.163689,0.98918 -0.109008,0.27094 -0.255058,0.49178 -0.437797,0.66252 -0.183092,0.1711 -0.394053,0.29457 -0.632531,0.37112 -0.239183,0.0766 -0.485422,0.11466 -0.739069,0.11466 h -0.115006 c -0.05292,0 -0.109008,-0.001 -0.167922,-0.004 -0.05927,-0.003 -0.116769,-0.007 -0.172861,-0.0134 -0.05574,-0.006 -0.0956,-0.0116 -0.119239,-0.0176 v 2.12866 h -1.114778 z"
       style="fill:#ffffff;fill-opacity:1;fill-rule:nonzero;stroke:none;stroke-width:0.352778"
       id="path560" />
    <path
       d="m 27.357065,100.63086 c -0.224014,0 -0.392289,0.0896 -0.504472,0.26952 -0.112184,0.17957 -0.176742,0.4311 -0.194381,0.75495 h 1.220611 c 0.01799,-0.3355 -0.01764,-0.5902 -0.105833,-0.76412 -0.08855,-0.17357 -0.227189,-0.26035 -0.415925,-0.26035 m 1.380067,3.31223 c -0.147461,0.12947 -0.348192,0.2353 -0.601486,0.31785 -0.253648,0.0822 -0.519289,0.12383 -0.79622,0.12383 -0.306564,0 -0.570794,-0.0533 -0.791986,-0.1591 -0.221192,-0.10619 -0.402519,-0.25894 -0.543983,-0.45932 -0.141817,-0.20003 -0.246592,-0.44309 -0.314325,-0.72884 -0.06773,-0.2854 -0.1016,-0.61066 -0.1016,-0.97578 0,-0.79481 0.157691,-1.38219 0.473427,-1.76213 0.315384,-0.37994 0.753181,-0.569734 1.313745,-0.569734 0.188736,0 0.371475,0.02787 0.548569,0.08396 0.176742,0.05609 0.334786,0.14993 0.473075,0.282574 0.138642,0.13229 0.250825,0.30904 0.33655,0.52987 0.08537,0.22084 0.128059,0.49918 0.128059,0.83503 0,0.12947 -0.0074,0.26776 -0.02187,0.41487 -0.01482,0.1471 -0.03704,0.30621 -0.06668,0.47695 H 26.62258 c 0.01199,0.36513 0.08855,0.64488 0.230011,0.83926 0.141816,0.19403 0.368653,0.29104 0.681214,0.29104 0.188736,0 0.361244,-0.0293 0.517525,-0.0882 0.15628,-0.0586 0.275872,-0.1203 0.358422,-0.18521 z"
       style="fill:#ffffff;fill-opacity:1;fill-rule:nonzero;stroke:none;stroke-width:0.352778"
       id="path564" />
    <path
       d="m 31.842776,100.8958 c -0.141464,-0.0529 -0.271286,-0.0794 -0.389467,-0.0794 -0.159102,0 -0.296333,0.0441 -0.411339,0.13229 -0.115005,0.0885 -0.193322,0.21202 -0.234244,0.37112 v 2.94993 h -1.052689 v -4.416076 h 0.804686 l 0.123825,0.529876 h 0.03528 c 0.07691,-0.19438 0.187325,-0.34608 0.331964,-0.455087 0.144639,-0.108655 0.31115,-0.163336 0.499886,-0.163336 0.141817,0 0.280106,0.02963 0.415925,0.08855 z"
       style="fill:#ffffff;fill-opacity:1;fill-rule:nonzero;stroke:none;stroke-width:0.352778"
       id="path568" />
    <path
       d="m 27.25924,117.42174 c 0,0.26494 0.02011,0.50871 0.06068,0.73131 0.04092,0.2226 0.102658,0.41345 0.186266,0.57361 0.08326,0.15981 0.190148,0.28505 0.320675,0.37501 0.131234,0.0903 0.286809,0.13511 0.467078,0.13511 0.328789,0 0.583495,-0.14252 0.763764,-0.42757 0.18027,-0.28504 0.270933,-0.74753 0.270933,-1.38747 0,-0.25506 -0.0194,-0.49248 -0.05785,-0.71261 -0.03845,-0.22013 -0.09772,-0.4124 -0.178858,-0.5775 -0.08149,-0.1651 -0.187325,-0.29386 -0.318206,-0.38629 -0.130528,-0.0924 -0.290689,-0.13864 -0.479778,-0.13864 -0.329141,0 -0.583847,0.14605 -0.764116,0.43885 -0.180623,0.29246 -0.270581,0.75107 -0.270581,1.37619 m -0.973667,0 c 0,-0.87489 0.173567,-1.54905 0.5207,-2.02106 0.346781,-0.47273 0.843139,-0.70909 1.487664,-0.70909 0.337961,0 0.633236,0.0649 0.885472,0.19474 0.252589,0.13052 0.462139,0.31538 0.629003,0.55527 0.166864,0.24024 0.291042,0.5274 0.371828,0.86289 0.08114,0.33479 0.121708,0.70732 0.121708,1.11725 0,0.87489 -0.174625,1.54869 -0.523875,2.02106 -0.349602,0.47273 -0.844197,0.70909 -1.484136,0.70909 -0.3429,0 -0.640291,-0.0649 -0.89288,-0.19474 -0.252236,-0.13052 -0.460375,-0.31538 -0.625123,-0.55527 -0.164747,-0.24024 -0.287513,-0.5274 -0.368652,-0.86289 -0.08149,-0.33479 -0.121709,-0.70732 -0.121709,-1.11725"
       style="fill:#ffffff;fill-opacity:1;fill-rule:nonzero;stroke:none;stroke-width:0.352778"
       id="path572" />
    <path
       d="m 25.449525,119.75477 c -0.164042,0.13864 -0.383469,0.23954 -0.657931,0.30233 -0.274813,0.0631 -0.547863,0.0945 -0.81915,0.0945 -0.341136,0 -0.658283,-0.0582 -0.951794,-0.17462 -0.293511,-0.11677 -0.551039,-0.31044 -0.771878,-0.58138 -0.221191,-0.27093 -0.394405,-0.62688 -0.5207,-1.06821 -0.126294,-0.44097 -0.189441,-0.98319 -0.189441,-1.62595 0,-0.66781 0.07126,-1.22273 0.213077,-1.6637 0.14217,-0.44097 0.328084,-0.79234 0.5588,-1.0541 0.230012,-0.26141 0.493889,-0.44591 0.790575,-0.5528 0.296686,-0.10725 0.596548,-0.16087 0.899584,-0.16087 0.309386,0 0.579261,0.0251 0.809625,0.0759 0.230364,0.0504 0.418394,0.10689 0.563386,0.16968 l -0.236714,1.04952 c -0.119945,-0.0628 -0.26035,-0.11183 -0.421217,-0.14641 -0.161219,-0.0346 -0.352072,-0.0519 -0.572911,-0.0519 -0.43568,0 -0.770467,0.18873 -1.003653,0.56691 -0.233891,0.37818 -0.350661,0.97049 -0.350661,1.77729 0,0.34643 0.02681,0.66323 0.08079,0.95003 0.05327,0.28681 0.138642,0.53411 0.255411,0.7419 0.11677,0.20813 0.265289,0.36865 0.445206,0.48224 0.179917,0.11324 0.396169,0.17004 0.648758,0.17004 0.220839,0 0.409928,-0.0296 0.567973,-0.0896 0.157691,-0.06 0.299861,-0.13088 0.426155,-0.21273 z"
       style="fill:#ffffff;fill-opacity:1;fill-rule:nonzero;stroke:none;stroke-width:0.352778"
       id="path576" />
    <path
       d="m 31.620032,113.53463 h 3.314347 v 1.09643 h -2.121253 v 1.62631 h 1.922286 v 1.09643 h -1.922286 v 1.70145 h 2.159 v 1.09643 h -3.352094 z"
       style="fill:#ffffff;fill-opacity:1;fill-rule:nonzero;stroke:none;stroke-width:0.352778"
       id="path580" />
    <path
       d="m 29.442229,108.21886 c -0.229306,0 -0.401108,0.0917 -0.515056,0.27517 -0.114652,0.18344 -0.180975,0.44062 -0.198966,0.77117 h 1.247069 c 0.01799,-0.34255 -0.01799,-0.6029 -0.108303,-0.78035 -0.09031,-0.17744 -0.23248,-0.26599 -0.424744,-0.26599 m 1.4097,3.38279 c -0.150989,0.13229 -0.3556,0.24059 -0.614539,0.3249 -0.258939,0.0843 -0.530225,0.1263 -0.813505,0.1263 -0.312914,0 -0.582789,-0.0543 -0.80892,-0.16228 -0.225778,-0.1083 -0.410633,-0.26458 -0.555272,-0.46919 -0.144639,-0.20426 -0.251531,-0.45262 -0.321028,-0.74436 -0.06914,-0.2914 -0.103717,-0.62372 -0.103717,-0.9966 0,-0.8121 0.160867,-1.41182 0.483306,-1.79987 0.322086,-0.38771 0.769761,-0.58173 1.341967,-0.58173 0.192616,0 0.379589,0.0286 0.560211,0.0857 0.180975,0.0571 0.341841,0.15311 0.483305,0.28857 0.141817,0.13512 0.256117,0.31574 0.343606,0.54116 0.08714,0.22543 0.13088,0.50977 0.13088,0.85267 0,0.13229 -0.0074,0.27375 -0.02258,0.42368 -0.01482,0.15064 -0.0374,0.31292 -0.06773,0.48719 h -2.195689 c 0.01164,0.37289 0.08996,0.65864 0.23495,0.85725 0.144639,0.19861 0.376414,0.29774 0.695678,0.29774 0.19297,0 0.369006,-0.0303 0.528814,-0.0903 0.159103,-0.06 0.281517,-0.12312 0.365831,-0.18944 z"
       style="fill:#ffffff;fill-opacity:1;fill-rule:nonzero;stroke:none;stroke-width:0.352778"
       id="path584" />
    <path
       d="m 33.279534,111.06948 c 0.162631,0 0.2921,-0.0406 0.388761,-0.12171 0.09631,-0.0811 0.168275,-0.20002 0.216606,-0.3563 v -2.12902 c -0.06032,-0.054 -0.127706,-0.0931 -0.2032,-0.11712 -0.07549,-0.0243 -0.173214,-0.0363 -0.293511,-0.0363 -0.240948,0 -0.421923,0.10831 -0.54222,0.32491 -0.12065,0.21626 -0.180975,0.60149 -0.180975,1.15464 0,0.41487 0.04974,0.73237 0.149225,0.95145 0.09913,0.21978 0.254353,0.32949 0.465314,0.32949 m 1.680633,-0.72143 c 0,0.25224 0.0032,0.50482 0.0092,0.75741 0.006,0.25259 0,0.83891 0,0.83891 h -0.831145 v -0.52317 h -0.03634 c -0.204964,0.42122 -0.563386,0.63182 -1.075267,0.63182 -0.457905,0 -0.818091,-0.18062 -1.079852,-0.54151 -0.262114,-0.36089 -0.393348,-0.94721 -0.393348,-1.75895 0,-0.79375 0.141817,-1.39665 0.425098,-1.80869 0.282927,-0.41205 0.70485,-0.61807 1.265061,-0.61807 0.144639,0 0.264936,0.009 0.361244,0.0272 0.09631,0.018 0.189795,0.0483 0.280106,0.0903 v -1.82245 h 1.075266 z"
       style="fill:#ffffff;fill-opacity:1;fill-rule:nonzero;stroke:none;stroke-width:0.352778"
       id="path588" />
    <path
       d="m 25.602843,105.6209 -1.223433,2.68393 -0.20567,0.59796 h -0.03563 l -0.214489,-0.57997 -1.30422,-2.70192 H 21.53849 v 6.2417 h 1.063273 v -3.22792 -0.62936 l 0.214488,0.50448 1.080559,2.20274 h 0.375355 l 1.018117,-2.19392 0.250119,-0.61348 v 0.78352 0 3.17394 h 1.125361 v -6.2417 z"
       style="fill:#ffffff;fill-opacity:1;fill-rule:nonzero;stroke:none;stroke-width:0.352778"
       id="path592" />
  </g>
</svg>
